%TF.GenerationSoftware,KiCad,Pcbnew,9.0.6*%
%TF.CreationDate,2026-01-24T19:44:13+08:00*%
%TF.ProjectId,TENG_module,54454e47-5f6d-46f6-9475-6c652e6b6963,rev?*%
%TF.SameCoordinates,Original*%
%TF.FileFunction,Legend,Top*%
%TF.FilePolarity,Positive*%
%FSLAX46Y46*%
G04 Gerber Fmt 4.6, Leading zero omitted, Abs format (unit mm)*
G04 Created by KiCad (PCBNEW 9.0.6) date 2026-01-24 19:44:13*
%MOMM*%
%LPD*%
G01*
G04 APERTURE LIST*
%ADD10C,0.100000*%
%ADD11C,0.150000*%
%ADD12C,0.504000*%
%ADD13C,0.127000*%
%ADD14C,0.120000*%
%ADD15C,0.400000*%
G04 APERTURE END LIST*
D10*
X167000000Y-74000000D02*
X187000000Y-74000000D01*
X187000000Y-94000000D01*
X167000000Y-94000000D01*
X167000000Y-74000000D01*
X164303884Y-90491466D02*
X165065789Y-90491466D01*
X164684836Y-90872419D02*
X164684836Y-90110514D01*
X169875312Y-90262475D02*
X169541979Y-89786284D01*
X169303884Y-90262475D02*
X169303884Y-89262475D01*
X169303884Y-89262475D02*
X169684836Y-89262475D01*
X169684836Y-89262475D02*
X169780074Y-89310094D01*
X169780074Y-89310094D02*
X169827693Y-89357713D01*
X169827693Y-89357713D02*
X169875312Y-89452951D01*
X169875312Y-89452951D02*
X169875312Y-89595808D01*
X169875312Y-89595808D02*
X169827693Y-89691046D01*
X169827693Y-89691046D02*
X169780074Y-89738665D01*
X169780074Y-89738665D02*
X169684836Y-89786284D01*
X169684836Y-89786284D02*
X169303884Y-89786284D01*
X170684836Y-90214856D02*
X170589598Y-90262475D01*
X170589598Y-90262475D02*
X170399122Y-90262475D01*
X170399122Y-90262475D02*
X170303884Y-90214856D01*
X170303884Y-90214856D02*
X170256265Y-90119617D01*
X170256265Y-90119617D02*
X170256265Y-89738665D01*
X170256265Y-89738665D02*
X170303884Y-89643427D01*
X170303884Y-89643427D02*
X170399122Y-89595808D01*
X170399122Y-89595808D02*
X170589598Y-89595808D01*
X170589598Y-89595808D02*
X170684836Y-89643427D01*
X170684836Y-89643427D02*
X170732455Y-89738665D01*
X170732455Y-89738665D02*
X170732455Y-89833903D01*
X170732455Y-89833903D02*
X170256265Y-89929141D01*
X171065789Y-89595808D02*
X171303884Y-90262475D01*
X171303884Y-90262475D02*
X171541979Y-89595808D01*
X171922932Y-90167236D02*
X171970551Y-90214856D01*
X171970551Y-90214856D02*
X171922932Y-90262475D01*
X171922932Y-90262475D02*
X171875313Y-90214856D01*
X171875313Y-90214856D02*
X171922932Y-90167236D01*
X171922932Y-90167236D02*
X171922932Y-90262475D01*
X172351503Y-89357713D02*
X172399122Y-89310094D01*
X172399122Y-89310094D02*
X172494360Y-89262475D01*
X172494360Y-89262475D02*
X172732455Y-89262475D01*
X172732455Y-89262475D02*
X172827693Y-89310094D01*
X172827693Y-89310094D02*
X172875312Y-89357713D01*
X172875312Y-89357713D02*
X172922931Y-89452951D01*
X172922931Y-89452951D02*
X172922931Y-89548189D01*
X172922931Y-89548189D02*
X172875312Y-89691046D01*
X172875312Y-89691046D02*
X172303884Y-90262475D01*
X172303884Y-90262475D02*
X172922931Y-90262475D01*
X173351503Y-90167236D02*
X173399122Y-90214856D01*
X173399122Y-90214856D02*
X173351503Y-90262475D01*
X173351503Y-90262475D02*
X173303884Y-90214856D01*
X173303884Y-90214856D02*
X173351503Y-90167236D01*
X173351503Y-90167236D02*
X173351503Y-90262475D01*
X174018169Y-89262475D02*
X174113407Y-89262475D01*
X174113407Y-89262475D02*
X174208645Y-89310094D01*
X174208645Y-89310094D02*
X174256264Y-89357713D01*
X174256264Y-89357713D02*
X174303883Y-89452951D01*
X174303883Y-89452951D02*
X174351502Y-89643427D01*
X174351502Y-89643427D02*
X174351502Y-89881522D01*
X174351502Y-89881522D02*
X174303883Y-90071998D01*
X174303883Y-90071998D02*
X174256264Y-90167236D01*
X174256264Y-90167236D02*
X174208645Y-90214856D01*
X174208645Y-90214856D02*
X174113407Y-90262475D01*
X174113407Y-90262475D02*
X174018169Y-90262475D01*
X174018169Y-90262475D02*
X173922931Y-90214856D01*
X173922931Y-90214856D02*
X173875312Y-90167236D01*
X173875312Y-90167236D02*
X173827693Y-90071998D01*
X173827693Y-90071998D02*
X173780074Y-89881522D01*
X173780074Y-89881522D02*
X173780074Y-89643427D01*
X173780074Y-89643427D02*
X173827693Y-89452951D01*
X173827693Y-89452951D02*
X173875312Y-89357713D01*
X173875312Y-89357713D02*
X173922931Y-89310094D01*
X173922931Y-89310094D02*
X174018169Y-89262475D01*
X169303884Y-91491466D02*
X170065789Y-91491466D01*
X171303884Y-91872419D02*
X171303884Y-90872419D01*
X171303884Y-90872419D02*
X171541979Y-90872419D01*
X171541979Y-90872419D02*
X171684836Y-90920038D01*
X171684836Y-90920038D02*
X171780074Y-91015276D01*
X171780074Y-91015276D02*
X171827693Y-91110514D01*
X171827693Y-91110514D02*
X171875312Y-91300990D01*
X171875312Y-91300990D02*
X171875312Y-91443847D01*
X171875312Y-91443847D02*
X171827693Y-91634323D01*
X171827693Y-91634323D02*
X171780074Y-91729561D01*
X171780074Y-91729561D02*
X171684836Y-91824800D01*
X171684836Y-91824800D02*
X171541979Y-91872419D01*
X171541979Y-91872419D02*
X171303884Y-91872419D01*
X172684836Y-91824800D02*
X172589598Y-91872419D01*
X172589598Y-91872419D02*
X172399122Y-91872419D01*
X172399122Y-91872419D02*
X172303884Y-91824800D01*
X172303884Y-91824800D02*
X172256265Y-91729561D01*
X172256265Y-91729561D02*
X172256265Y-91348609D01*
X172256265Y-91348609D02*
X172303884Y-91253371D01*
X172303884Y-91253371D02*
X172399122Y-91205752D01*
X172399122Y-91205752D02*
X172589598Y-91205752D01*
X172589598Y-91205752D02*
X172684836Y-91253371D01*
X172684836Y-91253371D02*
X172732455Y-91348609D01*
X172732455Y-91348609D02*
X172732455Y-91443847D01*
X172732455Y-91443847D02*
X172256265Y-91539085D01*
X173113408Y-91824800D02*
X173208646Y-91872419D01*
X173208646Y-91872419D02*
X173399122Y-91872419D01*
X173399122Y-91872419D02*
X173494360Y-91824800D01*
X173494360Y-91824800D02*
X173541979Y-91729561D01*
X173541979Y-91729561D02*
X173541979Y-91681942D01*
X173541979Y-91681942D02*
X173494360Y-91586704D01*
X173494360Y-91586704D02*
X173399122Y-91539085D01*
X173399122Y-91539085D02*
X173256265Y-91539085D01*
X173256265Y-91539085D02*
X173161027Y-91491466D01*
X173161027Y-91491466D02*
X173113408Y-91396228D01*
X173113408Y-91396228D02*
X173113408Y-91348609D01*
X173113408Y-91348609D02*
X173161027Y-91253371D01*
X173161027Y-91253371D02*
X173256265Y-91205752D01*
X173256265Y-91205752D02*
X173399122Y-91205752D01*
X173399122Y-91205752D02*
X173494360Y-91253371D01*
X173970551Y-91872419D02*
X173970551Y-91205752D01*
X173970551Y-90872419D02*
X173922932Y-90920038D01*
X173922932Y-90920038D02*
X173970551Y-90967657D01*
X173970551Y-90967657D02*
X174018170Y-90920038D01*
X174018170Y-90920038D02*
X173970551Y-90872419D01*
X173970551Y-90872419D02*
X173970551Y-90967657D01*
X174875312Y-91205752D02*
X174875312Y-92015276D01*
X174875312Y-92015276D02*
X174827693Y-92110514D01*
X174827693Y-92110514D02*
X174780074Y-92158133D01*
X174780074Y-92158133D02*
X174684836Y-92205752D01*
X174684836Y-92205752D02*
X174541979Y-92205752D01*
X174541979Y-92205752D02*
X174446741Y-92158133D01*
X174875312Y-91824800D02*
X174780074Y-91872419D01*
X174780074Y-91872419D02*
X174589598Y-91872419D01*
X174589598Y-91872419D02*
X174494360Y-91824800D01*
X174494360Y-91824800D02*
X174446741Y-91777180D01*
X174446741Y-91777180D02*
X174399122Y-91681942D01*
X174399122Y-91681942D02*
X174399122Y-91396228D01*
X174399122Y-91396228D02*
X174446741Y-91300990D01*
X174446741Y-91300990D02*
X174494360Y-91253371D01*
X174494360Y-91253371D02*
X174589598Y-91205752D01*
X174589598Y-91205752D02*
X174780074Y-91205752D01*
X174780074Y-91205752D02*
X174875312Y-91253371D01*
X175351503Y-91205752D02*
X175351503Y-91872419D01*
X175351503Y-91300990D02*
X175399122Y-91253371D01*
X175399122Y-91253371D02*
X175494360Y-91205752D01*
X175494360Y-91205752D02*
X175637217Y-91205752D01*
X175637217Y-91205752D02*
X175732455Y-91253371D01*
X175732455Y-91253371D02*
X175780074Y-91348609D01*
X175780074Y-91348609D02*
X175780074Y-91872419D01*
X176637217Y-91824800D02*
X176541979Y-91872419D01*
X176541979Y-91872419D02*
X176351503Y-91872419D01*
X176351503Y-91872419D02*
X176256265Y-91824800D01*
X176256265Y-91824800D02*
X176208646Y-91729561D01*
X176208646Y-91729561D02*
X176208646Y-91348609D01*
X176208646Y-91348609D02*
X176256265Y-91253371D01*
X176256265Y-91253371D02*
X176351503Y-91205752D01*
X176351503Y-91205752D02*
X176541979Y-91205752D01*
X176541979Y-91205752D02*
X176637217Y-91253371D01*
X176637217Y-91253371D02*
X176684836Y-91348609D01*
X176684836Y-91348609D02*
X176684836Y-91443847D01*
X176684836Y-91443847D02*
X176208646Y-91539085D01*
X177541979Y-91872419D02*
X177541979Y-90872419D01*
X177541979Y-91824800D02*
X177446741Y-91872419D01*
X177446741Y-91872419D02*
X177256265Y-91872419D01*
X177256265Y-91872419D02*
X177161027Y-91824800D01*
X177161027Y-91824800D02*
X177113408Y-91777180D01*
X177113408Y-91777180D02*
X177065789Y-91681942D01*
X177065789Y-91681942D02*
X177065789Y-91396228D01*
X177065789Y-91396228D02*
X177113408Y-91300990D01*
X177113408Y-91300990D02*
X177161027Y-91253371D01*
X177161027Y-91253371D02*
X177256265Y-91205752D01*
X177256265Y-91205752D02*
X177446741Y-91205752D01*
X177446741Y-91205752D02*
X177541979Y-91253371D01*
X178780075Y-91872419D02*
X178780075Y-90872419D01*
X178780075Y-91253371D02*
X178875313Y-91205752D01*
X178875313Y-91205752D02*
X179065789Y-91205752D01*
X179065789Y-91205752D02*
X179161027Y-91253371D01*
X179161027Y-91253371D02*
X179208646Y-91300990D01*
X179208646Y-91300990D02*
X179256265Y-91396228D01*
X179256265Y-91396228D02*
X179256265Y-91681942D01*
X179256265Y-91681942D02*
X179208646Y-91777180D01*
X179208646Y-91777180D02*
X179161027Y-91824800D01*
X179161027Y-91824800D02*
X179065789Y-91872419D01*
X179065789Y-91872419D02*
X178875313Y-91872419D01*
X178875313Y-91872419D02*
X178780075Y-91824800D01*
X179589599Y-91205752D02*
X179827694Y-91872419D01*
X180065789Y-91205752D02*
X179827694Y-91872419D01*
X179827694Y-91872419D02*
X179732456Y-92110514D01*
X179732456Y-92110514D02*
X179684837Y-92158133D01*
X179684837Y-92158133D02*
X179589599Y-92205752D01*
X181065790Y-90872419D02*
X181637218Y-90872419D01*
X181351504Y-91872419D02*
X181351504Y-90872419D01*
X182399123Y-91872419D02*
X182399123Y-91348609D01*
X182399123Y-91348609D02*
X182351504Y-91253371D01*
X182351504Y-91253371D02*
X182256266Y-91205752D01*
X182256266Y-91205752D02*
X182065790Y-91205752D01*
X182065790Y-91205752D02*
X181970552Y-91253371D01*
X182399123Y-91824800D02*
X182303885Y-91872419D01*
X182303885Y-91872419D02*
X182065790Y-91872419D01*
X182065790Y-91872419D02*
X181970552Y-91824800D01*
X181970552Y-91824800D02*
X181922933Y-91729561D01*
X181922933Y-91729561D02*
X181922933Y-91634323D01*
X181922933Y-91634323D02*
X181970552Y-91539085D01*
X181970552Y-91539085D02*
X182065790Y-91491466D01*
X182065790Y-91491466D02*
X182303885Y-91491466D01*
X182303885Y-91491466D02*
X182399123Y-91443847D01*
X182875314Y-91872419D02*
X182875314Y-90872419D01*
X182970552Y-91491466D02*
X183256266Y-91872419D01*
X183256266Y-91205752D02*
X182875314Y-91586704D01*
X184113409Y-91205752D02*
X184113409Y-91872419D01*
X183684838Y-91205752D02*
X183684838Y-91729561D01*
X183684838Y-91729561D02*
X183732457Y-91824800D01*
X183732457Y-91824800D02*
X183827695Y-91872419D01*
X183827695Y-91872419D02*
X183970552Y-91872419D01*
X183970552Y-91872419D02*
X184065790Y-91824800D01*
X184065790Y-91824800D02*
X184113409Y-91777180D01*
X184732457Y-91872419D02*
X184637219Y-91824800D01*
X184637219Y-91824800D02*
X184589600Y-91777180D01*
X184589600Y-91777180D02*
X184541981Y-91681942D01*
X184541981Y-91681942D02*
X184541981Y-91396228D01*
X184541981Y-91396228D02*
X184589600Y-91300990D01*
X184589600Y-91300990D02*
X184637219Y-91253371D01*
X184637219Y-91253371D02*
X184732457Y-91205752D01*
X184732457Y-91205752D02*
X184875314Y-91205752D01*
X184875314Y-91205752D02*
X184970552Y-91253371D01*
X184970552Y-91253371D02*
X185018171Y-91300990D01*
X185018171Y-91300990D02*
X185065790Y-91396228D01*
X185065790Y-91396228D02*
X185065790Y-91681942D01*
X185065790Y-91681942D02*
X185018171Y-91777180D01*
X185018171Y-91777180D02*
X184970552Y-91824800D01*
X184970552Y-91824800D02*
X184875314Y-91872419D01*
X184875314Y-91872419D02*
X184732457Y-91872419D01*
X174637217Y-72348609D02*
X174780074Y-72396228D01*
X174780074Y-72396228D02*
X174827693Y-72443847D01*
X174827693Y-72443847D02*
X174875312Y-72539085D01*
X174875312Y-72539085D02*
X174875312Y-72681942D01*
X174875312Y-72681942D02*
X174827693Y-72777180D01*
X174827693Y-72777180D02*
X174780074Y-72824800D01*
X174780074Y-72824800D02*
X174684836Y-72872419D01*
X174684836Y-72872419D02*
X174303884Y-72872419D01*
X174303884Y-72872419D02*
X174303884Y-71872419D01*
X174303884Y-71872419D02*
X174637217Y-71872419D01*
X174637217Y-71872419D02*
X174732455Y-71920038D01*
X174732455Y-71920038D02*
X174780074Y-71967657D01*
X174780074Y-71967657D02*
X174827693Y-72062895D01*
X174827693Y-72062895D02*
X174827693Y-72158133D01*
X174827693Y-72158133D02*
X174780074Y-72253371D01*
X174780074Y-72253371D02*
X174732455Y-72300990D01*
X174732455Y-72300990D02*
X174637217Y-72348609D01*
X174637217Y-72348609D02*
X174303884Y-72348609D01*
X175732455Y-72872419D02*
X175732455Y-72348609D01*
X175732455Y-72348609D02*
X175684836Y-72253371D01*
X175684836Y-72253371D02*
X175589598Y-72205752D01*
X175589598Y-72205752D02*
X175399122Y-72205752D01*
X175399122Y-72205752D02*
X175303884Y-72253371D01*
X175732455Y-72824800D02*
X175637217Y-72872419D01*
X175637217Y-72872419D02*
X175399122Y-72872419D01*
X175399122Y-72872419D02*
X175303884Y-72824800D01*
X175303884Y-72824800D02*
X175256265Y-72729561D01*
X175256265Y-72729561D02*
X175256265Y-72634323D01*
X175256265Y-72634323D02*
X175303884Y-72539085D01*
X175303884Y-72539085D02*
X175399122Y-72491466D01*
X175399122Y-72491466D02*
X175637217Y-72491466D01*
X175637217Y-72491466D02*
X175732455Y-72443847D01*
X176065789Y-72205752D02*
X176446741Y-72205752D01*
X176208646Y-71872419D02*
X176208646Y-72729561D01*
X176208646Y-72729561D02*
X176256265Y-72824800D01*
X176256265Y-72824800D02*
X176351503Y-72872419D01*
X176351503Y-72872419D02*
X176446741Y-72872419D01*
X176637218Y-72205752D02*
X177018170Y-72205752D01*
X176780075Y-71872419D02*
X176780075Y-72729561D01*
X176780075Y-72729561D02*
X176827694Y-72824800D01*
X176827694Y-72824800D02*
X176922932Y-72872419D01*
X176922932Y-72872419D02*
X177018170Y-72872419D01*
X177732456Y-72824800D02*
X177637218Y-72872419D01*
X177637218Y-72872419D02*
X177446742Y-72872419D01*
X177446742Y-72872419D02*
X177351504Y-72824800D01*
X177351504Y-72824800D02*
X177303885Y-72729561D01*
X177303885Y-72729561D02*
X177303885Y-72348609D01*
X177303885Y-72348609D02*
X177351504Y-72253371D01*
X177351504Y-72253371D02*
X177446742Y-72205752D01*
X177446742Y-72205752D02*
X177637218Y-72205752D01*
X177637218Y-72205752D02*
X177732456Y-72253371D01*
X177732456Y-72253371D02*
X177780075Y-72348609D01*
X177780075Y-72348609D02*
X177780075Y-72443847D01*
X177780075Y-72443847D02*
X177303885Y-72539085D01*
X178208647Y-72872419D02*
X178208647Y-72205752D01*
X178208647Y-72396228D02*
X178256266Y-72300990D01*
X178256266Y-72300990D02*
X178303885Y-72253371D01*
X178303885Y-72253371D02*
X178399123Y-72205752D01*
X178399123Y-72205752D02*
X178494361Y-72205752D01*
X178732457Y-72205752D02*
X178970552Y-72872419D01*
X179208647Y-72205752D02*
X178970552Y-72872419D01*
X178970552Y-72872419D02*
X178875314Y-73110514D01*
X178875314Y-73110514D02*
X178827695Y-73158133D01*
X178827695Y-73158133D02*
X178732457Y-73205752D01*
X164303884Y-92491466D02*
X165065789Y-92491466D01*
D11*
X141859398Y-71595342D02*
X141859398Y-72566771D01*
X141859398Y-72566771D02*
X141916541Y-72681057D01*
X141916541Y-72681057D02*
X141973684Y-72738200D01*
X141973684Y-72738200D02*
X142087969Y-72795342D01*
X142087969Y-72795342D02*
X142316541Y-72795342D01*
X142316541Y-72795342D02*
X142430826Y-72738200D01*
X142430826Y-72738200D02*
X142487969Y-72681057D01*
X142487969Y-72681057D02*
X142545112Y-72566771D01*
X142545112Y-72566771D02*
X142545112Y-71595342D01*
X143059398Y-71709628D02*
X143116541Y-71652485D01*
X143116541Y-71652485D02*
X143230827Y-71595342D01*
X143230827Y-71595342D02*
X143516541Y-71595342D01*
X143516541Y-71595342D02*
X143630827Y-71652485D01*
X143630827Y-71652485D02*
X143687969Y-71709628D01*
X143687969Y-71709628D02*
X143745112Y-71823914D01*
X143745112Y-71823914D02*
X143745112Y-71938200D01*
X143745112Y-71938200D02*
X143687969Y-72109628D01*
X143687969Y-72109628D02*
X143002255Y-72795342D01*
X143002255Y-72795342D02*
X143745112Y-72795342D01*
X163738095Y-93454819D02*
X164309523Y-93454819D01*
X164023809Y-94454819D02*
X164023809Y-93454819D01*
X164642857Y-94454819D02*
X164642857Y-93454819D01*
X164642857Y-93454819D02*
X165023809Y-93454819D01*
X165023809Y-93454819D02*
X165119047Y-93502438D01*
X165119047Y-93502438D02*
X165166666Y-93550057D01*
X165166666Y-93550057D02*
X165214285Y-93645295D01*
X165214285Y-93645295D02*
X165214285Y-93788152D01*
X165214285Y-93788152D02*
X165166666Y-93883390D01*
X165166666Y-93883390D02*
X165119047Y-93931009D01*
X165119047Y-93931009D02*
X165023809Y-93978628D01*
X165023809Y-93978628D02*
X164642857Y-93978628D01*
X165547619Y-93454819D02*
X166214285Y-93454819D01*
X166214285Y-93454819D02*
X165785714Y-94454819D01*
X160738095Y-86306819D02*
X161309523Y-86306819D01*
X161023809Y-87306819D02*
X161023809Y-86306819D01*
X161642857Y-87306819D02*
X161642857Y-86306819D01*
X161642857Y-86306819D02*
X162023809Y-86306819D01*
X162023809Y-86306819D02*
X162119047Y-86354438D01*
X162119047Y-86354438D02*
X162166666Y-86402057D01*
X162166666Y-86402057D02*
X162214285Y-86497295D01*
X162214285Y-86497295D02*
X162214285Y-86640152D01*
X162214285Y-86640152D02*
X162166666Y-86735390D01*
X162166666Y-86735390D02*
X162119047Y-86783009D01*
X162119047Y-86783009D02*
X162023809Y-86830628D01*
X162023809Y-86830628D02*
X161642857Y-86830628D01*
X163071428Y-86306819D02*
X162880952Y-86306819D01*
X162880952Y-86306819D02*
X162785714Y-86354438D01*
X162785714Y-86354438D02*
X162738095Y-86402057D01*
X162738095Y-86402057D02*
X162642857Y-86544914D01*
X162642857Y-86544914D02*
X162595238Y-86735390D01*
X162595238Y-86735390D02*
X162595238Y-87116342D01*
X162595238Y-87116342D02*
X162642857Y-87211580D01*
X162642857Y-87211580D02*
X162690476Y-87259200D01*
X162690476Y-87259200D02*
X162785714Y-87306819D01*
X162785714Y-87306819D02*
X162976190Y-87306819D01*
X162976190Y-87306819D02*
X163071428Y-87259200D01*
X163071428Y-87259200D02*
X163119047Y-87211580D01*
X163119047Y-87211580D02*
X163166666Y-87116342D01*
X163166666Y-87116342D02*
X163166666Y-86878247D01*
X163166666Y-86878247D02*
X163119047Y-86783009D01*
X163119047Y-86783009D02*
X163071428Y-86735390D01*
X163071428Y-86735390D02*
X162976190Y-86687771D01*
X162976190Y-86687771D02*
X162785714Y-86687771D01*
X162785714Y-86687771D02*
X162690476Y-86735390D01*
X162690476Y-86735390D02*
X162642857Y-86783009D01*
X162642857Y-86783009D02*
X162595238Y-86878247D01*
X136384580Y-80009166D02*
X136432200Y-80056785D01*
X136432200Y-80056785D02*
X136479819Y-80199642D01*
X136479819Y-80199642D02*
X136479819Y-80294880D01*
X136479819Y-80294880D02*
X136432200Y-80437737D01*
X136432200Y-80437737D02*
X136336961Y-80532975D01*
X136336961Y-80532975D02*
X136241723Y-80580594D01*
X136241723Y-80580594D02*
X136051247Y-80628213D01*
X136051247Y-80628213D02*
X135908390Y-80628213D01*
X135908390Y-80628213D02*
X135717914Y-80580594D01*
X135717914Y-80580594D02*
X135622676Y-80532975D01*
X135622676Y-80532975D02*
X135527438Y-80437737D01*
X135527438Y-80437737D02*
X135479819Y-80294880D01*
X135479819Y-80294880D02*
X135479819Y-80199642D01*
X135479819Y-80199642D02*
X135527438Y-80056785D01*
X135527438Y-80056785D02*
X135575057Y-80009166D01*
X135479819Y-79152023D02*
X135479819Y-79342499D01*
X135479819Y-79342499D02*
X135527438Y-79437737D01*
X135527438Y-79437737D02*
X135575057Y-79485356D01*
X135575057Y-79485356D02*
X135717914Y-79580594D01*
X135717914Y-79580594D02*
X135908390Y-79628213D01*
X135908390Y-79628213D02*
X136289342Y-79628213D01*
X136289342Y-79628213D02*
X136384580Y-79580594D01*
X136384580Y-79580594D02*
X136432200Y-79532975D01*
X136432200Y-79532975D02*
X136479819Y-79437737D01*
X136479819Y-79437737D02*
X136479819Y-79247261D01*
X136479819Y-79247261D02*
X136432200Y-79152023D01*
X136432200Y-79152023D02*
X136384580Y-79104404D01*
X136384580Y-79104404D02*
X136289342Y-79056785D01*
X136289342Y-79056785D02*
X136051247Y-79056785D01*
X136051247Y-79056785D02*
X135956009Y-79104404D01*
X135956009Y-79104404D02*
X135908390Y-79152023D01*
X135908390Y-79152023D02*
X135860771Y-79247261D01*
X135860771Y-79247261D02*
X135860771Y-79437737D01*
X135860771Y-79437737D02*
X135908390Y-79532975D01*
X135908390Y-79532975D02*
X135956009Y-79580594D01*
X135956009Y-79580594D02*
X136051247Y-79628213D01*
X127833333Y-87454819D02*
X127500000Y-86978628D01*
X127261905Y-87454819D02*
X127261905Y-86454819D01*
X127261905Y-86454819D02*
X127642857Y-86454819D01*
X127642857Y-86454819D02*
X127738095Y-86502438D01*
X127738095Y-86502438D02*
X127785714Y-86550057D01*
X127785714Y-86550057D02*
X127833333Y-86645295D01*
X127833333Y-86645295D02*
X127833333Y-86788152D01*
X127833333Y-86788152D02*
X127785714Y-86883390D01*
X127785714Y-86883390D02*
X127738095Y-86931009D01*
X127738095Y-86931009D02*
X127642857Y-86978628D01*
X127642857Y-86978628D02*
X127261905Y-86978628D01*
X128214286Y-86550057D02*
X128261905Y-86502438D01*
X128261905Y-86502438D02*
X128357143Y-86454819D01*
X128357143Y-86454819D02*
X128595238Y-86454819D01*
X128595238Y-86454819D02*
X128690476Y-86502438D01*
X128690476Y-86502438D02*
X128738095Y-86550057D01*
X128738095Y-86550057D02*
X128785714Y-86645295D01*
X128785714Y-86645295D02*
X128785714Y-86740533D01*
X128785714Y-86740533D02*
X128738095Y-86883390D01*
X128738095Y-86883390D02*
X128166667Y-87454819D01*
X128166667Y-87454819D02*
X128785714Y-87454819D01*
X136384580Y-81884166D02*
X136432200Y-81931785D01*
X136432200Y-81931785D02*
X136479819Y-82074642D01*
X136479819Y-82074642D02*
X136479819Y-82169880D01*
X136479819Y-82169880D02*
X136432200Y-82312737D01*
X136432200Y-82312737D02*
X136336961Y-82407975D01*
X136336961Y-82407975D02*
X136241723Y-82455594D01*
X136241723Y-82455594D02*
X136051247Y-82503213D01*
X136051247Y-82503213D02*
X135908390Y-82503213D01*
X135908390Y-82503213D02*
X135717914Y-82455594D01*
X135717914Y-82455594D02*
X135622676Y-82407975D01*
X135622676Y-82407975D02*
X135527438Y-82312737D01*
X135527438Y-82312737D02*
X135479819Y-82169880D01*
X135479819Y-82169880D02*
X135479819Y-82074642D01*
X135479819Y-82074642D02*
X135527438Y-81931785D01*
X135527438Y-81931785D02*
X135575057Y-81884166D01*
X135479819Y-80979404D02*
X135479819Y-81455594D01*
X135479819Y-81455594D02*
X135956009Y-81503213D01*
X135956009Y-81503213D02*
X135908390Y-81455594D01*
X135908390Y-81455594D02*
X135860771Y-81360356D01*
X135860771Y-81360356D02*
X135860771Y-81122261D01*
X135860771Y-81122261D02*
X135908390Y-81027023D01*
X135908390Y-81027023D02*
X135956009Y-80979404D01*
X135956009Y-80979404D02*
X136051247Y-80931785D01*
X136051247Y-80931785D02*
X136289342Y-80931785D01*
X136289342Y-80931785D02*
X136384580Y-80979404D01*
X136384580Y-80979404D02*
X136432200Y-81027023D01*
X136432200Y-81027023D02*
X136479819Y-81122261D01*
X136479819Y-81122261D02*
X136479819Y-81360356D01*
X136479819Y-81360356D02*
X136432200Y-81455594D01*
X136432200Y-81455594D02*
X136384580Y-81503213D01*
X138833333Y-93454819D02*
X138500000Y-92978628D01*
X138261905Y-93454819D02*
X138261905Y-92454819D01*
X138261905Y-92454819D02*
X138642857Y-92454819D01*
X138642857Y-92454819D02*
X138738095Y-92502438D01*
X138738095Y-92502438D02*
X138785714Y-92550057D01*
X138785714Y-92550057D02*
X138833333Y-92645295D01*
X138833333Y-92645295D02*
X138833333Y-92788152D01*
X138833333Y-92788152D02*
X138785714Y-92883390D01*
X138785714Y-92883390D02*
X138738095Y-92931009D01*
X138738095Y-92931009D02*
X138642857Y-92978628D01*
X138642857Y-92978628D02*
X138261905Y-92978628D01*
X139738095Y-92454819D02*
X139261905Y-92454819D01*
X139261905Y-92454819D02*
X139214286Y-92931009D01*
X139214286Y-92931009D02*
X139261905Y-92883390D01*
X139261905Y-92883390D02*
X139357143Y-92835771D01*
X139357143Y-92835771D02*
X139595238Y-92835771D01*
X139595238Y-92835771D02*
X139690476Y-92883390D01*
X139690476Y-92883390D02*
X139738095Y-92931009D01*
X139738095Y-92931009D02*
X139785714Y-93026247D01*
X139785714Y-93026247D02*
X139785714Y-93264342D01*
X139785714Y-93264342D02*
X139738095Y-93359580D01*
X139738095Y-93359580D02*
X139690476Y-93407200D01*
X139690476Y-93407200D02*
X139595238Y-93454819D01*
X139595238Y-93454819D02*
X139357143Y-93454819D01*
X139357143Y-93454819D02*
X139261905Y-93407200D01*
X139261905Y-93407200D02*
X139214286Y-93359580D01*
X129833333Y-90359580D02*
X129785714Y-90407200D01*
X129785714Y-90407200D02*
X129642857Y-90454819D01*
X129642857Y-90454819D02*
X129547619Y-90454819D01*
X129547619Y-90454819D02*
X129404762Y-90407200D01*
X129404762Y-90407200D02*
X129309524Y-90311961D01*
X129309524Y-90311961D02*
X129261905Y-90216723D01*
X129261905Y-90216723D02*
X129214286Y-90026247D01*
X129214286Y-90026247D02*
X129214286Y-89883390D01*
X129214286Y-89883390D02*
X129261905Y-89692914D01*
X129261905Y-89692914D02*
X129309524Y-89597676D01*
X129309524Y-89597676D02*
X129404762Y-89502438D01*
X129404762Y-89502438D02*
X129547619Y-89454819D01*
X129547619Y-89454819D02*
X129642857Y-89454819D01*
X129642857Y-89454819D02*
X129785714Y-89502438D01*
X129785714Y-89502438D02*
X129833333Y-89550057D01*
X130166667Y-89454819D02*
X130785714Y-89454819D01*
X130785714Y-89454819D02*
X130452381Y-89835771D01*
X130452381Y-89835771D02*
X130595238Y-89835771D01*
X130595238Y-89835771D02*
X130690476Y-89883390D01*
X130690476Y-89883390D02*
X130738095Y-89931009D01*
X130738095Y-89931009D02*
X130785714Y-90026247D01*
X130785714Y-90026247D02*
X130785714Y-90264342D01*
X130785714Y-90264342D02*
X130738095Y-90359580D01*
X130738095Y-90359580D02*
X130690476Y-90407200D01*
X130690476Y-90407200D02*
X130595238Y-90454819D01*
X130595238Y-90454819D02*
X130309524Y-90454819D01*
X130309524Y-90454819D02*
X130214286Y-90407200D01*
X130214286Y-90407200D02*
X130166667Y-90359580D01*
X163789580Y-83391666D02*
X163837200Y-83439285D01*
X163837200Y-83439285D02*
X163884819Y-83582142D01*
X163884819Y-83582142D02*
X163884819Y-83677380D01*
X163884819Y-83677380D02*
X163837200Y-83820237D01*
X163837200Y-83820237D02*
X163741961Y-83915475D01*
X163741961Y-83915475D02*
X163646723Y-83963094D01*
X163646723Y-83963094D02*
X163456247Y-84010713D01*
X163456247Y-84010713D02*
X163313390Y-84010713D01*
X163313390Y-84010713D02*
X163122914Y-83963094D01*
X163122914Y-83963094D02*
X163027676Y-83915475D01*
X163027676Y-83915475D02*
X162932438Y-83820237D01*
X162932438Y-83820237D02*
X162884819Y-83677380D01*
X162884819Y-83677380D02*
X162884819Y-83582142D01*
X162884819Y-83582142D02*
X162932438Y-83439285D01*
X162932438Y-83439285D02*
X162980057Y-83391666D01*
X162884819Y-83058332D02*
X162884819Y-82391666D01*
X162884819Y-82391666D02*
X163884819Y-82820237D01*
X129833333Y-87359580D02*
X129785714Y-87407200D01*
X129785714Y-87407200D02*
X129642857Y-87454819D01*
X129642857Y-87454819D02*
X129547619Y-87454819D01*
X129547619Y-87454819D02*
X129404762Y-87407200D01*
X129404762Y-87407200D02*
X129309524Y-87311961D01*
X129309524Y-87311961D02*
X129261905Y-87216723D01*
X129261905Y-87216723D02*
X129214286Y-87026247D01*
X129214286Y-87026247D02*
X129214286Y-86883390D01*
X129214286Y-86883390D02*
X129261905Y-86692914D01*
X129261905Y-86692914D02*
X129309524Y-86597676D01*
X129309524Y-86597676D02*
X129404762Y-86502438D01*
X129404762Y-86502438D02*
X129547619Y-86454819D01*
X129547619Y-86454819D02*
X129642857Y-86454819D01*
X129642857Y-86454819D02*
X129785714Y-86502438D01*
X129785714Y-86502438D02*
X129833333Y-86550057D01*
X130214286Y-86550057D02*
X130261905Y-86502438D01*
X130261905Y-86502438D02*
X130357143Y-86454819D01*
X130357143Y-86454819D02*
X130595238Y-86454819D01*
X130595238Y-86454819D02*
X130690476Y-86502438D01*
X130690476Y-86502438D02*
X130738095Y-86550057D01*
X130738095Y-86550057D02*
X130785714Y-86645295D01*
X130785714Y-86645295D02*
X130785714Y-86740533D01*
X130785714Y-86740533D02*
X130738095Y-86883390D01*
X130738095Y-86883390D02*
X130166667Y-87454819D01*
X130166667Y-87454819D02*
X130785714Y-87454819D01*
X126833333Y-81359580D02*
X126785714Y-81407200D01*
X126785714Y-81407200D02*
X126642857Y-81454819D01*
X126642857Y-81454819D02*
X126547619Y-81454819D01*
X126547619Y-81454819D02*
X126404762Y-81407200D01*
X126404762Y-81407200D02*
X126309524Y-81311961D01*
X126309524Y-81311961D02*
X126261905Y-81216723D01*
X126261905Y-81216723D02*
X126214286Y-81026247D01*
X126214286Y-81026247D02*
X126214286Y-80883390D01*
X126214286Y-80883390D02*
X126261905Y-80692914D01*
X126261905Y-80692914D02*
X126309524Y-80597676D01*
X126309524Y-80597676D02*
X126404762Y-80502438D01*
X126404762Y-80502438D02*
X126547619Y-80454819D01*
X126547619Y-80454819D02*
X126642857Y-80454819D01*
X126642857Y-80454819D02*
X126785714Y-80502438D01*
X126785714Y-80502438D02*
X126833333Y-80550057D01*
X127785714Y-81454819D02*
X127214286Y-81454819D01*
X127500000Y-81454819D02*
X127500000Y-80454819D01*
X127500000Y-80454819D02*
X127404762Y-80597676D01*
X127404762Y-80597676D02*
X127309524Y-80692914D01*
X127309524Y-80692914D02*
X127214286Y-80740533D01*
X129833333Y-94454819D02*
X129500000Y-93978628D01*
X129261905Y-94454819D02*
X129261905Y-93454819D01*
X129261905Y-93454819D02*
X129642857Y-93454819D01*
X129642857Y-93454819D02*
X129738095Y-93502438D01*
X129738095Y-93502438D02*
X129785714Y-93550057D01*
X129785714Y-93550057D02*
X129833333Y-93645295D01*
X129833333Y-93645295D02*
X129833333Y-93788152D01*
X129833333Y-93788152D02*
X129785714Y-93883390D01*
X129785714Y-93883390D02*
X129738095Y-93931009D01*
X129738095Y-93931009D02*
X129642857Y-93978628D01*
X129642857Y-93978628D02*
X129261905Y-93978628D01*
X130166667Y-93454819D02*
X130785714Y-93454819D01*
X130785714Y-93454819D02*
X130452381Y-93835771D01*
X130452381Y-93835771D02*
X130595238Y-93835771D01*
X130595238Y-93835771D02*
X130690476Y-93883390D01*
X130690476Y-93883390D02*
X130738095Y-93931009D01*
X130738095Y-93931009D02*
X130785714Y-94026247D01*
X130785714Y-94026247D02*
X130785714Y-94264342D01*
X130785714Y-94264342D02*
X130738095Y-94359580D01*
X130738095Y-94359580D02*
X130690476Y-94407200D01*
X130690476Y-94407200D02*
X130595238Y-94454819D01*
X130595238Y-94454819D02*
X130309524Y-94454819D01*
X130309524Y-94454819D02*
X130214286Y-94407200D01*
X130214286Y-94407200D02*
X130166667Y-94359580D01*
X137933333Y-73454819D02*
X137600000Y-72978628D01*
X137361905Y-73454819D02*
X137361905Y-72454819D01*
X137361905Y-72454819D02*
X137742857Y-72454819D01*
X137742857Y-72454819D02*
X137838095Y-72502438D01*
X137838095Y-72502438D02*
X137885714Y-72550057D01*
X137885714Y-72550057D02*
X137933333Y-72645295D01*
X137933333Y-72645295D02*
X137933333Y-72788152D01*
X137933333Y-72788152D02*
X137885714Y-72883390D01*
X137885714Y-72883390D02*
X137838095Y-72931009D01*
X137838095Y-72931009D02*
X137742857Y-72978628D01*
X137742857Y-72978628D02*
X137361905Y-72978628D01*
X138790476Y-72454819D02*
X138600000Y-72454819D01*
X138600000Y-72454819D02*
X138504762Y-72502438D01*
X138504762Y-72502438D02*
X138457143Y-72550057D01*
X138457143Y-72550057D02*
X138361905Y-72692914D01*
X138361905Y-72692914D02*
X138314286Y-72883390D01*
X138314286Y-72883390D02*
X138314286Y-73264342D01*
X138314286Y-73264342D02*
X138361905Y-73359580D01*
X138361905Y-73359580D02*
X138409524Y-73407200D01*
X138409524Y-73407200D02*
X138504762Y-73454819D01*
X138504762Y-73454819D02*
X138695238Y-73454819D01*
X138695238Y-73454819D02*
X138790476Y-73407200D01*
X138790476Y-73407200D02*
X138838095Y-73359580D01*
X138838095Y-73359580D02*
X138885714Y-73264342D01*
X138885714Y-73264342D02*
X138885714Y-73026247D01*
X138885714Y-73026247D02*
X138838095Y-72931009D01*
X138838095Y-72931009D02*
X138790476Y-72883390D01*
X138790476Y-72883390D02*
X138695238Y-72835771D01*
X138695238Y-72835771D02*
X138504762Y-72835771D01*
X138504762Y-72835771D02*
X138409524Y-72883390D01*
X138409524Y-72883390D02*
X138361905Y-72931009D01*
X138361905Y-72931009D02*
X138314286Y-73026247D01*
X129833333Y-92454819D02*
X129500000Y-91978628D01*
X129261905Y-92454819D02*
X129261905Y-91454819D01*
X129261905Y-91454819D02*
X129642857Y-91454819D01*
X129642857Y-91454819D02*
X129738095Y-91502438D01*
X129738095Y-91502438D02*
X129785714Y-91550057D01*
X129785714Y-91550057D02*
X129833333Y-91645295D01*
X129833333Y-91645295D02*
X129833333Y-91788152D01*
X129833333Y-91788152D02*
X129785714Y-91883390D01*
X129785714Y-91883390D02*
X129738095Y-91931009D01*
X129738095Y-91931009D02*
X129642857Y-91978628D01*
X129642857Y-91978628D02*
X129261905Y-91978628D01*
X130690476Y-91788152D02*
X130690476Y-92454819D01*
X130452381Y-91407200D02*
X130214286Y-92121485D01*
X130214286Y-92121485D02*
X130833333Y-92121485D01*
X132833333Y-82454819D02*
X132500000Y-81978628D01*
X132261905Y-82454819D02*
X132261905Y-81454819D01*
X132261905Y-81454819D02*
X132642857Y-81454819D01*
X132642857Y-81454819D02*
X132738095Y-81502438D01*
X132738095Y-81502438D02*
X132785714Y-81550057D01*
X132785714Y-81550057D02*
X132833333Y-81645295D01*
X132833333Y-81645295D02*
X132833333Y-81788152D01*
X132833333Y-81788152D02*
X132785714Y-81883390D01*
X132785714Y-81883390D02*
X132738095Y-81931009D01*
X132738095Y-81931009D02*
X132642857Y-81978628D01*
X132642857Y-81978628D02*
X132261905Y-81978628D01*
X133785714Y-82454819D02*
X133214286Y-82454819D01*
X133500000Y-82454819D02*
X133500000Y-81454819D01*
X133500000Y-81454819D02*
X133404762Y-81597676D01*
X133404762Y-81597676D02*
X133309524Y-81692914D01*
X133309524Y-81692914D02*
X133214286Y-81740533D01*
X137833333Y-78677319D02*
X137500000Y-78201128D01*
X137261905Y-78677319D02*
X137261905Y-77677319D01*
X137261905Y-77677319D02*
X137642857Y-77677319D01*
X137642857Y-77677319D02*
X137738095Y-77724938D01*
X137738095Y-77724938D02*
X137785714Y-77772557D01*
X137785714Y-77772557D02*
X137833333Y-77867795D01*
X137833333Y-77867795D02*
X137833333Y-78010652D01*
X137833333Y-78010652D02*
X137785714Y-78105890D01*
X137785714Y-78105890D02*
X137738095Y-78153509D01*
X137738095Y-78153509D02*
X137642857Y-78201128D01*
X137642857Y-78201128D02*
X137261905Y-78201128D01*
X138166667Y-77677319D02*
X138833333Y-77677319D01*
X138833333Y-77677319D02*
X138404762Y-78677319D01*
X130666044Y-71453816D02*
X130666044Y-72169435D01*
X130666044Y-72169435D02*
X130618337Y-72312559D01*
X130618337Y-72312559D02*
X130522921Y-72407975D01*
X130522921Y-72407975D02*
X130379797Y-72455682D01*
X130379797Y-72455682D02*
X130284381Y-72455682D01*
X131667910Y-72455682D02*
X131095415Y-72455682D01*
X131381663Y-72455682D02*
X131381663Y-71453816D01*
X131381663Y-71453816D02*
X131286247Y-71596940D01*
X131286247Y-71596940D02*
X131190831Y-71692356D01*
X131190831Y-71692356D02*
X131095415Y-71740064D01*
X136758333Y-93659580D02*
X136710714Y-93707200D01*
X136710714Y-93707200D02*
X136567857Y-93754819D01*
X136567857Y-93754819D02*
X136472619Y-93754819D01*
X136472619Y-93754819D02*
X136329762Y-93707200D01*
X136329762Y-93707200D02*
X136234524Y-93611961D01*
X136234524Y-93611961D02*
X136186905Y-93516723D01*
X136186905Y-93516723D02*
X136139286Y-93326247D01*
X136139286Y-93326247D02*
X136139286Y-93183390D01*
X136139286Y-93183390D02*
X136186905Y-92992914D01*
X136186905Y-92992914D02*
X136234524Y-92897676D01*
X136234524Y-92897676D02*
X136329762Y-92802438D01*
X136329762Y-92802438D02*
X136472619Y-92754819D01*
X136472619Y-92754819D02*
X136567857Y-92754819D01*
X136567857Y-92754819D02*
X136710714Y-92802438D01*
X136710714Y-92802438D02*
X136758333Y-92850057D01*
X137615476Y-93088152D02*
X137615476Y-93754819D01*
X137377381Y-92707200D02*
X137139286Y-93421485D01*
X137139286Y-93421485D02*
X137758333Y-93421485D01*
X134763095Y-85454819D02*
X134763095Y-86264342D01*
X134763095Y-86264342D02*
X134810714Y-86359580D01*
X134810714Y-86359580D02*
X134858333Y-86407200D01*
X134858333Y-86407200D02*
X134953571Y-86454819D01*
X134953571Y-86454819D02*
X135144047Y-86454819D01*
X135144047Y-86454819D02*
X135239285Y-86407200D01*
X135239285Y-86407200D02*
X135286904Y-86359580D01*
X135286904Y-86359580D02*
X135334523Y-86264342D01*
X135334523Y-86264342D02*
X135334523Y-85454819D01*
X136334523Y-86454819D02*
X135763095Y-86454819D01*
X136048809Y-86454819D02*
X136048809Y-85454819D01*
X136048809Y-85454819D02*
X135953571Y-85597676D01*
X135953571Y-85597676D02*
X135858333Y-85692914D01*
X135858333Y-85692914D02*
X135763095Y-85740533D01*
%TO.C,U2*%
D12*
X142316000Y-75216000D02*
G75*
G02*
X141812000Y-75216000I-252000J0D01*
G01*
X141812000Y-75216000D02*
G75*
G02*
X142316000Y-75216000I252000J0D01*
G01*
X141042000Y-74499000D02*
G75*
G02*
X140538000Y-74499000I-252000J0D01*
G01*
X140538000Y-74499000D02*
G75*
G02*
X141042000Y-74499000I252000J0D01*
G01*
D10*
X158780000Y-93133000D02*
G75*
G02*
X156875000Y-95038000I-1905000J0D01*
G01*
X156875000Y-74083000D02*
G75*
G02*
X158780000Y-75988000I-50J-1905050D01*
G01*
D13*
X153894000Y-72573000D02*
G75*
G02*
X154394000Y-73073000I-100J-500100D01*
G01*
X145398728Y-73072728D02*
G75*
G02*
X145898728Y-72573001I500018J-291D01*
G01*
D10*
X142905000Y-95038000D02*
G75*
G02*
X141000000Y-93133000I1J1905001D01*
G01*
X141000000Y-75984000D02*
G75*
G02*
X142905000Y-74079000I1905001J-1D01*
G01*
X158780000Y-93133000D02*
X158780000Y-75988000D01*
X156875000Y-74083000D02*
X142905000Y-74083000D01*
D13*
X154394000Y-73073000D02*
X154394000Y-74083000D01*
X145898728Y-72573000D02*
X153894000Y-72573000D01*
X145395000Y-74083000D02*
X145398728Y-73072728D01*
D10*
X142905000Y-95038000D02*
X156875000Y-95038000D01*
X141000000Y-93133000D02*
X141000000Y-75988000D01*
D14*
%TO.C,TP7*%
X160550000Y-91550000D02*
X163450000Y-91550000D01*
X160550000Y-94450000D02*
X160550000Y-91550000D01*
X163450000Y-91550000D02*
X163450000Y-94450000D01*
X163450000Y-94450000D02*
X160550000Y-94450000D01*
%TO.C,TP6*%
X160550000Y-87550000D02*
X163450000Y-87550000D01*
X160550000Y-90450000D02*
X160550000Y-87550000D01*
X163450000Y-87550000D02*
X163450000Y-90450000D01*
X163450000Y-90450000D02*
X160550000Y-90450000D01*
%TO.C,C6*%
X138084420Y-79282500D02*
X138365580Y-79282500D01*
X138084420Y-80302500D02*
X138365580Y-80302500D01*
%TO.C,R2*%
X128265000Y-84107064D02*
X128265000Y-83652936D01*
X129735000Y-84107064D02*
X129735000Y-83652936D01*
%TO.C,C5*%
X138084420Y-81282500D02*
X138365580Y-81282500D01*
X138084420Y-82302500D02*
X138365580Y-82302500D01*
%TO.C,R5*%
X138477500Y-90587742D02*
X138477500Y-91062258D01*
X139522500Y-90587742D02*
X139522500Y-91062258D01*
%TO.C,C3*%
X133140580Y-89187500D02*
X132859420Y-89187500D01*
X133140580Y-90207500D02*
X132859420Y-90207500D01*
%TO.C,C7*%
X161490000Y-83084420D02*
X161490000Y-83365580D01*
X162510000Y-83084420D02*
X162510000Y-83365580D01*
%TO.C,C2*%
X130490000Y-84158080D02*
X130490000Y-83876920D01*
X131510000Y-84158080D02*
X131510000Y-83876920D01*
%TO.C,C1*%
X130140580Y-80282500D02*
X129859420Y-80282500D01*
X130140580Y-81302500D02*
X129859420Y-81302500D01*
%TO.C,R3*%
X132762742Y-93175000D02*
X133237258Y-93175000D01*
X132762742Y-94220000D02*
X133237258Y-94220000D01*
%TO.C,R6*%
X137762742Y-74270000D02*
X138237258Y-74270000D01*
X137762742Y-75315000D02*
X138237258Y-75315000D01*
%TO.C,R4*%
X133237258Y-91175000D02*
X132762742Y-91175000D01*
X133237258Y-92220000D02*
X132762742Y-92220000D01*
%TO.C,R1*%
X133412258Y-80270000D02*
X132937742Y-80270000D01*
X133412258Y-81315000D02*
X132937742Y-81315000D01*
%TO.C,R7*%
X138237258Y-76270000D02*
X137762742Y-76270000D01*
X138237258Y-77315000D02*
X137762742Y-77315000D01*
D13*
%TO.C,J1*%
X127450000Y-73342500D02*
X127450000Y-73892500D01*
X127450000Y-79242500D02*
X127450000Y-78742500D01*
X134850000Y-73342500D02*
X127450000Y-73342500D01*
X134850000Y-73892500D02*
X134850000Y-73342500D01*
X134850000Y-78692500D02*
X134850000Y-79242500D01*
X134850000Y-79242500D02*
X127450000Y-79242500D01*
D15*
X136260000Y-77822500D02*
G75*
G02*
X135980000Y-77822500I-140000J0D01*
G01*
X135980000Y-77822500D02*
G75*
G02*
X136260000Y-77822500I140000J0D01*
G01*
D14*
%TO.C,C4*%
X136490000Y-90965580D02*
X136490000Y-90684420D01*
X137510000Y-90965580D02*
X137510000Y-90684420D01*
%TO.C,U1*%
X133465000Y-83137500D02*
X137585000Y-83137500D01*
X133465000Y-83232500D02*
X133465000Y-83137500D01*
X133465000Y-88257500D02*
X133465000Y-88162500D01*
X137585000Y-83137500D02*
X137585000Y-83232500D01*
X137585000Y-88162500D02*
X137585000Y-88257500D01*
X137585000Y-88257500D02*
X133465000Y-88257500D01*
X132925000Y-83227500D02*
X132685000Y-82897500D01*
X133165000Y-82897500D01*
X132925000Y-83227500D01*
G36*
X132925000Y-83227500D02*
G01*
X132685000Y-82897500D01*
X133165000Y-82897500D01*
X132925000Y-83227500D01*
G37*
%TD*%
M02*
