%TF.GenerationSoftware,KiCad,Pcbnew,9.0.6*%
%TF.CreationDate,2026-01-24T19:44:13+08:00*%
%TF.ProjectId,TENG_module,54454e47-5f6d-46f6-9475-6c652e6b6963,rev?*%
%TF.SameCoordinates,Original*%
%TF.FileFunction,Copper,L2,Bot*%
%TF.FilePolarity,Positive*%
%FSLAX46Y46*%
G04 Gerber Fmt 4.6, Leading zero omitted, Abs format (unit mm)*
G04 Created by KiCad (PCBNEW 9.0.6) date 2026-01-24 19:44:13*
%MOMM*%
%LPD*%
G01*
G04 APERTURE LIST*
%TA.AperFunction,ViaPad*%
%ADD10C,0.600000*%
%TD*%
%TA.AperFunction,Conductor*%
%ADD11C,0.500000*%
%TD*%
%TA.AperFunction,Conductor*%
%ADD12C,0.200000*%
%TD*%
G04 APERTURE END LIST*
D10*
%TO.N,GND*%
X155000000Y-77000000D03*
X159000000Y-95000000D03*
X133000000Y-82000000D03*
X136000000Y-73000000D03*
X139000000Y-78000000D03*
X135000000Y-90000000D03*
X128000000Y-91000000D03*
X152000000Y-94000000D03*
X143000000Y-94000000D03*
X145000000Y-80500000D03*
X150500000Y-91000000D03*
X149850000Y-73575000D03*
X145500000Y-91000000D03*
%TO.N,3V3*%
X139960000Y-79000679D03*
X150000000Y-82000000D03*
X135000000Y-94000000D03*
%TO.N,Net-(R6-Pad1)*%
X137000000Y-78792500D03*
X140000000Y-83792500D03*
%TO.N,Net-(U2-BAT)*%
X155000000Y-85000000D03*
X160000000Y-85000000D03*
%TD*%
D11*
%TO.N,3V3*%
X150000000Y-82000000D02*
X147000000Y-82000000D01*
X147000000Y-82000000D02*
X142959321Y-82000000D01*
X147000000Y-82000000D02*
X135000000Y-94000000D01*
X142959321Y-82000000D02*
X139960000Y-79000679D01*
D12*
%TO.N,Net-(R6-Pad1)*%
X140000000Y-83792500D02*
X140000000Y-81792500D01*
X140000000Y-81792500D02*
X137000000Y-78792500D01*
D11*
%TO.N,Net-(U2-BAT)*%
X155000000Y-85000000D02*
X160000000Y-85000000D01*
%TD*%
%TA.AperFunction,Conductor*%
%TO.N,GND*%
G36*
X163015677Y-72019685D02*
G01*
X163036319Y-72036319D01*
X164000000Y-73000000D01*
X164000000Y-95000000D01*
X163036319Y-95963681D01*
X162974996Y-95997166D01*
X162948638Y-96000000D01*
X151124000Y-96000000D01*
X151056961Y-95980315D01*
X151011206Y-95927511D01*
X151000000Y-95876000D01*
X151000000Y-93999999D01*
X150000001Y-92000001D01*
X150000000Y-92000000D01*
X145000000Y-92000000D01*
X144999999Y-92000000D01*
X144999998Y-92000001D01*
X144000000Y-93999999D01*
X144000000Y-95876000D01*
X143980315Y-95943039D01*
X143927511Y-95988794D01*
X143876000Y-96000000D01*
X128051362Y-96000000D01*
X127984323Y-95980315D01*
X127963681Y-95963681D01*
X127036319Y-95036319D01*
X127002834Y-94974996D01*
X127000000Y-94948638D01*
X127000000Y-93934108D01*
X134499500Y-93934108D01*
X134499500Y-94065891D01*
X134533608Y-94193187D01*
X134566554Y-94250250D01*
X134599500Y-94307314D01*
X134692686Y-94400500D01*
X134806814Y-94466392D01*
X134934108Y-94500500D01*
X134934110Y-94500500D01*
X135065890Y-94500500D01*
X135065892Y-94500500D01*
X135193186Y-94466392D01*
X135307314Y-94400500D01*
X135400500Y-94307314D01*
X135466392Y-94193186D01*
X135466393Y-94193180D01*
X135469504Y-94185674D01*
X135470842Y-94186228D01*
X135498111Y-94138990D01*
X144702995Y-84934108D01*
X154499500Y-84934108D01*
X154499500Y-85065891D01*
X154533608Y-85193187D01*
X154566554Y-85250250D01*
X154599500Y-85307314D01*
X154692686Y-85400500D01*
X154791521Y-85457563D01*
X154801425Y-85463281D01*
X154806814Y-85466392D01*
X154934108Y-85500500D01*
X154934110Y-85500500D01*
X155065890Y-85500500D01*
X155065892Y-85500500D01*
X155193186Y-85466392D01*
X155193194Y-85466387D01*
X155200696Y-85463281D01*
X155201249Y-85464618D01*
X155253937Y-85450500D01*
X159746063Y-85450500D01*
X159798750Y-85464618D01*
X159799304Y-85463281D01*
X159806807Y-85466388D01*
X159806814Y-85466392D01*
X159934108Y-85500500D01*
X159934110Y-85500500D01*
X160065890Y-85500500D01*
X160065892Y-85500500D01*
X160193186Y-85466392D01*
X160307314Y-85400500D01*
X160400500Y-85307314D01*
X160466392Y-85193186D01*
X160500500Y-85065892D01*
X160500500Y-84934108D01*
X160466392Y-84806814D01*
X160400500Y-84692686D01*
X160307314Y-84599500D01*
X160220712Y-84549500D01*
X160193187Y-84533608D01*
X160129539Y-84516554D01*
X160065892Y-84499500D01*
X159934108Y-84499500D01*
X159806814Y-84533608D01*
X159799304Y-84536719D01*
X159798750Y-84535381D01*
X159746063Y-84549500D01*
X155253937Y-84549500D01*
X155201249Y-84535381D01*
X155200696Y-84536719D01*
X155193188Y-84533609D01*
X155193186Y-84533608D01*
X155065892Y-84499500D01*
X154934108Y-84499500D01*
X154806812Y-84533608D01*
X154692686Y-84599500D01*
X154692683Y-84599502D01*
X154599502Y-84692683D01*
X154599500Y-84692686D01*
X154533608Y-84806812D01*
X154499500Y-84934108D01*
X144702995Y-84934108D01*
X147150285Y-82486819D01*
X147211608Y-82453334D01*
X147237966Y-82450500D01*
X149746063Y-82450500D01*
X149798750Y-82464618D01*
X149799304Y-82463281D01*
X149806807Y-82466388D01*
X149806814Y-82466392D01*
X149934108Y-82500500D01*
X149934110Y-82500500D01*
X150065890Y-82500500D01*
X150065892Y-82500500D01*
X150193186Y-82466392D01*
X150307314Y-82400500D01*
X150400500Y-82307314D01*
X150466392Y-82193186D01*
X150500500Y-82065892D01*
X150500500Y-81934108D01*
X150466392Y-81806814D01*
X150400500Y-81692686D01*
X150307314Y-81599500D01*
X150220712Y-81549500D01*
X150193187Y-81533608D01*
X150129539Y-81516554D01*
X150065892Y-81499500D01*
X149934108Y-81499500D01*
X149806814Y-81533608D01*
X149799304Y-81536719D01*
X149798750Y-81535381D01*
X149746063Y-81549500D01*
X143197286Y-81549500D01*
X143130247Y-81529815D01*
X143109605Y-81513181D01*
X140458113Y-78861689D01*
X140430841Y-78814450D01*
X140429504Y-78815005D01*
X140426392Y-78807494D01*
X140426392Y-78807493D01*
X140360500Y-78693365D01*
X140267314Y-78600179D01*
X140210250Y-78567233D01*
X140153187Y-78534287D01*
X140089539Y-78517233D01*
X140025892Y-78500179D01*
X139894108Y-78500179D01*
X139766812Y-78534287D01*
X139652686Y-78600179D01*
X139652683Y-78600181D01*
X139559502Y-78693362D01*
X139559500Y-78693365D01*
X139493608Y-78807491D01*
X139459500Y-78934787D01*
X139459500Y-79066570D01*
X139493608Y-79193866D01*
X139526554Y-79250929D01*
X139559500Y-79307993D01*
X139652686Y-79401179D01*
X139766814Y-79467071D01*
X139766816Y-79467071D01*
X139774326Y-79470183D01*
X139773771Y-79471520D01*
X139821010Y-79498792D01*
X142682707Y-82360489D01*
X142682708Y-82360490D01*
X142682710Y-82360491D01*
X142742014Y-82394729D01*
X142742017Y-82394732D01*
X142776258Y-82414500D01*
X142785435Y-82419799D01*
X142900012Y-82450500D01*
X145613034Y-82450500D01*
X145680073Y-82470185D01*
X145725828Y-82522989D01*
X145735772Y-82592147D01*
X145706747Y-82655703D01*
X145700715Y-82662181D01*
X134861009Y-93501886D01*
X134813775Y-93529161D01*
X134814328Y-93530495D01*
X134806816Y-93533606D01*
X134692689Y-93599498D01*
X134692683Y-93599502D01*
X134599502Y-93692683D01*
X134599500Y-93692686D01*
X134533608Y-93806812D01*
X134499500Y-93934108D01*
X127000000Y-93934108D01*
X127000000Y-78726608D01*
X136499500Y-78726608D01*
X136499500Y-78858392D01*
X136511814Y-78904348D01*
X136533608Y-78985687D01*
X136566554Y-79042750D01*
X136599500Y-79099814D01*
X136692686Y-79193000D01*
X136806814Y-79258892D01*
X136934108Y-79293000D01*
X136934110Y-79293000D01*
X137024167Y-79293000D01*
X137091206Y-79312685D01*
X137111848Y-79329319D01*
X139663181Y-81880652D01*
X139696666Y-81941975D01*
X139699500Y-81968333D01*
X139699500Y-83333823D01*
X139679815Y-83400862D01*
X139663182Y-83421504D01*
X139599500Y-83485186D01*
X139533608Y-83599312D01*
X139499500Y-83726608D01*
X139499500Y-83858391D01*
X139533608Y-83985687D01*
X139566554Y-84042750D01*
X139599500Y-84099814D01*
X139692686Y-84193000D01*
X139806814Y-84258892D01*
X139934108Y-84293000D01*
X139934110Y-84293000D01*
X140065890Y-84293000D01*
X140065892Y-84293000D01*
X140193186Y-84258892D01*
X140307314Y-84193000D01*
X140400500Y-84099814D01*
X140466392Y-83985686D01*
X140500500Y-83858392D01*
X140500500Y-83726608D01*
X140466392Y-83599314D01*
X140400500Y-83485186D01*
X140336818Y-83421504D01*
X140303334Y-83360180D01*
X140300500Y-83333823D01*
X140300500Y-81752940D01*
X140300499Y-81752936D01*
X140292582Y-81723387D01*
X140280022Y-81676512D01*
X140240460Y-81607989D01*
X137536819Y-78904348D01*
X137503334Y-78843025D01*
X137500500Y-78816667D01*
X137500500Y-78726610D01*
X137500500Y-78726608D01*
X137466392Y-78599314D01*
X137400500Y-78485186D01*
X137307314Y-78392000D01*
X137250250Y-78359054D01*
X137193187Y-78326108D01*
X137129539Y-78309054D01*
X137065892Y-78292000D01*
X136934108Y-78292000D01*
X136806812Y-78326108D01*
X136692686Y-78392000D01*
X136692683Y-78392002D01*
X136599502Y-78485183D01*
X136599500Y-78485186D01*
X136533608Y-78599312D01*
X136499500Y-78726608D01*
X127000000Y-78726608D01*
X127000000Y-73051362D01*
X127019685Y-72984323D01*
X127036319Y-72963681D01*
X127963681Y-72036319D01*
X128025004Y-72002834D01*
X128051362Y-72000000D01*
X162948638Y-72000000D01*
X163015677Y-72019685D01*
G37*
%TD.AperFunction*%
%TD*%
%TA.AperFunction,Conductor*%
%TO.N,GND*%
G36*
X187015677Y-72019685D02*
G01*
X187036319Y-72036319D01*
X187963681Y-72963681D01*
X187997166Y-73025004D01*
X188000000Y-73051362D01*
X188000000Y-94948638D01*
X187980315Y-95015677D01*
X187963681Y-95036319D01*
X187036319Y-95963681D01*
X186974996Y-95997166D01*
X186948638Y-96000000D01*
X165051362Y-96000000D01*
X164984323Y-95980315D01*
X164963681Y-95963681D01*
X164313708Y-95313708D01*
X165826646Y-95313708D01*
X165888938Y-95376000D01*
X166474290Y-95376000D01*
X166536581Y-95313708D01*
X167240860Y-95313708D01*
X167303152Y-95376000D01*
X167888504Y-95376000D01*
X167950796Y-95313708D01*
X168655074Y-95313708D01*
X168717366Y-95376000D01*
X169302718Y-95376000D01*
X169365010Y-95313708D01*
X170069287Y-95313708D01*
X170131579Y-95376000D01*
X170716931Y-95376000D01*
X170779223Y-95313708D01*
X171483501Y-95313708D01*
X171545793Y-95376000D01*
X172131145Y-95376000D01*
X172193437Y-95313708D01*
X172897714Y-95313708D01*
X172960006Y-95376000D01*
X173545358Y-95376000D01*
X173607650Y-95313708D01*
X174311928Y-95313708D01*
X174374220Y-95376000D01*
X174959572Y-95376000D01*
X175021864Y-95313708D01*
X175726141Y-95313708D01*
X175788433Y-95376000D01*
X176373785Y-95376000D01*
X176436077Y-95313708D01*
X177140355Y-95313708D01*
X177202647Y-95376000D01*
X177787999Y-95376000D01*
X177850291Y-95313708D01*
X177850290Y-95313707D01*
X178554568Y-95313707D01*
X178616861Y-95376000D01*
X179202213Y-95376000D01*
X179264505Y-95313708D01*
X179968782Y-95313708D01*
X180031074Y-95376000D01*
X180616426Y-95376000D01*
X180678718Y-95313708D01*
X181382996Y-95313708D01*
X181445288Y-95376000D01*
X182030640Y-95376000D01*
X182092932Y-95313708D01*
X182797209Y-95313708D01*
X182859501Y-95376000D01*
X183444853Y-95376000D01*
X183507145Y-95313708D01*
X184211423Y-95313708D01*
X184273715Y-95376000D01*
X184859067Y-95376000D01*
X184921359Y-95313708D01*
X185625636Y-95313708D01*
X185687928Y-95376000D01*
X186273280Y-95376000D01*
X186335572Y-95313708D01*
X185980604Y-94958740D01*
X185625636Y-95313708D01*
X184921359Y-95313708D01*
X184566391Y-94958740D01*
X184211423Y-95313708D01*
X183507145Y-95313708D01*
X183152177Y-94958740D01*
X182797209Y-95313708D01*
X182092932Y-95313708D01*
X181737964Y-94958740D01*
X181382996Y-95313708D01*
X180678718Y-95313708D01*
X180323750Y-94958740D01*
X179968782Y-95313708D01*
X179264505Y-95313708D01*
X178909536Y-94958739D01*
X178554568Y-95313707D01*
X177850290Y-95313707D01*
X177495323Y-94958740D01*
X177140355Y-95313708D01*
X176436077Y-95313708D01*
X176081109Y-94958740D01*
X175726141Y-95313708D01*
X175021864Y-95313708D01*
X174666896Y-94958740D01*
X174311928Y-95313708D01*
X173607650Y-95313708D01*
X173252682Y-94958740D01*
X172897714Y-95313708D01*
X172193437Y-95313708D01*
X171838469Y-94958740D01*
X171483501Y-95313708D01*
X170779223Y-95313708D01*
X170424255Y-94958740D01*
X170069287Y-95313708D01*
X169365010Y-95313708D01*
X169010042Y-94958740D01*
X168655074Y-95313708D01*
X167950796Y-95313708D01*
X167595828Y-94958740D01*
X167240860Y-95313708D01*
X166536581Y-95313708D01*
X166536582Y-95313707D01*
X166181614Y-94958739D01*
X165826646Y-95313708D01*
X164313708Y-95313708D01*
X164000000Y-95000000D01*
X164000000Y-94606601D01*
X165119539Y-94606601D01*
X165474508Y-94961570D01*
X165829476Y-94606601D01*
X166533752Y-94606601D01*
X166888721Y-94961570D01*
X167243689Y-94606601D01*
X167947966Y-94606601D01*
X168302935Y-94961570D01*
X168657903Y-94606601D01*
X169362179Y-94606601D01*
X169717148Y-94961570D01*
X170072116Y-94606601D01*
X170776393Y-94606601D01*
X171131362Y-94961570D01*
X171486330Y-94606601D01*
X172190607Y-94606601D01*
X172545575Y-94961570D01*
X172900544Y-94606601D01*
X173604820Y-94606601D01*
X173959789Y-94961570D01*
X174314757Y-94606601D01*
X175019034Y-94606601D01*
X175374003Y-94961570D01*
X175728971Y-94606601D01*
X176433247Y-94606601D01*
X176788216Y-94961570D01*
X177143184Y-94606601D01*
X177847461Y-94606601D01*
X178202430Y-94961570D01*
X178557398Y-94606601D01*
X179261674Y-94606601D01*
X179616643Y-94961570D01*
X179971611Y-94606601D01*
X180675888Y-94606601D01*
X181030857Y-94961570D01*
X181385825Y-94606601D01*
X182090101Y-94606601D01*
X182445070Y-94961570D01*
X182800038Y-94606601D01*
X183504315Y-94606601D01*
X183859284Y-94961570D01*
X184214252Y-94606601D01*
X184918529Y-94606601D01*
X185273497Y-94961570D01*
X185628466Y-94606601D01*
X186332742Y-94606601D01*
X186687711Y-94961570D01*
X187042679Y-94606601D01*
X186687711Y-94251633D01*
X186332742Y-94606601D01*
X185628466Y-94606601D01*
X185273497Y-94251633D01*
X184918529Y-94606601D01*
X184214252Y-94606601D01*
X183859284Y-94251633D01*
X183504315Y-94606601D01*
X182800038Y-94606601D01*
X182445070Y-94251633D01*
X182090101Y-94606601D01*
X181385825Y-94606601D01*
X181030857Y-94251633D01*
X180675888Y-94606601D01*
X179971611Y-94606601D01*
X179616643Y-94251633D01*
X179261674Y-94606601D01*
X178557398Y-94606601D01*
X178202430Y-94251633D01*
X177847461Y-94606601D01*
X177143184Y-94606601D01*
X176788216Y-94251633D01*
X176433247Y-94606601D01*
X175728971Y-94606601D01*
X175374003Y-94251633D01*
X175019034Y-94606601D01*
X174314757Y-94606601D01*
X173959789Y-94251633D01*
X173604820Y-94606601D01*
X172900544Y-94606601D01*
X172545575Y-94251633D01*
X172190607Y-94606601D01*
X171486330Y-94606601D01*
X171131362Y-94251633D01*
X170776393Y-94606601D01*
X170072116Y-94606601D01*
X169717148Y-94251633D01*
X169362179Y-94606601D01*
X168657903Y-94606601D01*
X168302935Y-94251633D01*
X167947966Y-94606601D01*
X167243689Y-94606601D01*
X166888721Y-94251633D01*
X166533752Y-94606601D01*
X165829476Y-94606601D01*
X165474508Y-94251633D01*
X165119539Y-94606601D01*
X164000000Y-94606601D01*
X164000000Y-93687928D01*
X164624000Y-93687928D01*
X164624000Y-94111062D01*
X164767401Y-94254463D01*
X165122369Y-93899495D01*
X165826646Y-93899495D01*
X166181614Y-94254463D01*
X166536582Y-93899495D01*
X167240860Y-93899495D01*
X167595828Y-94254463D01*
X167950796Y-93899495D01*
X168655074Y-93899495D01*
X169010042Y-94254463D01*
X169365010Y-93899495D01*
X170069287Y-93899495D01*
X170424255Y-94254463D01*
X170779223Y-93899495D01*
X171483501Y-93899495D01*
X171838469Y-94254463D01*
X172193437Y-93899495D01*
X172897714Y-93899495D01*
X173252682Y-94254463D01*
X173607650Y-93899495D01*
X174311928Y-93899495D01*
X174666896Y-94254463D01*
X175021864Y-93899495D01*
X175726141Y-93899495D01*
X176081109Y-94254463D01*
X176436077Y-93899495D01*
X177140355Y-93899495D01*
X177495323Y-94254463D01*
X177850291Y-93899495D01*
X178554568Y-93899495D01*
X178909536Y-94254463D01*
X179264505Y-93899495D01*
X179968782Y-93899495D01*
X180323750Y-94254463D01*
X180678718Y-93899495D01*
X181382996Y-93899495D01*
X181737964Y-94254463D01*
X182092932Y-93899495D01*
X182797209Y-93899495D01*
X183152177Y-94254463D01*
X183507145Y-93899495D01*
X184211423Y-93899495D01*
X184566391Y-94254463D01*
X184921359Y-93899495D01*
X185625636Y-93899495D01*
X185980604Y-94254463D01*
X186335572Y-93899495D01*
X187039850Y-93899495D01*
X187376000Y-94235645D01*
X187376000Y-93563345D01*
X187039850Y-93899495D01*
X186335572Y-93899495D01*
X185980604Y-93544527D01*
X185625636Y-93899495D01*
X184921359Y-93899495D01*
X184566391Y-93544527D01*
X184211423Y-93899495D01*
X183507145Y-93899495D01*
X183152177Y-93544527D01*
X182797209Y-93899495D01*
X182092932Y-93899495D01*
X181737964Y-93544527D01*
X181382996Y-93899495D01*
X180678718Y-93899495D01*
X180323750Y-93544527D01*
X179968782Y-93899495D01*
X179264505Y-93899495D01*
X178909536Y-93544526D01*
X178554568Y-93899495D01*
X177850291Y-93899495D01*
X177495323Y-93544527D01*
X177140355Y-93899495D01*
X176436077Y-93899495D01*
X176081109Y-93544527D01*
X175726141Y-93899495D01*
X175021864Y-93899495D01*
X174666896Y-93544527D01*
X174311928Y-93899495D01*
X173607650Y-93899495D01*
X173252682Y-93544527D01*
X172897714Y-93899495D01*
X172193437Y-93899495D01*
X171838469Y-93544527D01*
X171483501Y-93899495D01*
X170779223Y-93899495D01*
X170424255Y-93544527D01*
X170069287Y-93899495D01*
X169365010Y-93899495D01*
X169010042Y-93544527D01*
X168655074Y-93899495D01*
X167950796Y-93899495D01*
X167595828Y-93544527D01*
X167240860Y-93899495D01*
X166536582Y-93899495D01*
X166181614Y-93544526D01*
X165826646Y-93899495D01*
X165122369Y-93899495D01*
X164767401Y-93544527D01*
X164624000Y-93687928D01*
X164000000Y-93687928D01*
X164000000Y-93192388D01*
X165119540Y-93192388D01*
X165474508Y-93547356D01*
X165829476Y-93192388D01*
X166533753Y-93192388D01*
X166888721Y-93547356D01*
X167243689Y-93192388D01*
X167947967Y-93192388D01*
X168302935Y-93547356D01*
X168657903Y-93192388D01*
X169362180Y-93192388D01*
X169717148Y-93547356D01*
X170072116Y-93192388D01*
X170776394Y-93192388D01*
X171131362Y-93547356D01*
X171486330Y-93192388D01*
X172190607Y-93192388D01*
X172545575Y-93547356D01*
X172900544Y-93192388D01*
X173604821Y-93192388D01*
X173959789Y-93547356D01*
X174314757Y-93192388D01*
X175019035Y-93192388D01*
X175374003Y-93547356D01*
X175728971Y-93192388D01*
X176433248Y-93192388D01*
X176788216Y-93547356D01*
X177143184Y-93192388D01*
X177847462Y-93192388D01*
X178202430Y-93547356D01*
X178557398Y-93192388D01*
X179261675Y-93192388D01*
X179616643Y-93547356D01*
X179971611Y-93192388D01*
X180675889Y-93192388D01*
X181030857Y-93547356D01*
X181385825Y-93192388D01*
X182090102Y-93192388D01*
X182445070Y-93547356D01*
X182800038Y-93192388D01*
X183504316Y-93192388D01*
X183859284Y-93547356D01*
X184214252Y-93192388D01*
X184918529Y-93192388D01*
X185273497Y-93547356D01*
X185628466Y-93192388D01*
X186332743Y-93192388D01*
X186687711Y-93547356D01*
X187042679Y-93192388D01*
X186687711Y-92837420D01*
X186332743Y-93192388D01*
X185628466Y-93192388D01*
X185273497Y-92837419D01*
X184918529Y-93192388D01*
X184214252Y-93192388D01*
X183859284Y-92837420D01*
X183504316Y-93192388D01*
X182800038Y-93192388D01*
X182445070Y-92837419D01*
X182090102Y-93192388D01*
X181385825Y-93192388D01*
X181030857Y-92837420D01*
X180675889Y-93192388D01*
X179971611Y-93192388D01*
X179616643Y-92837420D01*
X179261675Y-93192388D01*
X178557398Y-93192388D01*
X178202430Y-92837420D01*
X177847462Y-93192388D01*
X177143184Y-93192388D01*
X176788216Y-92837420D01*
X176433248Y-93192388D01*
X175728971Y-93192388D01*
X175374003Y-92837420D01*
X175019035Y-93192388D01*
X174314757Y-93192388D01*
X173959789Y-92837420D01*
X173604821Y-93192388D01*
X172900544Y-93192388D01*
X172545575Y-92837419D01*
X172190607Y-93192388D01*
X171486330Y-93192388D01*
X171131362Y-92837420D01*
X170776394Y-93192388D01*
X170072116Y-93192388D01*
X169717148Y-92837420D01*
X169362180Y-93192388D01*
X168657903Y-93192388D01*
X168302935Y-92837420D01*
X167947967Y-93192388D01*
X167243689Y-93192388D01*
X166888721Y-92837420D01*
X166533753Y-93192388D01*
X165829476Y-93192388D01*
X165474508Y-92837420D01*
X165119540Y-93192388D01*
X164000000Y-93192388D01*
X164000000Y-92273714D01*
X164624000Y-92273714D01*
X164624000Y-92696848D01*
X164767401Y-92840249D01*
X165122369Y-92485281D01*
X165826646Y-92485281D01*
X166181614Y-92840249D01*
X166536582Y-92485281D01*
X167240860Y-92485281D01*
X167595828Y-92840249D01*
X167950796Y-92485281D01*
X168655074Y-92485281D01*
X169010042Y-92840249D01*
X169365010Y-92485281D01*
X170069287Y-92485281D01*
X170424255Y-92840249D01*
X170779223Y-92485281D01*
X171483501Y-92485281D01*
X171838469Y-92840249D01*
X172193437Y-92485281D01*
X172897714Y-92485281D01*
X173252682Y-92840249D01*
X173607650Y-92485281D01*
X174311928Y-92485281D01*
X174666896Y-92840249D01*
X175021864Y-92485281D01*
X175726141Y-92485281D01*
X176081109Y-92840249D01*
X176436077Y-92485281D01*
X177140355Y-92485281D01*
X177495323Y-92840249D01*
X177850291Y-92485281D01*
X178554568Y-92485281D01*
X178909536Y-92840249D01*
X179264505Y-92485281D01*
X179968782Y-92485281D01*
X180323750Y-92840249D01*
X180678718Y-92485281D01*
X181382996Y-92485281D01*
X181737964Y-92840249D01*
X182092932Y-92485281D01*
X182797209Y-92485281D01*
X183152177Y-92840249D01*
X183507145Y-92485281D01*
X184211423Y-92485281D01*
X184566391Y-92840249D01*
X184921359Y-92485281D01*
X185625636Y-92485281D01*
X185980604Y-92840249D01*
X186335572Y-92485281D01*
X187039850Y-92485281D01*
X187376000Y-92821431D01*
X187376000Y-92149131D01*
X187039850Y-92485281D01*
X186335572Y-92485281D01*
X185980604Y-92130313D01*
X185625636Y-92485281D01*
X184921359Y-92485281D01*
X184566391Y-92130313D01*
X184211423Y-92485281D01*
X183507145Y-92485281D01*
X183152177Y-92130313D01*
X182797209Y-92485281D01*
X182092932Y-92485281D01*
X181737964Y-92130313D01*
X181382996Y-92485281D01*
X180678718Y-92485281D01*
X180323750Y-92130313D01*
X179968782Y-92485281D01*
X179264505Y-92485281D01*
X178909536Y-92130312D01*
X178554568Y-92485281D01*
X177850291Y-92485281D01*
X177495323Y-92130313D01*
X177140355Y-92485281D01*
X176436077Y-92485281D01*
X176081109Y-92130313D01*
X175726141Y-92485281D01*
X175021864Y-92485281D01*
X174666896Y-92130313D01*
X174311928Y-92485281D01*
X173607650Y-92485281D01*
X173252682Y-92130313D01*
X172897714Y-92485281D01*
X172193437Y-92485281D01*
X171838469Y-92130313D01*
X171483501Y-92485281D01*
X170779223Y-92485281D01*
X170424255Y-92130313D01*
X170069287Y-92485281D01*
X169365010Y-92485281D01*
X169010042Y-92130313D01*
X168655074Y-92485281D01*
X167950796Y-92485281D01*
X167595828Y-92130313D01*
X167240860Y-92485281D01*
X166536582Y-92485281D01*
X166181614Y-92130312D01*
X165826646Y-92485281D01*
X165122369Y-92485281D01*
X164767401Y-92130313D01*
X164624000Y-92273714D01*
X164000000Y-92273714D01*
X164000000Y-91778174D01*
X165119539Y-91778174D01*
X165474508Y-92133142D01*
X165829476Y-91778174D01*
X166533752Y-91778174D01*
X166888721Y-92133142D01*
X167243689Y-91778174D01*
X167947966Y-91778174D01*
X168302935Y-92133142D01*
X168657903Y-91778174D01*
X169362179Y-91778174D01*
X169717148Y-92133142D01*
X170072116Y-91778174D01*
X170776393Y-91778174D01*
X171131362Y-92133142D01*
X171486330Y-91778174D01*
X172190607Y-91778174D01*
X172545575Y-92133142D01*
X172900544Y-91778174D01*
X173604820Y-91778174D01*
X173959789Y-92133142D01*
X174314757Y-91778174D01*
X175019034Y-91778174D01*
X175374003Y-92133142D01*
X175728971Y-91778174D01*
X176433247Y-91778174D01*
X176788216Y-92133142D01*
X177143184Y-91778174D01*
X177847461Y-91778174D01*
X178202430Y-92133142D01*
X178557398Y-91778174D01*
X179261674Y-91778174D01*
X179616643Y-92133142D01*
X179971611Y-91778174D01*
X180675888Y-91778174D01*
X181030857Y-92133142D01*
X181385825Y-91778174D01*
X182090101Y-91778174D01*
X182445070Y-92133142D01*
X182800038Y-91778174D01*
X183504315Y-91778174D01*
X183859284Y-92133142D01*
X184214252Y-91778174D01*
X184918529Y-91778174D01*
X185273497Y-92133142D01*
X185628466Y-91778174D01*
X186332742Y-91778174D01*
X186687711Y-92133142D01*
X187042679Y-91778174D01*
X186687711Y-91423206D01*
X186332742Y-91778174D01*
X185628466Y-91778174D01*
X185273497Y-91423205D01*
X184918529Y-91778174D01*
X184214252Y-91778174D01*
X183859284Y-91423206D01*
X183504315Y-91778174D01*
X182800038Y-91778174D01*
X182445070Y-91423205D01*
X182090101Y-91778174D01*
X181385825Y-91778174D01*
X181030857Y-91423206D01*
X180675888Y-91778174D01*
X179971611Y-91778174D01*
X179616643Y-91423206D01*
X179261674Y-91778174D01*
X178557398Y-91778174D01*
X178202430Y-91423206D01*
X177847461Y-91778174D01*
X177143184Y-91778174D01*
X176788216Y-91423206D01*
X176433247Y-91778174D01*
X175728971Y-91778174D01*
X175374003Y-91423206D01*
X175019034Y-91778174D01*
X174314757Y-91778174D01*
X173959789Y-91423206D01*
X173604820Y-91778174D01*
X172900544Y-91778174D01*
X172545575Y-91423205D01*
X172190607Y-91778174D01*
X171486330Y-91778174D01*
X171131362Y-91423206D01*
X170776393Y-91778174D01*
X170072116Y-91778174D01*
X169717148Y-91423206D01*
X169362179Y-91778174D01*
X168657903Y-91778174D01*
X168302935Y-91423206D01*
X167947966Y-91778174D01*
X167243689Y-91778174D01*
X166888721Y-91423206D01*
X166533752Y-91778174D01*
X165829476Y-91778174D01*
X165474508Y-91423206D01*
X165119539Y-91778174D01*
X164000000Y-91778174D01*
X164000000Y-90859501D01*
X164624000Y-90859501D01*
X164624000Y-91282635D01*
X164767401Y-91426036D01*
X165122369Y-91071068D01*
X165826646Y-91071068D01*
X166181614Y-91426036D01*
X166536582Y-91071068D01*
X167240860Y-91071068D01*
X167595828Y-91426036D01*
X167950796Y-91071068D01*
X168655074Y-91071068D01*
X169010042Y-91426036D01*
X169365010Y-91071068D01*
X170069287Y-91071068D01*
X170424255Y-91426036D01*
X170779223Y-91071068D01*
X171483501Y-91071068D01*
X171838469Y-91426036D01*
X172193437Y-91071068D01*
X172897714Y-91071068D01*
X173252682Y-91426036D01*
X173607650Y-91071068D01*
X174311928Y-91071068D01*
X174666896Y-91426036D01*
X175021864Y-91071068D01*
X175726141Y-91071068D01*
X176081109Y-91426036D01*
X176436077Y-91071068D01*
X177140355Y-91071068D01*
X177495323Y-91426036D01*
X177850291Y-91071068D01*
X178554568Y-91071068D01*
X178909536Y-91426036D01*
X179264505Y-91071068D01*
X179968782Y-91071068D01*
X180323750Y-91426036D01*
X180678718Y-91071068D01*
X181382996Y-91071068D01*
X181737964Y-91426036D01*
X182092932Y-91071068D01*
X182797209Y-91071068D01*
X183152177Y-91426036D01*
X183507145Y-91071068D01*
X184211423Y-91071068D01*
X184566391Y-91426036D01*
X184921359Y-91071068D01*
X185625636Y-91071068D01*
X185980604Y-91426036D01*
X186335572Y-91071068D01*
X187039850Y-91071068D01*
X187376000Y-91407218D01*
X187376000Y-90734918D01*
X187039850Y-91071068D01*
X186335572Y-91071068D01*
X185980604Y-90716100D01*
X185625636Y-91071068D01*
X184921359Y-91071068D01*
X184566391Y-90716100D01*
X184211423Y-91071068D01*
X183507145Y-91071068D01*
X183152177Y-90716100D01*
X182797209Y-91071068D01*
X182092932Y-91071068D01*
X181737964Y-90716100D01*
X181382996Y-91071068D01*
X180678718Y-91071068D01*
X180323750Y-90716100D01*
X179968782Y-91071068D01*
X179264505Y-91071068D01*
X178909536Y-90716099D01*
X178554568Y-91071068D01*
X177850291Y-91071068D01*
X177495323Y-90716100D01*
X177140355Y-91071068D01*
X176436077Y-91071068D01*
X176081109Y-90716100D01*
X175726141Y-91071068D01*
X175021864Y-91071068D01*
X174666896Y-90716100D01*
X174311928Y-91071068D01*
X173607650Y-91071068D01*
X173252682Y-90716100D01*
X172897714Y-91071068D01*
X172193437Y-91071068D01*
X171838469Y-90716100D01*
X171483501Y-91071068D01*
X170779223Y-91071068D01*
X170424255Y-90716100D01*
X170069287Y-91071068D01*
X169365010Y-91071068D01*
X169010042Y-90716100D01*
X168655074Y-91071068D01*
X167950796Y-91071068D01*
X167595828Y-90716100D01*
X167240860Y-91071068D01*
X166536582Y-91071068D01*
X166181614Y-90716099D01*
X165826646Y-91071068D01*
X165122369Y-91071068D01*
X164767401Y-90716100D01*
X164624000Y-90859501D01*
X164000000Y-90859501D01*
X164000000Y-90363961D01*
X165119540Y-90363961D01*
X165474508Y-90718929D01*
X165829476Y-90363961D01*
X166533753Y-90363961D01*
X166888721Y-90718929D01*
X167243689Y-90363961D01*
X167947967Y-90363961D01*
X168302935Y-90718929D01*
X168657903Y-90363961D01*
X169362180Y-90363961D01*
X169717148Y-90718929D01*
X170072116Y-90363961D01*
X170776394Y-90363961D01*
X171131362Y-90718929D01*
X171486330Y-90363961D01*
X172190607Y-90363961D01*
X172545575Y-90718929D01*
X172900544Y-90363961D01*
X173604821Y-90363961D01*
X173959789Y-90718929D01*
X174314757Y-90363961D01*
X175019035Y-90363961D01*
X175374003Y-90718929D01*
X175728971Y-90363961D01*
X176433248Y-90363961D01*
X176788216Y-90718929D01*
X177143184Y-90363961D01*
X177847462Y-90363961D01*
X178202430Y-90718929D01*
X178557398Y-90363961D01*
X179261675Y-90363961D01*
X179616643Y-90718929D01*
X179971611Y-90363961D01*
X180675889Y-90363961D01*
X181030857Y-90718929D01*
X181385825Y-90363961D01*
X182090102Y-90363961D01*
X182445070Y-90718929D01*
X182800038Y-90363961D01*
X183504316Y-90363961D01*
X183859284Y-90718929D01*
X184214252Y-90363961D01*
X184918529Y-90363961D01*
X185273497Y-90718929D01*
X185628466Y-90363961D01*
X186332743Y-90363961D01*
X186687711Y-90718929D01*
X187042679Y-90363961D01*
X186687711Y-90008993D01*
X186332743Y-90363961D01*
X185628466Y-90363961D01*
X185273497Y-90008992D01*
X184918529Y-90363961D01*
X184214252Y-90363961D01*
X183859284Y-90008993D01*
X183504316Y-90363961D01*
X182800038Y-90363961D01*
X182445070Y-90008992D01*
X182090102Y-90363961D01*
X181385825Y-90363961D01*
X181030857Y-90008993D01*
X180675889Y-90363961D01*
X179971611Y-90363961D01*
X179616643Y-90008993D01*
X179261675Y-90363961D01*
X178557398Y-90363961D01*
X178202430Y-90008993D01*
X177847462Y-90363961D01*
X177143184Y-90363961D01*
X176788216Y-90008993D01*
X176433248Y-90363961D01*
X175728971Y-90363961D01*
X175374003Y-90008993D01*
X175019035Y-90363961D01*
X174314757Y-90363961D01*
X173959789Y-90008993D01*
X173604821Y-90363961D01*
X172900544Y-90363961D01*
X172545575Y-90008992D01*
X172190607Y-90363961D01*
X171486330Y-90363961D01*
X171131362Y-90008993D01*
X170776394Y-90363961D01*
X170072116Y-90363961D01*
X169717148Y-90008993D01*
X169362180Y-90363961D01*
X168657903Y-90363961D01*
X168302935Y-90008993D01*
X167947967Y-90363961D01*
X167243689Y-90363961D01*
X166888721Y-90008993D01*
X166533753Y-90363961D01*
X165829476Y-90363961D01*
X165474508Y-90008993D01*
X165119540Y-90363961D01*
X164000000Y-90363961D01*
X164000000Y-89445287D01*
X164624000Y-89445287D01*
X164624000Y-89868421D01*
X164767401Y-90011822D01*
X165122369Y-89656854D01*
X165826646Y-89656854D01*
X166181614Y-90011822D01*
X166536582Y-89656854D01*
X167240860Y-89656854D01*
X167595828Y-90011822D01*
X167950796Y-89656854D01*
X168655074Y-89656854D01*
X169010042Y-90011822D01*
X169365010Y-89656854D01*
X170069287Y-89656854D01*
X170424255Y-90011822D01*
X170779223Y-89656854D01*
X171483501Y-89656854D01*
X171838469Y-90011822D01*
X172193437Y-89656854D01*
X172897714Y-89656854D01*
X173252682Y-90011822D01*
X173607650Y-89656854D01*
X174311928Y-89656854D01*
X174666896Y-90011822D01*
X175021864Y-89656854D01*
X175726141Y-89656854D01*
X176081109Y-90011822D01*
X176436077Y-89656854D01*
X177140355Y-89656854D01*
X177495323Y-90011822D01*
X177850291Y-89656854D01*
X178554568Y-89656854D01*
X178909536Y-90011822D01*
X179264505Y-89656854D01*
X179968782Y-89656854D01*
X180323750Y-90011822D01*
X180678718Y-89656854D01*
X181382996Y-89656854D01*
X181737964Y-90011822D01*
X182092932Y-89656854D01*
X182797209Y-89656854D01*
X183152177Y-90011822D01*
X183507145Y-89656854D01*
X184211423Y-89656854D01*
X184566391Y-90011822D01*
X184921359Y-89656854D01*
X185625636Y-89656854D01*
X185980604Y-90011822D01*
X186335572Y-89656854D01*
X187039850Y-89656854D01*
X187376000Y-89993004D01*
X187376000Y-89320704D01*
X187039850Y-89656854D01*
X186335572Y-89656854D01*
X185980604Y-89301886D01*
X185625636Y-89656854D01*
X184921359Y-89656854D01*
X184566391Y-89301886D01*
X184211423Y-89656854D01*
X183507145Y-89656854D01*
X183152177Y-89301886D01*
X182797209Y-89656854D01*
X182092932Y-89656854D01*
X181737964Y-89301886D01*
X181382996Y-89656854D01*
X180678718Y-89656854D01*
X180323750Y-89301886D01*
X179968782Y-89656854D01*
X179264505Y-89656854D01*
X178909536Y-89301885D01*
X178554568Y-89656854D01*
X177850291Y-89656854D01*
X177495323Y-89301886D01*
X177140355Y-89656854D01*
X176436077Y-89656854D01*
X176081109Y-89301886D01*
X175726141Y-89656854D01*
X175021864Y-89656854D01*
X174666896Y-89301886D01*
X174311928Y-89656854D01*
X173607650Y-89656854D01*
X173252682Y-89301886D01*
X172897714Y-89656854D01*
X172193437Y-89656854D01*
X171838469Y-89301886D01*
X171483501Y-89656854D01*
X170779223Y-89656854D01*
X170424255Y-89301886D01*
X170069287Y-89656854D01*
X169365010Y-89656854D01*
X169010042Y-89301886D01*
X168655074Y-89656854D01*
X167950796Y-89656854D01*
X167595828Y-89301886D01*
X167240860Y-89656854D01*
X166536582Y-89656854D01*
X166181614Y-89301885D01*
X165826646Y-89656854D01*
X165122369Y-89656854D01*
X164767401Y-89301886D01*
X164624000Y-89445287D01*
X164000000Y-89445287D01*
X164000000Y-88949747D01*
X165119540Y-88949747D01*
X165474508Y-89304715D01*
X165829476Y-88949747D01*
X166533753Y-88949747D01*
X166888721Y-89304715D01*
X167243689Y-88949747D01*
X167947967Y-88949747D01*
X168302935Y-89304715D01*
X168657903Y-88949747D01*
X169362180Y-88949747D01*
X169717148Y-89304715D01*
X170072116Y-88949747D01*
X170776394Y-88949747D01*
X171131362Y-89304715D01*
X171486330Y-88949747D01*
X172190607Y-88949747D01*
X172545575Y-89304715D01*
X172900544Y-88949747D01*
X173604821Y-88949747D01*
X173959789Y-89304715D01*
X174314757Y-88949747D01*
X175019035Y-88949747D01*
X175374003Y-89304715D01*
X175728971Y-88949747D01*
X176433248Y-88949747D01*
X176788216Y-89304715D01*
X177143184Y-88949747D01*
X177847462Y-88949747D01*
X178202430Y-89304715D01*
X178557398Y-88949747D01*
X179261675Y-88949747D01*
X179616643Y-89304715D01*
X179971611Y-88949747D01*
X180675889Y-88949747D01*
X181030857Y-89304715D01*
X181385825Y-88949747D01*
X182090102Y-88949747D01*
X182445070Y-89304715D01*
X182800038Y-88949747D01*
X183504316Y-88949747D01*
X183859284Y-89304715D01*
X184214252Y-88949747D01*
X184918529Y-88949747D01*
X185273497Y-89304715D01*
X185628466Y-88949747D01*
X186332743Y-88949747D01*
X186687711Y-89304715D01*
X187042679Y-88949747D01*
X186687711Y-88594779D01*
X186332743Y-88949747D01*
X185628466Y-88949747D01*
X185273497Y-88594778D01*
X184918529Y-88949747D01*
X184214252Y-88949747D01*
X183859284Y-88594779D01*
X183504316Y-88949747D01*
X182800038Y-88949747D01*
X182445070Y-88594778D01*
X182090102Y-88949747D01*
X181385825Y-88949747D01*
X181030857Y-88594779D01*
X180675889Y-88949747D01*
X179971611Y-88949747D01*
X179616643Y-88594779D01*
X179261675Y-88949747D01*
X178557398Y-88949747D01*
X178202430Y-88594779D01*
X177847462Y-88949747D01*
X177143184Y-88949747D01*
X176788216Y-88594779D01*
X176433248Y-88949747D01*
X175728971Y-88949747D01*
X175374003Y-88594779D01*
X175019035Y-88949747D01*
X174314757Y-88949747D01*
X173959789Y-88594779D01*
X173604821Y-88949747D01*
X172900544Y-88949747D01*
X172545575Y-88594778D01*
X172190607Y-88949747D01*
X171486330Y-88949747D01*
X171131362Y-88594779D01*
X170776394Y-88949747D01*
X170072116Y-88949747D01*
X169717148Y-88594779D01*
X169362180Y-88949747D01*
X168657903Y-88949747D01*
X168302935Y-88594779D01*
X167947967Y-88949747D01*
X167243689Y-88949747D01*
X166888721Y-88594779D01*
X166533753Y-88949747D01*
X165829476Y-88949747D01*
X165474508Y-88594779D01*
X165119540Y-88949747D01*
X164000000Y-88949747D01*
X164000000Y-88031073D01*
X164624000Y-88031073D01*
X164624000Y-88454208D01*
X164767401Y-88597609D01*
X165122369Y-88242640D01*
X165826645Y-88242640D01*
X166181614Y-88597609D01*
X166536582Y-88242640D01*
X167240859Y-88242640D01*
X167595828Y-88597609D01*
X167950796Y-88242640D01*
X168655073Y-88242640D01*
X169010042Y-88597609D01*
X169365010Y-88242640D01*
X170069286Y-88242640D01*
X170424255Y-88597609D01*
X170779223Y-88242640D01*
X171483500Y-88242640D01*
X171838469Y-88597609D01*
X172193437Y-88242640D01*
X172897713Y-88242640D01*
X173252682Y-88597609D01*
X173607650Y-88242640D01*
X174311927Y-88242640D01*
X174666896Y-88597609D01*
X175021864Y-88242640D01*
X175726140Y-88242640D01*
X176081109Y-88597609D01*
X176436077Y-88242640D01*
X177140354Y-88242640D01*
X177495323Y-88597609D01*
X177850291Y-88242640D01*
X178554568Y-88242640D01*
X178909536Y-88597609D01*
X179264505Y-88242640D01*
X179968781Y-88242640D01*
X180323750Y-88597609D01*
X180678718Y-88242640D01*
X181382995Y-88242640D01*
X181737964Y-88597609D01*
X182092932Y-88242640D01*
X182797208Y-88242640D01*
X183152177Y-88597609D01*
X183507145Y-88242640D01*
X184211422Y-88242640D01*
X184566391Y-88597609D01*
X184921359Y-88242640D01*
X185625635Y-88242640D01*
X185980604Y-88597609D01*
X186335572Y-88242640D01*
X187039849Y-88242640D01*
X187376000Y-88578791D01*
X187376000Y-87906490D01*
X187039849Y-88242640D01*
X186335572Y-88242640D01*
X185980604Y-87887672D01*
X185625635Y-88242640D01*
X184921359Y-88242640D01*
X184566391Y-87887672D01*
X184211422Y-88242640D01*
X183507145Y-88242640D01*
X183152177Y-87887672D01*
X182797208Y-88242640D01*
X182092932Y-88242640D01*
X181737964Y-87887672D01*
X181382995Y-88242640D01*
X180678718Y-88242640D01*
X180323750Y-87887672D01*
X179968781Y-88242640D01*
X179264505Y-88242640D01*
X178909536Y-87887672D01*
X178554568Y-88242640D01*
X177850291Y-88242640D01*
X177495323Y-87887672D01*
X177140354Y-88242640D01*
X176436077Y-88242640D01*
X176081109Y-87887672D01*
X175726140Y-88242640D01*
X175021864Y-88242640D01*
X174666896Y-87887672D01*
X174311927Y-88242640D01*
X173607650Y-88242640D01*
X173252682Y-87887672D01*
X172897713Y-88242640D01*
X172193437Y-88242640D01*
X171838469Y-87887672D01*
X171483500Y-88242640D01*
X170779223Y-88242640D01*
X170424255Y-87887672D01*
X170069286Y-88242640D01*
X169365010Y-88242640D01*
X169010042Y-87887672D01*
X168655073Y-88242640D01*
X167950796Y-88242640D01*
X167595828Y-87887672D01*
X167240859Y-88242640D01*
X166536582Y-88242640D01*
X166181614Y-87887672D01*
X165826645Y-88242640D01*
X165122369Y-88242640D01*
X164767400Y-87887672D01*
X164624000Y-88031073D01*
X164000000Y-88031073D01*
X164000000Y-87535534D01*
X165119540Y-87535534D01*
X165474508Y-87890502D01*
X165829476Y-87535534D01*
X166533753Y-87535534D01*
X166888721Y-87890502D01*
X167243689Y-87535534D01*
X167947967Y-87535534D01*
X168302935Y-87890502D01*
X168657903Y-87535534D01*
X169362180Y-87535534D01*
X169717148Y-87890502D01*
X170072116Y-87535534D01*
X170776394Y-87535534D01*
X171131362Y-87890502D01*
X171486330Y-87535534D01*
X172190607Y-87535534D01*
X172545575Y-87890502D01*
X172900544Y-87535534D01*
X173604821Y-87535534D01*
X173959789Y-87890502D01*
X174314757Y-87535534D01*
X175019035Y-87535534D01*
X175374003Y-87890502D01*
X175728971Y-87535534D01*
X176433248Y-87535534D01*
X176788216Y-87890502D01*
X177143184Y-87535534D01*
X177847462Y-87535534D01*
X178202430Y-87890502D01*
X178557398Y-87535534D01*
X179261675Y-87535534D01*
X179616643Y-87890502D01*
X179971611Y-87535534D01*
X180675889Y-87535534D01*
X181030857Y-87890502D01*
X181385825Y-87535534D01*
X182090102Y-87535534D01*
X182445070Y-87890502D01*
X182800038Y-87535534D01*
X183504316Y-87535534D01*
X183859284Y-87890502D01*
X184214252Y-87535534D01*
X184918529Y-87535534D01*
X185273497Y-87890502D01*
X185628466Y-87535534D01*
X186332743Y-87535534D01*
X186687711Y-87890502D01*
X187042679Y-87535534D01*
X186687711Y-87180566D01*
X186332743Y-87535534D01*
X185628466Y-87535534D01*
X185273497Y-87180565D01*
X184918529Y-87535534D01*
X184214252Y-87535534D01*
X183859284Y-87180566D01*
X183504316Y-87535534D01*
X182800038Y-87535534D01*
X182445070Y-87180565D01*
X182090102Y-87535534D01*
X181385825Y-87535534D01*
X181030857Y-87180566D01*
X180675889Y-87535534D01*
X179971611Y-87535534D01*
X179616643Y-87180566D01*
X179261675Y-87535534D01*
X178557398Y-87535534D01*
X178202430Y-87180566D01*
X177847462Y-87535534D01*
X177143184Y-87535534D01*
X176788216Y-87180566D01*
X176433248Y-87535534D01*
X175728971Y-87535534D01*
X175374003Y-87180566D01*
X175019035Y-87535534D01*
X174314757Y-87535534D01*
X173959789Y-87180566D01*
X173604821Y-87535534D01*
X172900544Y-87535534D01*
X172545575Y-87180565D01*
X172190607Y-87535534D01*
X171486330Y-87535534D01*
X171131362Y-87180566D01*
X170776394Y-87535534D01*
X170072116Y-87535534D01*
X169717148Y-87180566D01*
X169362180Y-87535534D01*
X168657903Y-87535534D01*
X168302935Y-87180566D01*
X167947967Y-87535534D01*
X167243689Y-87535534D01*
X166888721Y-87180566D01*
X166533753Y-87535534D01*
X165829476Y-87535534D01*
X165474508Y-87180566D01*
X165119540Y-87535534D01*
X164000000Y-87535534D01*
X164000000Y-86616860D01*
X164624000Y-86616860D01*
X164624000Y-87039994D01*
X164767401Y-87183395D01*
X165122369Y-86828427D01*
X165826646Y-86828427D01*
X166181614Y-87183395D01*
X166536582Y-86828427D01*
X167240860Y-86828427D01*
X167595828Y-87183395D01*
X167950796Y-86828427D01*
X168655074Y-86828427D01*
X169010042Y-87183395D01*
X169365010Y-86828427D01*
X170069287Y-86828427D01*
X170424255Y-87183395D01*
X170779223Y-86828427D01*
X171483501Y-86828427D01*
X171838469Y-87183395D01*
X172193437Y-86828427D01*
X172897714Y-86828427D01*
X173252682Y-87183395D01*
X173607650Y-86828427D01*
X174311928Y-86828427D01*
X174666896Y-87183395D01*
X175021864Y-86828427D01*
X175726141Y-86828427D01*
X176081109Y-87183395D01*
X176436077Y-86828427D01*
X177140355Y-86828427D01*
X177495323Y-87183395D01*
X177850291Y-86828427D01*
X178554568Y-86828427D01*
X178909536Y-87183395D01*
X179264505Y-86828427D01*
X179968782Y-86828427D01*
X180323750Y-87183395D01*
X180678718Y-86828427D01*
X181382996Y-86828427D01*
X181737964Y-87183395D01*
X182092932Y-86828427D01*
X182797209Y-86828427D01*
X183152177Y-87183395D01*
X183507145Y-86828427D01*
X184211423Y-86828427D01*
X184566391Y-87183395D01*
X184921359Y-86828427D01*
X185625636Y-86828427D01*
X185980604Y-87183395D01*
X186335572Y-86828427D01*
X187039850Y-86828427D01*
X187376000Y-87164577D01*
X187376000Y-86492277D01*
X187039850Y-86828427D01*
X186335572Y-86828427D01*
X185980604Y-86473459D01*
X185625636Y-86828427D01*
X184921359Y-86828427D01*
X184566391Y-86473459D01*
X184211423Y-86828427D01*
X183507145Y-86828427D01*
X183152177Y-86473459D01*
X182797209Y-86828427D01*
X182092932Y-86828427D01*
X181737964Y-86473459D01*
X181382996Y-86828427D01*
X180678718Y-86828427D01*
X180323750Y-86473459D01*
X179968782Y-86828427D01*
X179264505Y-86828427D01*
X178909536Y-86473458D01*
X178554568Y-86828427D01*
X177850291Y-86828427D01*
X177495323Y-86473459D01*
X177140355Y-86828427D01*
X176436077Y-86828427D01*
X176081109Y-86473459D01*
X175726141Y-86828427D01*
X175021864Y-86828427D01*
X174666896Y-86473459D01*
X174311928Y-86828427D01*
X173607650Y-86828427D01*
X173252682Y-86473459D01*
X172897714Y-86828427D01*
X172193437Y-86828427D01*
X171838469Y-86473459D01*
X171483501Y-86828427D01*
X170779223Y-86828427D01*
X170424255Y-86473459D01*
X170069287Y-86828427D01*
X169365010Y-86828427D01*
X169010042Y-86473459D01*
X168655074Y-86828427D01*
X167950796Y-86828427D01*
X167595828Y-86473459D01*
X167240860Y-86828427D01*
X166536582Y-86828427D01*
X166181614Y-86473458D01*
X165826646Y-86828427D01*
X165122369Y-86828427D01*
X164767401Y-86473459D01*
X164624000Y-86616860D01*
X164000000Y-86616860D01*
X164000000Y-86121320D01*
X165119540Y-86121320D01*
X165474508Y-86476288D01*
X165829476Y-86121320D01*
X166533753Y-86121320D01*
X166888721Y-86476288D01*
X167243689Y-86121320D01*
X167947967Y-86121320D01*
X168302935Y-86476288D01*
X168657903Y-86121320D01*
X169362180Y-86121320D01*
X169717148Y-86476288D01*
X170072116Y-86121320D01*
X170776394Y-86121320D01*
X171131362Y-86476288D01*
X171486330Y-86121320D01*
X172190607Y-86121320D01*
X172545575Y-86476288D01*
X172900544Y-86121320D01*
X173604821Y-86121320D01*
X173959789Y-86476288D01*
X174314757Y-86121320D01*
X175019035Y-86121320D01*
X175374003Y-86476288D01*
X175728971Y-86121320D01*
X176433248Y-86121320D01*
X176788216Y-86476288D01*
X177143184Y-86121320D01*
X177847462Y-86121320D01*
X178202430Y-86476288D01*
X178557398Y-86121320D01*
X179261675Y-86121320D01*
X179616643Y-86476288D01*
X179971611Y-86121320D01*
X180675889Y-86121320D01*
X181030857Y-86476288D01*
X181385825Y-86121320D01*
X182090102Y-86121320D01*
X182445070Y-86476288D01*
X182800038Y-86121320D01*
X183504316Y-86121320D01*
X183859284Y-86476288D01*
X184214252Y-86121320D01*
X184918529Y-86121320D01*
X185273497Y-86476288D01*
X185628466Y-86121320D01*
X186332743Y-86121320D01*
X186687711Y-86476288D01*
X187042679Y-86121320D01*
X186687711Y-85766352D01*
X186332743Y-86121320D01*
X185628466Y-86121320D01*
X185273497Y-85766351D01*
X184918529Y-86121320D01*
X184214252Y-86121320D01*
X183859284Y-85766352D01*
X183504316Y-86121320D01*
X182800038Y-86121320D01*
X182445070Y-85766351D01*
X182090102Y-86121320D01*
X181385825Y-86121320D01*
X181030857Y-85766352D01*
X180675889Y-86121320D01*
X179971611Y-86121320D01*
X179616643Y-85766352D01*
X179261675Y-86121320D01*
X178557398Y-86121320D01*
X178202430Y-85766352D01*
X177847462Y-86121320D01*
X177143184Y-86121320D01*
X176788216Y-85766352D01*
X176433248Y-86121320D01*
X175728971Y-86121320D01*
X175374003Y-85766352D01*
X175019035Y-86121320D01*
X174314757Y-86121320D01*
X173959789Y-85766352D01*
X173604821Y-86121320D01*
X172900544Y-86121320D01*
X172545575Y-85766351D01*
X172190607Y-86121320D01*
X171486330Y-86121320D01*
X171131362Y-85766352D01*
X170776394Y-86121320D01*
X170072116Y-86121320D01*
X169717148Y-85766352D01*
X169362180Y-86121320D01*
X168657903Y-86121320D01*
X168302935Y-85766352D01*
X167947967Y-86121320D01*
X167243689Y-86121320D01*
X166888721Y-85766352D01*
X166533753Y-86121320D01*
X165829476Y-86121320D01*
X165474508Y-85766352D01*
X165119540Y-86121320D01*
X164000000Y-86121320D01*
X164000000Y-85202646D01*
X164624000Y-85202646D01*
X164624000Y-85625780D01*
X164767401Y-85769181D01*
X165122369Y-85414213D01*
X165826646Y-85414213D01*
X166181614Y-85769181D01*
X166536582Y-85414213D01*
X167240860Y-85414213D01*
X167595828Y-85769181D01*
X167950796Y-85414213D01*
X168655074Y-85414213D01*
X169010042Y-85769181D01*
X169365010Y-85414213D01*
X170069287Y-85414213D01*
X170424255Y-85769181D01*
X170779223Y-85414213D01*
X171483501Y-85414213D01*
X171838469Y-85769181D01*
X172193437Y-85414213D01*
X172897714Y-85414213D01*
X173252682Y-85769181D01*
X173607650Y-85414213D01*
X174311928Y-85414213D01*
X174666896Y-85769181D01*
X175021864Y-85414213D01*
X175726141Y-85414213D01*
X176081109Y-85769181D01*
X176436077Y-85414213D01*
X177140355Y-85414213D01*
X177495323Y-85769181D01*
X177850291Y-85414213D01*
X178554568Y-85414213D01*
X178909536Y-85769181D01*
X179264505Y-85414213D01*
X179968782Y-85414213D01*
X180323750Y-85769181D01*
X180678718Y-85414213D01*
X181382996Y-85414213D01*
X181737964Y-85769181D01*
X182092932Y-85414213D01*
X182797209Y-85414213D01*
X183152177Y-85769181D01*
X183507145Y-85414213D01*
X184211423Y-85414213D01*
X184566391Y-85769181D01*
X184921359Y-85414213D01*
X185625636Y-85414213D01*
X185980604Y-85769181D01*
X186335572Y-85414213D01*
X187039850Y-85414213D01*
X187376000Y-85750363D01*
X187376000Y-85078063D01*
X187039850Y-85414213D01*
X186335572Y-85414213D01*
X185980604Y-85059245D01*
X185625636Y-85414213D01*
X184921359Y-85414213D01*
X184566391Y-85059245D01*
X184211423Y-85414213D01*
X183507145Y-85414213D01*
X183152177Y-85059245D01*
X182797209Y-85414213D01*
X182092932Y-85414213D01*
X181737964Y-85059245D01*
X181382996Y-85414213D01*
X180678718Y-85414213D01*
X180323750Y-85059245D01*
X179968782Y-85414213D01*
X179264505Y-85414213D01*
X178909536Y-85059244D01*
X178554568Y-85414213D01*
X177850291Y-85414213D01*
X177495323Y-85059245D01*
X177140355Y-85414213D01*
X176436077Y-85414213D01*
X176081109Y-85059245D01*
X175726141Y-85414213D01*
X175021864Y-85414213D01*
X174666896Y-85059245D01*
X174311928Y-85414213D01*
X173607650Y-85414213D01*
X173252682Y-85059245D01*
X172897714Y-85414213D01*
X172193437Y-85414213D01*
X171838469Y-85059245D01*
X171483501Y-85414213D01*
X170779223Y-85414213D01*
X170424255Y-85059245D01*
X170069287Y-85414213D01*
X169365010Y-85414213D01*
X169010042Y-85059245D01*
X168655074Y-85414213D01*
X167950796Y-85414213D01*
X167595828Y-85059245D01*
X167240860Y-85414213D01*
X166536582Y-85414213D01*
X166181614Y-85059244D01*
X165826646Y-85414213D01*
X165122369Y-85414213D01*
X164767401Y-85059245D01*
X164624000Y-85202646D01*
X164000000Y-85202646D01*
X164000000Y-84707107D01*
X165119540Y-84707107D01*
X165474508Y-85062075D01*
X165829476Y-84707107D01*
X166533753Y-84707107D01*
X166888721Y-85062075D01*
X167243689Y-84707107D01*
X167947967Y-84707107D01*
X168302935Y-85062075D01*
X168657903Y-84707107D01*
X169362180Y-84707107D01*
X169717148Y-85062075D01*
X170072116Y-84707107D01*
X170776394Y-84707107D01*
X171131362Y-85062075D01*
X171486330Y-84707107D01*
X172190607Y-84707107D01*
X172545575Y-85062075D01*
X172900544Y-84707107D01*
X173604821Y-84707107D01*
X173959789Y-85062075D01*
X174314757Y-84707107D01*
X175019035Y-84707107D01*
X175374003Y-85062075D01*
X175728971Y-84707107D01*
X176433248Y-84707107D01*
X176788216Y-85062075D01*
X177143184Y-84707107D01*
X177847462Y-84707107D01*
X178202430Y-85062075D01*
X178557398Y-84707107D01*
X179261675Y-84707107D01*
X179616643Y-85062075D01*
X179971611Y-84707107D01*
X180675889Y-84707107D01*
X181030857Y-85062075D01*
X181385825Y-84707107D01*
X182090102Y-84707107D01*
X182445070Y-85062075D01*
X182800038Y-84707107D01*
X183504316Y-84707107D01*
X183859284Y-85062075D01*
X184214252Y-84707107D01*
X184918529Y-84707107D01*
X185273497Y-85062075D01*
X185628466Y-84707107D01*
X186332743Y-84707107D01*
X186687711Y-85062075D01*
X187042679Y-84707107D01*
X186687711Y-84352139D01*
X186332743Y-84707107D01*
X185628466Y-84707107D01*
X185273497Y-84352138D01*
X184918529Y-84707107D01*
X184214252Y-84707107D01*
X183859284Y-84352139D01*
X183504316Y-84707107D01*
X182800038Y-84707107D01*
X182445070Y-84352138D01*
X182090102Y-84707107D01*
X181385825Y-84707107D01*
X181030857Y-84352139D01*
X180675889Y-84707107D01*
X179971611Y-84707107D01*
X179616643Y-84352139D01*
X179261675Y-84707107D01*
X178557398Y-84707107D01*
X178202430Y-84352139D01*
X177847462Y-84707107D01*
X177143184Y-84707107D01*
X176788216Y-84352139D01*
X176433248Y-84707107D01*
X175728971Y-84707107D01*
X175374003Y-84352139D01*
X175019035Y-84707107D01*
X174314757Y-84707107D01*
X173959789Y-84352139D01*
X173604821Y-84707107D01*
X172900544Y-84707107D01*
X172545575Y-84352138D01*
X172190607Y-84707107D01*
X171486330Y-84707107D01*
X171131362Y-84352139D01*
X170776394Y-84707107D01*
X170072116Y-84707107D01*
X169717148Y-84352139D01*
X169362180Y-84707107D01*
X168657903Y-84707107D01*
X168302935Y-84352139D01*
X167947967Y-84707107D01*
X167243689Y-84707107D01*
X166888721Y-84352139D01*
X166533753Y-84707107D01*
X165829476Y-84707107D01*
X165474508Y-84352139D01*
X165119540Y-84707107D01*
X164000000Y-84707107D01*
X164000000Y-83788433D01*
X164624000Y-83788433D01*
X164624000Y-84211567D01*
X164767401Y-84354968D01*
X165122369Y-84000000D01*
X165826646Y-84000000D01*
X166181614Y-84354968D01*
X166536582Y-84000000D01*
X167240860Y-84000000D01*
X167595828Y-84354968D01*
X167950796Y-84000000D01*
X168655074Y-84000000D01*
X169010042Y-84354968D01*
X169365010Y-84000000D01*
X170069287Y-84000000D01*
X170424255Y-84354968D01*
X170779223Y-84000000D01*
X171483501Y-84000000D01*
X171838469Y-84354968D01*
X172193437Y-84000000D01*
X172897714Y-84000000D01*
X173252682Y-84354968D01*
X173607650Y-84000000D01*
X174311928Y-84000000D01*
X174666896Y-84354968D01*
X175021864Y-84000000D01*
X175726141Y-84000000D01*
X176081109Y-84354968D01*
X176436077Y-84000000D01*
X177140355Y-84000000D01*
X177495323Y-84354968D01*
X177850291Y-84000000D01*
X178554568Y-84000000D01*
X178909536Y-84354968D01*
X179264505Y-84000000D01*
X179968782Y-84000000D01*
X180323750Y-84354968D01*
X180678718Y-84000000D01*
X181382996Y-84000000D01*
X181737964Y-84354968D01*
X182092932Y-84000000D01*
X182797209Y-84000000D01*
X183152177Y-84354968D01*
X183507145Y-84000000D01*
X184211423Y-84000000D01*
X184566391Y-84354968D01*
X184921359Y-84000000D01*
X185625636Y-84000000D01*
X185980604Y-84354968D01*
X186335572Y-84000000D01*
X187039850Y-84000000D01*
X187376000Y-84336150D01*
X187376000Y-83663850D01*
X187039850Y-84000000D01*
X186335572Y-84000000D01*
X185980604Y-83645032D01*
X185625636Y-84000000D01*
X184921359Y-84000000D01*
X184566391Y-83645032D01*
X184211423Y-84000000D01*
X183507145Y-84000000D01*
X183152177Y-83645032D01*
X182797209Y-84000000D01*
X182092932Y-84000000D01*
X181737964Y-83645032D01*
X181382996Y-84000000D01*
X180678718Y-84000000D01*
X180323750Y-83645032D01*
X179968782Y-84000000D01*
X179264505Y-84000000D01*
X178909536Y-83645031D01*
X178554568Y-84000000D01*
X177850291Y-84000000D01*
X177495323Y-83645032D01*
X177140355Y-84000000D01*
X176436077Y-84000000D01*
X176081109Y-83645032D01*
X175726141Y-84000000D01*
X175021864Y-84000000D01*
X174666896Y-83645032D01*
X174311928Y-84000000D01*
X173607650Y-84000000D01*
X173252682Y-83645032D01*
X172897714Y-84000000D01*
X172193437Y-84000000D01*
X171838469Y-83645032D01*
X171483501Y-84000000D01*
X170779223Y-84000000D01*
X170424255Y-83645032D01*
X170069287Y-84000000D01*
X169365010Y-84000000D01*
X169010042Y-83645032D01*
X168655074Y-84000000D01*
X167950796Y-84000000D01*
X167595828Y-83645032D01*
X167240860Y-84000000D01*
X166536582Y-84000000D01*
X166181614Y-83645031D01*
X165826646Y-84000000D01*
X165122369Y-84000000D01*
X164767401Y-83645032D01*
X164624000Y-83788433D01*
X164000000Y-83788433D01*
X164000000Y-83292893D01*
X165119540Y-83292893D01*
X165474508Y-83647861D01*
X165829476Y-83292893D01*
X166533753Y-83292893D01*
X166888721Y-83647861D01*
X167243689Y-83292893D01*
X167947967Y-83292893D01*
X168302935Y-83647861D01*
X168657903Y-83292893D01*
X169362180Y-83292893D01*
X169717148Y-83647861D01*
X170072116Y-83292893D01*
X170776394Y-83292893D01*
X171131362Y-83647861D01*
X171486330Y-83292893D01*
X172190607Y-83292893D01*
X172545575Y-83647861D01*
X172900544Y-83292893D01*
X173604821Y-83292893D01*
X173959789Y-83647861D01*
X174314757Y-83292893D01*
X175019035Y-83292893D01*
X175374003Y-83647861D01*
X175728971Y-83292893D01*
X176433248Y-83292893D01*
X176788216Y-83647861D01*
X177143184Y-83292893D01*
X177847462Y-83292893D01*
X178202430Y-83647861D01*
X178557398Y-83292893D01*
X179261675Y-83292893D01*
X179616643Y-83647861D01*
X179971611Y-83292893D01*
X180675889Y-83292893D01*
X181030857Y-83647861D01*
X181385825Y-83292893D01*
X182090102Y-83292893D01*
X182445070Y-83647861D01*
X182800038Y-83292893D01*
X183504316Y-83292893D01*
X183859284Y-83647861D01*
X184214252Y-83292893D01*
X184918529Y-83292893D01*
X185273497Y-83647861D01*
X185628466Y-83292893D01*
X186332743Y-83292893D01*
X186687711Y-83647861D01*
X187042679Y-83292893D01*
X186687711Y-82937925D01*
X186332743Y-83292893D01*
X185628466Y-83292893D01*
X185273497Y-82937924D01*
X184918529Y-83292893D01*
X184214252Y-83292893D01*
X183859284Y-82937925D01*
X183504316Y-83292893D01*
X182800038Y-83292893D01*
X182445070Y-82937924D01*
X182090102Y-83292893D01*
X181385825Y-83292893D01*
X181030857Y-82937925D01*
X180675889Y-83292893D01*
X179971611Y-83292893D01*
X179616643Y-82937925D01*
X179261675Y-83292893D01*
X178557398Y-83292893D01*
X178202430Y-82937925D01*
X177847462Y-83292893D01*
X177143184Y-83292893D01*
X176788216Y-82937925D01*
X176433248Y-83292893D01*
X175728971Y-83292893D01*
X175374003Y-82937925D01*
X175019035Y-83292893D01*
X174314757Y-83292893D01*
X173959789Y-82937925D01*
X173604821Y-83292893D01*
X172900544Y-83292893D01*
X172545575Y-82937924D01*
X172190607Y-83292893D01*
X171486330Y-83292893D01*
X171131362Y-82937925D01*
X170776394Y-83292893D01*
X170072116Y-83292893D01*
X169717148Y-82937925D01*
X169362180Y-83292893D01*
X168657903Y-83292893D01*
X168302935Y-82937925D01*
X167947967Y-83292893D01*
X167243689Y-83292893D01*
X166888721Y-82937925D01*
X166533753Y-83292893D01*
X165829476Y-83292893D01*
X165474508Y-82937925D01*
X165119540Y-83292893D01*
X164000000Y-83292893D01*
X164000000Y-82374219D01*
X164624000Y-82374219D01*
X164624000Y-82797353D01*
X164767401Y-82940754D01*
X165122369Y-82585786D01*
X165826646Y-82585786D01*
X166181614Y-82940754D01*
X166536582Y-82585786D01*
X167240860Y-82585786D01*
X167595828Y-82940754D01*
X167950796Y-82585786D01*
X168655074Y-82585786D01*
X169010042Y-82940754D01*
X169365010Y-82585786D01*
X170069287Y-82585786D01*
X170424255Y-82940754D01*
X170779223Y-82585786D01*
X171483501Y-82585786D01*
X171838469Y-82940754D01*
X172193437Y-82585786D01*
X172897714Y-82585786D01*
X173252682Y-82940754D01*
X173607650Y-82585786D01*
X174311928Y-82585786D01*
X174666896Y-82940754D01*
X175021864Y-82585786D01*
X175726141Y-82585786D01*
X176081109Y-82940754D01*
X176436077Y-82585786D01*
X177140355Y-82585786D01*
X177495323Y-82940754D01*
X177850291Y-82585786D01*
X178554568Y-82585786D01*
X178909536Y-82940754D01*
X179264505Y-82585786D01*
X179968782Y-82585786D01*
X180323750Y-82940754D01*
X180678718Y-82585786D01*
X181382996Y-82585786D01*
X181737964Y-82940754D01*
X182092932Y-82585786D01*
X182797209Y-82585786D01*
X183152177Y-82940754D01*
X183507145Y-82585786D01*
X184211423Y-82585786D01*
X184566391Y-82940754D01*
X184921359Y-82585786D01*
X185625636Y-82585786D01*
X185980604Y-82940754D01*
X186335572Y-82585786D01*
X187039850Y-82585786D01*
X187376000Y-82921936D01*
X187376000Y-82249636D01*
X187039850Y-82585786D01*
X186335572Y-82585786D01*
X185980604Y-82230818D01*
X185625636Y-82585786D01*
X184921359Y-82585786D01*
X184566391Y-82230818D01*
X184211423Y-82585786D01*
X183507145Y-82585786D01*
X183152177Y-82230818D01*
X182797209Y-82585786D01*
X182092932Y-82585786D01*
X181737964Y-82230818D01*
X181382996Y-82585786D01*
X180678718Y-82585786D01*
X180323750Y-82230818D01*
X179968782Y-82585786D01*
X179264505Y-82585786D01*
X178909536Y-82230817D01*
X178554568Y-82585786D01*
X177850291Y-82585786D01*
X177495323Y-82230818D01*
X177140355Y-82585786D01*
X176436077Y-82585786D01*
X176081109Y-82230818D01*
X175726141Y-82585786D01*
X175021864Y-82585786D01*
X174666896Y-82230818D01*
X174311928Y-82585786D01*
X173607650Y-82585786D01*
X173252682Y-82230818D01*
X172897714Y-82585786D01*
X172193437Y-82585786D01*
X171838469Y-82230818D01*
X171483501Y-82585786D01*
X170779223Y-82585786D01*
X170424255Y-82230818D01*
X170069287Y-82585786D01*
X169365010Y-82585786D01*
X169010042Y-82230818D01*
X168655074Y-82585786D01*
X167950796Y-82585786D01*
X167595828Y-82230818D01*
X167240860Y-82585786D01*
X166536582Y-82585786D01*
X166181614Y-82230817D01*
X165826646Y-82585786D01*
X165122369Y-82585786D01*
X164767401Y-82230818D01*
X164624000Y-82374219D01*
X164000000Y-82374219D01*
X164000000Y-81878679D01*
X165119539Y-81878679D01*
X165474508Y-82233647D01*
X165829476Y-81878679D01*
X166533752Y-81878679D01*
X166888721Y-82233647D01*
X167243689Y-81878679D01*
X167947966Y-81878679D01*
X168302935Y-82233647D01*
X168657903Y-81878679D01*
X169362179Y-81878679D01*
X169717148Y-82233647D01*
X170072116Y-81878679D01*
X170776393Y-81878679D01*
X171131362Y-82233647D01*
X171486330Y-81878679D01*
X172190607Y-81878679D01*
X172545575Y-82233647D01*
X172900544Y-81878679D01*
X173604820Y-81878679D01*
X173959789Y-82233647D01*
X174314757Y-81878679D01*
X175019034Y-81878679D01*
X175374003Y-82233647D01*
X175728971Y-81878679D01*
X176433247Y-81878679D01*
X176788216Y-82233647D01*
X177143184Y-81878679D01*
X177847461Y-81878679D01*
X178202430Y-82233647D01*
X178557398Y-81878679D01*
X179261674Y-81878679D01*
X179616643Y-82233647D01*
X179971611Y-81878679D01*
X180675888Y-81878679D01*
X181030857Y-82233647D01*
X181385825Y-81878679D01*
X182090101Y-81878679D01*
X182445070Y-82233647D01*
X182800038Y-81878679D01*
X183504315Y-81878679D01*
X183859284Y-82233647D01*
X184214252Y-81878679D01*
X184918529Y-81878679D01*
X185273497Y-82233647D01*
X185628466Y-81878679D01*
X186332742Y-81878679D01*
X186687711Y-82233647D01*
X187042679Y-81878679D01*
X186687711Y-81523711D01*
X186332742Y-81878679D01*
X185628466Y-81878679D01*
X185273497Y-81523710D01*
X184918529Y-81878679D01*
X184214252Y-81878679D01*
X183859284Y-81523711D01*
X183504315Y-81878679D01*
X182800038Y-81878679D01*
X182445070Y-81523710D01*
X182090101Y-81878679D01*
X181385825Y-81878679D01*
X181030857Y-81523711D01*
X180675888Y-81878679D01*
X179971611Y-81878679D01*
X179616643Y-81523711D01*
X179261674Y-81878679D01*
X178557398Y-81878679D01*
X178202430Y-81523711D01*
X177847461Y-81878679D01*
X177143184Y-81878679D01*
X176788216Y-81523711D01*
X176433247Y-81878679D01*
X175728971Y-81878679D01*
X175374003Y-81523711D01*
X175019034Y-81878679D01*
X174314757Y-81878679D01*
X173959789Y-81523711D01*
X173604820Y-81878679D01*
X172900544Y-81878679D01*
X172545575Y-81523710D01*
X172190607Y-81878679D01*
X171486330Y-81878679D01*
X171131362Y-81523711D01*
X170776393Y-81878679D01*
X170072116Y-81878679D01*
X169717148Y-81523711D01*
X169362179Y-81878679D01*
X168657903Y-81878679D01*
X168302935Y-81523711D01*
X167947966Y-81878679D01*
X167243689Y-81878679D01*
X166888721Y-81523711D01*
X166533752Y-81878679D01*
X165829476Y-81878679D01*
X165474508Y-81523711D01*
X165119539Y-81878679D01*
X164000000Y-81878679D01*
X164000000Y-80960006D01*
X164624000Y-80960006D01*
X164624000Y-81383140D01*
X164767401Y-81526541D01*
X165122369Y-81171573D01*
X165826646Y-81171573D01*
X166181614Y-81526541D01*
X166536582Y-81171573D01*
X167240860Y-81171573D01*
X167595828Y-81526541D01*
X167950796Y-81171573D01*
X168655074Y-81171573D01*
X169010042Y-81526541D01*
X169365010Y-81171573D01*
X170069287Y-81171573D01*
X170424255Y-81526541D01*
X170779223Y-81171573D01*
X171483501Y-81171573D01*
X171838469Y-81526541D01*
X172193437Y-81171573D01*
X172897714Y-81171573D01*
X173252682Y-81526541D01*
X173607650Y-81171573D01*
X174311928Y-81171573D01*
X174666896Y-81526541D01*
X175021864Y-81171573D01*
X175726141Y-81171573D01*
X176081109Y-81526541D01*
X176436077Y-81171573D01*
X177140355Y-81171573D01*
X177495323Y-81526541D01*
X177850291Y-81171573D01*
X178554568Y-81171573D01*
X178909536Y-81526541D01*
X179264505Y-81171573D01*
X179968782Y-81171573D01*
X180323750Y-81526541D01*
X180678718Y-81171573D01*
X181382996Y-81171573D01*
X181737964Y-81526541D01*
X182092932Y-81171573D01*
X182797209Y-81171573D01*
X183152177Y-81526541D01*
X183507145Y-81171573D01*
X184211423Y-81171573D01*
X184566391Y-81526541D01*
X184921359Y-81171573D01*
X185625636Y-81171573D01*
X185980604Y-81526541D01*
X186335572Y-81171573D01*
X187039850Y-81171573D01*
X187376000Y-81507723D01*
X187376000Y-80835423D01*
X187039850Y-81171573D01*
X186335572Y-81171573D01*
X185980604Y-80816605D01*
X185625636Y-81171573D01*
X184921359Y-81171573D01*
X184566391Y-80816605D01*
X184211423Y-81171573D01*
X183507145Y-81171573D01*
X183152177Y-80816605D01*
X182797209Y-81171573D01*
X182092932Y-81171573D01*
X181737964Y-80816605D01*
X181382996Y-81171573D01*
X180678718Y-81171573D01*
X180323750Y-80816605D01*
X179968782Y-81171573D01*
X179264505Y-81171573D01*
X178909536Y-80816604D01*
X178554568Y-81171573D01*
X177850291Y-81171573D01*
X177495323Y-80816605D01*
X177140355Y-81171573D01*
X176436077Y-81171573D01*
X176081109Y-80816605D01*
X175726141Y-81171573D01*
X175021864Y-81171573D01*
X174666896Y-80816605D01*
X174311928Y-81171573D01*
X173607650Y-81171573D01*
X173252682Y-80816605D01*
X172897714Y-81171573D01*
X172193437Y-81171573D01*
X171838469Y-80816605D01*
X171483501Y-81171573D01*
X170779223Y-81171573D01*
X170424255Y-80816605D01*
X170069287Y-81171573D01*
X169365010Y-81171573D01*
X169010042Y-80816605D01*
X168655074Y-81171573D01*
X167950796Y-81171573D01*
X167595828Y-80816605D01*
X167240860Y-81171573D01*
X166536582Y-81171573D01*
X166181614Y-80816604D01*
X165826646Y-81171573D01*
X165122369Y-81171573D01*
X164767401Y-80816605D01*
X164624000Y-80960006D01*
X164000000Y-80960006D01*
X164000000Y-80464466D01*
X165119540Y-80464466D01*
X165474508Y-80819434D01*
X165829476Y-80464466D01*
X166533753Y-80464466D01*
X166888721Y-80819434D01*
X167243689Y-80464466D01*
X167947967Y-80464466D01*
X168302935Y-80819434D01*
X168657903Y-80464466D01*
X169362180Y-80464466D01*
X169717148Y-80819434D01*
X170072116Y-80464466D01*
X170776394Y-80464466D01*
X171131362Y-80819434D01*
X171486330Y-80464466D01*
X172190607Y-80464466D01*
X172545575Y-80819434D01*
X172900544Y-80464466D01*
X173604821Y-80464466D01*
X173959789Y-80819434D01*
X174314757Y-80464466D01*
X175019035Y-80464466D01*
X175374003Y-80819434D01*
X175728971Y-80464466D01*
X176433248Y-80464466D01*
X176788216Y-80819434D01*
X177143184Y-80464466D01*
X177847462Y-80464466D01*
X178202430Y-80819434D01*
X178557398Y-80464466D01*
X179261675Y-80464466D01*
X179616643Y-80819434D01*
X179971611Y-80464466D01*
X180675889Y-80464466D01*
X181030857Y-80819434D01*
X181385825Y-80464466D01*
X182090102Y-80464466D01*
X182445070Y-80819434D01*
X182800038Y-80464466D01*
X183504316Y-80464466D01*
X183859284Y-80819434D01*
X184214252Y-80464466D01*
X184918529Y-80464466D01*
X185273497Y-80819434D01*
X185628466Y-80464466D01*
X186332743Y-80464466D01*
X186687711Y-80819434D01*
X187042679Y-80464466D01*
X186687711Y-80109498D01*
X186332743Y-80464466D01*
X185628466Y-80464466D01*
X185273497Y-80109497D01*
X184918529Y-80464466D01*
X184214252Y-80464466D01*
X183859284Y-80109498D01*
X183504316Y-80464466D01*
X182800038Y-80464466D01*
X182445070Y-80109497D01*
X182090102Y-80464466D01*
X181385825Y-80464466D01*
X181030857Y-80109498D01*
X180675889Y-80464466D01*
X179971611Y-80464466D01*
X179616643Y-80109498D01*
X179261675Y-80464466D01*
X178557398Y-80464466D01*
X178202430Y-80109498D01*
X177847462Y-80464466D01*
X177143184Y-80464466D01*
X176788216Y-80109498D01*
X176433248Y-80464466D01*
X175728971Y-80464466D01*
X175374003Y-80109498D01*
X175019035Y-80464466D01*
X174314757Y-80464466D01*
X173959789Y-80109498D01*
X173604821Y-80464466D01*
X172900544Y-80464466D01*
X172545575Y-80109497D01*
X172190607Y-80464466D01*
X171486330Y-80464466D01*
X171131362Y-80109498D01*
X170776394Y-80464466D01*
X170072116Y-80464466D01*
X169717148Y-80109498D01*
X169362180Y-80464466D01*
X168657903Y-80464466D01*
X168302935Y-80109498D01*
X167947967Y-80464466D01*
X167243689Y-80464466D01*
X166888721Y-80109498D01*
X166533753Y-80464466D01*
X165829476Y-80464466D01*
X165474508Y-80109498D01*
X165119540Y-80464466D01*
X164000000Y-80464466D01*
X164000000Y-79545792D01*
X164624000Y-79545792D01*
X164624000Y-79968926D01*
X164767401Y-80112327D01*
X165122369Y-79757359D01*
X165826646Y-79757359D01*
X166181614Y-80112327D01*
X166536582Y-79757359D01*
X167240860Y-79757359D01*
X167595828Y-80112327D01*
X167950796Y-79757359D01*
X168655074Y-79757359D01*
X169010042Y-80112327D01*
X169365010Y-79757359D01*
X170069287Y-79757359D01*
X170424255Y-80112327D01*
X170779223Y-79757359D01*
X171483501Y-79757359D01*
X171838469Y-80112327D01*
X172193437Y-79757359D01*
X172897714Y-79757359D01*
X173252682Y-80112327D01*
X173607650Y-79757359D01*
X174311928Y-79757359D01*
X174666896Y-80112327D01*
X175021864Y-79757359D01*
X175726141Y-79757359D01*
X176081109Y-80112327D01*
X176436077Y-79757359D01*
X177140355Y-79757359D01*
X177495323Y-80112327D01*
X177850291Y-79757359D01*
X178554568Y-79757359D01*
X178909536Y-80112327D01*
X179264505Y-79757359D01*
X179968782Y-79757359D01*
X180323750Y-80112327D01*
X180678718Y-79757359D01*
X181382996Y-79757359D01*
X181737964Y-80112327D01*
X182092932Y-79757359D01*
X182797209Y-79757359D01*
X183152177Y-80112327D01*
X183507145Y-79757359D01*
X184211423Y-79757359D01*
X184566391Y-80112327D01*
X184921359Y-79757359D01*
X185625636Y-79757359D01*
X185980604Y-80112327D01*
X186335572Y-79757359D01*
X187039850Y-79757359D01*
X187376000Y-80093509D01*
X187376000Y-79421209D01*
X187039850Y-79757359D01*
X186335572Y-79757359D01*
X185980604Y-79402391D01*
X185625636Y-79757359D01*
X184921359Y-79757359D01*
X184566391Y-79402391D01*
X184211423Y-79757359D01*
X183507145Y-79757359D01*
X183152177Y-79402391D01*
X182797209Y-79757359D01*
X182092932Y-79757359D01*
X181737964Y-79402391D01*
X181382996Y-79757359D01*
X180678718Y-79757359D01*
X180323750Y-79402391D01*
X179968782Y-79757359D01*
X179264505Y-79757359D01*
X178909536Y-79402390D01*
X178554568Y-79757359D01*
X177850291Y-79757359D01*
X177495323Y-79402391D01*
X177140355Y-79757359D01*
X176436077Y-79757359D01*
X176081109Y-79402391D01*
X175726141Y-79757359D01*
X175021864Y-79757359D01*
X174666896Y-79402391D01*
X174311928Y-79757359D01*
X173607650Y-79757359D01*
X173252682Y-79402391D01*
X172897714Y-79757359D01*
X172193437Y-79757359D01*
X171838469Y-79402391D01*
X171483501Y-79757359D01*
X170779223Y-79757359D01*
X170424255Y-79402391D01*
X170069287Y-79757359D01*
X169365010Y-79757359D01*
X169010042Y-79402391D01*
X168655074Y-79757359D01*
X167950796Y-79757359D01*
X167595828Y-79402391D01*
X167240860Y-79757359D01*
X166536582Y-79757359D01*
X166181614Y-79402390D01*
X165826646Y-79757359D01*
X165122369Y-79757359D01*
X164767401Y-79402391D01*
X164624000Y-79545792D01*
X164000000Y-79545792D01*
X164000000Y-79050252D01*
X165119540Y-79050252D01*
X165474508Y-79405220D01*
X165829476Y-79050252D01*
X166533753Y-79050252D01*
X166888721Y-79405220D01*
X167243689Y-79050252D01*
X167947967Y-79050252D01*
X168302935Y-79405220D01*
X168657903Y-79050252D01*
X169362180Y-79050252D01*
X169717148Y-79405220D01*
X170072116Y-79050252D01*
X170776394Y-79050252D01*
X171131362Y-79405220D01*
X171486330Y-79050252D01*
X172190607Y-79050252D01*
X172545575Y-79405220D01*
X172900544Y-79050252D01*
X173604821Y-79050252D01*
X173959789Y-79405220D01*
X174314757Y-79050252D01*
X175019035Y-79050252D01*
X175374003Y-79405220D01*
X175728971Y-79050252D01*
X176433248Y-79050252D01*
X176788216Y-79405220D01*
X177143184Y-79050252D01*
X177847462Y-79050252D01*
X178202430Y-79405220D01*
X178557398Y-79050252D01*
X179261675Y-79050252D01*
X179616643Y-79405220D01*
X179971611Y-79050252D01*
X180675889Y-79050252D01*
X181030857Y-79405220D01*
X181385825Y-79050252D01*
X182090102Y-79050252D01*
X182445070Y-79405220D01*
X182800038Y-79050252D01*
X183504316Y-79050252D01*
X183859284Y-79405220D01*
X184214252Y-79050252D01*
X184918529Y-79050252D01*
X185273497Y-79405220D01*
X185628466Y-79050252D01*
X186332743Y-79050252D01*
X186687711Y-79405220D01*
X187042679Y-79050252D01*
X186687711Y-78695284D01*
X186332743Y-79050252D01*
X185628466Y-79050252D01*
X185273497Y-78695283D01*
X184918529Y-79050252D01*
X184214252Y-79050252D01*
X183859284Y-78695284D01*
X183504316Y-79050252D01*
X182800038Y-79050252D01*
X182445070Y-78695283D01*
X182090102Y-79050252D01*
X181385825Y-79050252D01*
X181030857Y-78695284D01*
X180675889Y-79050252D01*
X179971611Y-79050252D01*
X179616643Y-78695284D01*
X179261675Y-79050252D01*
X178557398Y-79050252D01*
X178202430Y-78695284D01*
X177847462Y-79050252D01*
X177143184Y-79050252D01*
X176788216Y-78695284D01*
X176433248Y-79050252D01*
X175728971Y-79050252D01*
X175374003Y-78695284D01*
X175019035Y-79050252D01*
X174314757Y-79050252D01*
X173959789Y-78695284D01*
X173604821Y-79050252D01*
X172900544Y-79050252D01*
X172545575Y-78695283D01*
X172190607Y-79050252D01*
X171486330Y-79050252D01*
X171131362Y-78695284D01*
X170776394Y-79050252D01*
X170072116Y-79050252D01*
X169717148Y-78695284D01*
X169362180Y-79050252D01*
X168657903Y-79050252D01*
X168302935Y-78695284D01*
X167947967Y-79050252D01*
X167243689Y-79050252D01*
X166888721Y-78695284D01*
X166533753Y-79050252D01*
X165829476Y-79050252D01*
X165474508Y-78695284D01*
X165119540Y-79050252D01*
X164000000Y-79050252D01*
X164000000Y-78131578D01*
X164624000Y-78131578D01*
X164624000Y-78554713D01*
X164767401Y-78698114D01*
X165122369Y-78343145D01*
X165826645Y-78343145D01*
X166181614Y-78698114D01*
X166536582Y-78343145D01*
X167240859Y-78343145D01*
X167595828Y-78698114D01*
X167950796Y-78343145D01*
X168655073Y-78343145D01*
X169010042Y-78698114D01*
X169365010Y-78343145D01*
X170069286Y-78343145D01*
X170424255Y-78698114D01*
X170779223Y-78343145D01*
X171483500Y-78343145D01*
X171838469Y-78698114D01*
X172193437Y-78343145D01*
X172897713Y-78343145D01*
X173252682Y-78698114D01*
X173607650Y-78343145D01*
X174311927Y-78343145D01*
X174666896Y-78698114D01*
X175021864Y-78343145D01*
X175726140Y-78343145D01*
X176081109Y-78698114D01*
X176436077Y-78343145D01*
X177140354Y-78343145D01*
X177495323Y-78698114D01*
X177850291Y-78343145D01*
X178554568Y-78343145D01*
X178909536Y-78698114D01*
X179264505Y-78343145D01*
X179968781Y-78343145D01*
X180323750Y-78698114D01*
X180678718Y-78343145D01*
X181382995Y-78343145D01*
X181737964Y-78698114D01*
X182092932Y-78343145D01*
X182797208Y-78343145D01*
X183152177Y-78698114D01*
X183507145Y-78343145D01*
X184211422Y-78343145D01*
X184566391Y-78698114D01*
X184921359Y-78343145D01*
X185625635Y-78343145D01*
X185980604Y-78698114D01*
X186335572Y-78343145D01*
X187039849Y-78343145D01*
X187376000Y-78679296D01*
X187376000Y-78006995D01*
X187039849Y-78343145D01*
X186335572Y-78343145D01*
X185980604Y-77988177D01*
X185625635Y-78343145D01*
X184921359Y-78343145D01*
X184566391Y-77988177D01*
X184211422Y-78343145D01*
X183507145Y-78343145D01*
X183152177Y-77988177D01*
X182797208Y-78343145D01*
X182092932Y-78343145D01*
X181737964Y-77988177D01*
X181382995Y-78343145D01*
X180678718Y-78343145D01*
X180323750Y-77988177D01*
X179968781Y-78343145D01*
X179264505Y-78343145D01*
X178909536Y-77988177D01*
X178554568Y-78343145D01*
X177850291Y-78343145D01*
X177495323Y-77988177D01*
X177140354Y-78343145D01*
X176436077Y-78343145D01*
X176081109Y-77988177D01*
X175726140Y-78343145D01*
X175021864Y-78343145D01*
X174666896Y-77988177D01*
X174311927Y-78343145D01*
X173607650Y-78343145D01*
X173252682Y-77988177D01*
X172897713Y-78343145D01*
X172193437Y-78343145D01*
X171838469Y-77988177D01*
X171483500Y-78343145D01*
X170779223Y-78343145D01*
X170424255Y-77988177D01*
X170069286Y-78343145D01*
X169365010Y-78343145D01*
X169010042Y-77988177D01*
X168655073Y-78343145D01*
X167950796Y-78343145D01*
X167595828Y-77988177D01*
X167240859Y-78343145D01*
X166536582Y-78343145D01*
X166181614Y-77988177D01*
X165826645Y-78343145D01*
X165122369Y-78343145D01*
X164767400Y-77988177D01*
X164624000Y-78131578D01*
X164000000Y-78131578D01*
X164000000Y-77636039D01*
X165119540Y-77636039D01*
X165474508Y-77991007D01*
X165829476Y-77636039D01*
X166533753Y-77636039D01*
X166888721Y-77991007D01*
X167243689Y-77636039D01*
X167947967Y-77636039D01*
X168302935Y-77991007D01*
X168657903Y-77636039D01*
X169362180Y-77636039D01*
X169717148Y-77991007D01*
X170072116Y-77636039D01*
X170776394Y-77636039D01*
X171131362Y-77991007D01*
X171486330Y-77636039D01*
X172190607Y-77636039D01*
X172545575Y-77991007D01*
X172900544Y-77636039D01*
X173604821Y-77636039D01*
X173959789Y-77991007D01*
X174314757Y-77636039D01*
X175019035Y-77636039D01*
X175374003Y-77991007D01*
X175728971Y-77636039D01*
X176433248Y-77636039D01*
X176788216Y-77991007D01*
X177143184Y-77636039D01*
X177847462Y-77636039D01*
X178202430Y-77991007D01*
X178557398Y-77636039D01*
X179261675Y-77636039D01*
X179616643Y-77991007D01*
X179971611Y-77636039D01*
X180675889Y-77636039D01*
X181030857Y-77991007D01*
X181385825Y-77636039D01*
X182090102Y-77636039D01*
X182445070Y-77991007D01*
X182800038Y-77636039D01*
X183504316Y-77636039D01*
X183859284Y-77991007D01*
X184214252Y-77636039D01*
X184918529Y-77636039D01*
X185273497Y-77991007D01*
X185628466Y-77636039D01*
X186332743Y-77636039D01*
X186687711Y-77991007D01*
X187042679Y-77636039D01*
X186687711Y-77281071D01*
X186332743Y-77636039D01*
X185628466Y-77636039D01*
X185273497Y-77281070D01*
X184918529Y-77636039D01*
X184214252Y-77636039D01*
X183859284Y-77281071D01*
X183504316Y-77636039D01*
X182800038Y-77636039D01*
X182445070Y-77281070D01*
X182090102Y-77636039D01*
X181385825Y-77636039D01*
X181030857Y-77281071D01*
X180675889Y-77636039D01*
X179971611Y-77636039D01*
X179616643Y-77281071D01*
X179261675Y-77636039D01*
X178557398Y-77636039D01*
X178202430Y-77281071D01*
X177847462Y-77636039D01*
X177143184Y-77636039D01*
X176788216Y-77281071D01*
X176433248Y-77636039D01*
X175728971Y-77636039D01*
X175374003Y-77281071D01*
X175019035Y-77636039D01*
X174314757Y-77636039D01*
X173959789Y-77281071D01*
X173604821Y-77636039D01*
X172900544Y-77636039D01*
X172545575Y-77281070D01*
X172190607Y-77636039D01*
X171486330Y-77636039D01*
X171131362Y-77281071D01*
X170776394Y-77636039D01*
X170072116Y-77636039D01*
X169717148Y-77281071D01*
X169362180Y-77636039D01*
X168657903Y-77636039D01*
X168302935Y-77281071D01*
X167947967Y-77636039D01*
X167243689Y-77636039D01*
X166888721Y-77281071D01*
X166533753Y-77636039D01*
X165829476Y-77636039D01*
X165474508Y-77281071D01*
X165119540Y-77636039D01*
X164000000Y-77636039D01*
X164000000Y-76717365D01*
X164624000Y-76717365D01*
X164624000Y-77140499D01*
X164767401Y-77283900D01*
X165122369Y-76928932D01*
X165826646Y-76928932D01*
X166181614Y-77283900D01*
X166536582Y-76928932D01*
X167240860Y-76928932D01*
X167595828Y-77283900D01*
X167950796Y-76928932D01*
X168655074Y-76928932D01*
X169010042Y-77283900D01*
X169365010Y-76928932D01*
X170069287Y-76928932D01*
X170424255Y-77283900D01*
X170779223Y-76928932D01*
X171483501Y-76928932D01*
X171838469Y-77283900D01*
X172193437Y-76928932D01*
X172897714Y-76928932D01*
X173252682Y-77283900D01*
X173607650Y-76928932D01*
X174311928Y-76928932D01*
X174666896Y-77283900D01*
X175021864Y-76928932D01*
X175726141Y-76928932D01*
X176081109Y-77283900D01*
X176436077Y-76928932D01*
X177140355Y-76928932D01*
X177495323Y-77283900D01*
X177850291Y-76928932D01*
X178554568Y-76928932D01*
X178909536Y-77283900D01*
X179264505Y-76928932D01*
X179968782Y-76928932D01*
X180323750Y-77283900D01*
X180678718Y-76928932D01*
X181382996Y-76928932D01*
X181737964Y-77283900D01*
X182092932Y-76928932D01*
X182797209Y-76928932D01*
X183152177Y-77283900D01*
X183507145Y-76928932D01*
X184211423Y-76928932D01*
X184566391Y-77283900D01*
X184921359Y-76928932D01*
X185625636Y-76928932D01*
X185980604Y-77283900D01*
X186335572Y-76928932D01*
X187039850Y-76928932D01*
X187376000Y-77265082D01*
X187376000Y-76592782D01*
X187039850Y-76928932D01*
X186335572Y-76928932D01*
X185980604Y-76573964D01*
X185625636Y-76928932D01*
X184921359Y-76928932D01*
X184566391Y-76573964D01*
X184211423Y-76928932D01*
X183507145Y-76928932D01*
X183152177Y-76573964D01*
X182797209Y-76928932D01*
X182092932Y-76928932D01*
X181737964Y-76573964D01*
X181382996Y-76928932D01*
X180678718Y-76928932D01*
X180323750Y-76573964D01*
X179968782Y-76928932D01*
X179264505Y-76928932D01*
X178909536Y-76573963D01*
X178554568Y-76928932D01*
X177850291Y-76928932D01*
X177495323Y-76573964D01*
X177140355Y-76928932D01*
X176436077Y-76928932D01*
X176081109Y-76573964D01*
X175726141Y-76928932D01*
X175021864Y-76928932D01*
X174666896Y-76573964D01*
X174311928Y-76928932D01*
X173607650Y-76928932D01*
X173252682Y-76573964D01*
X172897714Y-76928932D01*
X172193437Y-76928932D01*
X171838469Y-76573964D01*
X171483501Y-76928932D01*
X170779223Y-76928932D01*
X170424255Y-76573964D01*
X170069287Y-76928932D01*
X169365010Y-76928932D01*
X169010042Y-76573964D01*
X168655074Y-76928932D01*
X167950796Y-76928932D01*
X167595828Y-76573964D01*
X167240860Y-76928932D01*
X166536582Y-76928932D01*
X166181614Y-76573963D01*
X165826646Y-76928932D01*
X165122369Y-76928932D01*
X164767401Y-76573964D01*
X164624000Y-76717365D01*
X164000000Y-76717365D01*
X164000000Y-76221825D01*
X165119540Y-76221825D01*
X165474508Y-76576793D01*
X165829476Y-76221825D01*
X166533753Y-76221825D01*
X166888721Y-76576793D01*
X167243689Y-76221825D01*
X167947967Y-76221825D01*
X168302935Y-76576793D01*
X168657903Y-76221825D01*
X169362180Y-76221825D01*
X169717148Y-76576793D01*
X170072116Y-76221825D01*
X170776394Y-76221825D01*
X171131362Y-76576793D01*
X171486330Y-76221825D01*
X172190607Y-76221825D01*
X172545575Y-76576793D01*
X172900544Y-76221825D01*
X173604821Y-76221825D01*
X173959789Y-76576793D01*
X174314757Y-76221825D01*
X175019035Y-76221825D01*
X175374003Y-76576793D01*
X175728971Y-76221825D01*
X176433248Y-76221825D01*
X176788216Y-76576793D01*
X177143184Y-76221825D01*
X177847462Y-76221825D01*
X178202430Y-76576793D01*
X178557398Y-76221825D01*
X179261675Y-76221825D01*
X179616643Y-76576793D01*
X179971611Y-76221825D01*
X180675889Y-76221825D01*
X181030857Y-76576793D01*
X181385825Y-76221825D01*
X182090102Y-76221825D01*
X182445070Y-76576793D01*
X182800038Y-76221825D01*
X183504316Y-76221825D01*
X183859284Y-76576793D01*
X184214252Y-76221825D01*
X184918529Y-76221825D01*
X185273497Y-76576793D01*
X185628466Y-76221825D01*
X186332743Y-76221825D01*
X186687711Y-76576793D01*
X187042679Y-76221825D01*
X186687711Y-75866857D01*
X186332743Y-76221825D01*
X185628466Y-76221825D01*
X185273497Y-75866856D01*
X184918529Y-76221825D01*
X184214252Y-76221825D01*
X183859284Y-75866857D01*
X183504316Y-76221825D01*
X182800038Y-76221825D01*
X182445070Y-75866856D01*
X182090102Y-76221825D01*
X181385825Y-76221825D01*
X181030857Y-75866857D01*
X180675889Y-76221825D01*
X179971611Y-76221825D01*
X179616643Y-75866857D01*
X179261675Y-76221825D01*
X178557398Y-76221825D01*
X178202430Y-75866857D01*
X177847462Y-76221825D01*
X177143184Y-76221825D01*
X176788216Y-75866857D01*
X176433248Y-76221825D01*
X175728971Y-76221825D01*
X175374003Y-75866857D01*
X175019035Y-76221825D01*
X174314757Y-76221825D01*
X173959789Y-75866857D01*
X173604821Y-76221825D01*
X172900544Y-76221825D01*
X172545575Y-75866856D01*
X172190607Y-76221825D01*
X171486330Y-76221825D01*
X171131362Y-75866857D01*
X170776394Y-76221825D01*
X170072116Y-76221825D01*
X169717148Y-75866857D01*
X169362180Y-76221825D01*
X168657903Y-76221825D01*
X168302935Y-75866857D01*
X167947967Y-76221825D01*
X167243689Y-76221825D01*
X166888721Y-75866857D01*
X166533753Y-76221825D01*
X165829476Y-76221825D01*
X165474508Y-75866857D01*
X165119540Y-76221825D01*
X164000000Y-76221825D01*
X164000000Y-75303151D01*
X164624000Y-75303151D01*
X164624000Y-75726285D01*
X164767401Y-75869686D01*
X165122369Y-75514718D01*
X165826645Y-75514718D01*
X166181614Y-75869686D01*
X166536582Y-75514718D01*
X167240859Y-75514718D01*
X167595828Y-75869686D01*
X167950796Y-75514718D01*
X168655073Y-75514718D01*
X169010042Y-75869686D01*
X169365010Y-75514718D01*
X170069286Y-75514718D01*
X170424255Y-75869686D01*
X170779223Y-75514718D01*
X171483500Y-75514718D01*
X171838469Y-75869686D01*
X172193437Y-75514718D01*
X172897713Y-75514718D01*
X173252682Y-75869686D01*
X173607650Y-75514718D01*
X174311927Y-75514718D01*
X174666896Y-75869686D01*
X175021864Y-75514718D01*
X175726140Y-75514718D01*
X176081109Y-75869686D01*
X176436077Y-75514718D01*
X177140354Y-75514718D01*
X177495323Y-75869686D01*
X177850291Y-75514718D01*
X178554568Y-75514718D01*
X178909536Y-75869686D01*
X179264505Y-75514718D01*
X179968781Y-75514718D01*
X180323750Y-75869686D01*
X180678718Y-75514718D01*
X181382995Y-75514718D01*
X181737964Y-75869686D01*
X182092932Y-75514718D01*
X182797208Y-75514718D01*
X183152177Y-75869686D01*
X183507145Y-75514718D01*
X184211422Y-75514718D01*
X184566391Y-75869686D01*
X184921359Y-75514718D01*
X185625635Y-75514718D01*
X185980604Y-75869686D01*
X186335572Y-75514718D01*
X187039849Y-75514718D01*
X187376000Y-75850868D01*
X187376000Y-75178568D01*
X187039849Y-75514718D01*
X186335572Y-75514718D01*
X185980604Y-75159750D01*
X185625635Y-75514718D01*
X184921359Y-75514718D01*
X184566391Y-75159750D01*
X184211422Y-75514718D01*
X183507145Y-75514718D01*
X183152177Y-75159750D01*
X182797208Y-75514718D01*
X182092932Y-75514718D01*
X181737964Y-75159750D01*
X181382995Y-75514718D01*
X180678718Y-75514718D01*
X180323750Y-75159750D01*
X179968781Y-75514718D01*
X179264505Y-75514718D01*
X178909536Y-75159749D01*
X178554568Y-75514718D01*
X177850291Y-75514718D01*
X177495323Y-75159750D01*
X177140354Y-75514718D01*
X176436077Y-75514718D01*
X176081109Y-75159750D01*
X175726140Y-75514718D01*
X175021864Y-75514718D01*
X174666896Y-75159750D01*
X174311927Y-75514718D01*
X173607650Y-75514718D01*
X173252682Y-75159750D01*
X172897713Y-75514718D01*
X172193437Y-75514718D01*
X171838469Y-75159750D01*
X171483500Y-75514718D01*
X170779223Y-75514718D01*
X170424255Y-75159750D01*
X170069286Y-75514718D01*
X169365010Y-75514718D01*
X169010042Y-75159750D01*
X168655073Y-75514718D01*
X167950796Y-75514718D01*
X167595828Y-75159750D01*
X167240859Y-75514718D01*
X166536582Y-75514718D01*
X166181614Y-75159749D01*
X165826645Y-75514718D01*
X165122369Y-75514718D01*
X164767401Y-75159750D01*
X164624000Y-75303151D01*
X164000000Y-75303151D01*
X164000000Y-74807612D01*
X165119540Y-74807612D01*
X165474508Y-75162580D01*
X165829476Y-74807612D01*
X166533753Y-74807612D01*
X166888721Y-75162580D01*
X167243689Y-74807612D01*
X167947967Y-74807612D01*
X168302935Y-75162580D01*
X168657903Y-74807612D01*
X169362180Y-74807612D01*
X169717148Y-75162580D01*
X170072116Y-74807612D01*
X170776394Y-74807612D01*
X171131362Y-75162580D01*
X171486330Y-74807612D01*
X172190607Y-74807612D01*
X172545575Y-75162580D01*
X172900544Y-74807612D01*
X173604821Y-74807612D01*
X173959789Y-75162580D01*
X174314757Y-74807612D01*
X175019035Y-74807612D01*
X175374003Y-75162580D01*
X175728971Y-74807612D01*
X176433248Y-74807612D01*
X176788216Y-75162580D01*
X177143184Y-74807612D01*
X177847462Y-74807612D01*
X178202430Y-75162580D01*
X178557398Y-74807612D01*
X179261675Y-74807612D01*
X179616643Y-75162580D01*
X179971611Y-74807612D01*
X180675889Y-74807612D01*
X181030857Y-75162580D01*
X181385825Y-74807612D01*
X182090102Y-74807612D01*
X182445070Y-75162580D01*
X182800038Y-74807612D01*
X183504316Y-74807612D01*
X183859284Y-75162580D01*
X184214252Y-74807612D01*
X184918529Y-74807612D01*
X185273497Y-75162580D01*
X185628466Y-74807612D01*
X186332743Y-74807612D01*
X186687711Y-75162580D01*
X187042679Y-74807612D01*
X186687711Y-74452644D01*
X186332743Y-74807612D01*
X185628466Y-74807612D01*
X185273497Y-74452643D01*
X184918529Y-74807612D01*
X184214252Y-74807612D01*
X183859284Y-74452644D01*
X183504316Y-74807612D01*
X182800038Y-74807612D01*
X182445070Y-74452643D01*
X182090102Y-74807612D01*
X181385825Y-74807612D01*
X181030857Y-74452644D01*
X180675889Y-74807612D01*
X179971611Y-74807612D01*
X179616643Y-74452644D01*
X179261675Y-74807612D01*
X178557398Y-74807612D01*
X178202430Y-74452644D01*
X177847462Y-74807612D01*
X177143184Y-74807612D01*
X176788216Y-74452644D01*
X176433248Y-74807612D01*
X175728971Y-74807612D01*
X175374003Y-74452644D01*
X175019035Y-74807612D01*
X174314757Y-74807612D01*
X173959789Y-74452644D01*
X173604821Y-74807612D01*
X172900544Y-74807612D01*
X172545575Y-74452643D01*
X172190607Y-74807612D01*
X171486330Y-74807612D01*
X171131362Y-74452644D01*
X170776394Y-74807612D01*
X170072116Y-74807612D01*
X169717148Y-74452644D01*
X169362180Y-74807612D01*
X168657903Y-74807612D01*
X168302935Y-74452644D01*
X167947967Y-74807612D01*
X167243689Y-74807612D01*
X166888721Y-74452644D01*
X166533753Y-74807612D01*
X165829476Y-74807612D01*
X165474508Y-74452644D01*
X165119540Y-74807612D01*
X164000000Y-74807612D01*
X164000000Y-73888938D01*
X164624000Y-73888938D01*
X164624000Y-74312072D01*
X164767401Y-74455473D01*
X165122369Y-74100505D01*
X165826646Y-74100505D01*
X166181614Y-74455473D01*
X166536582Y-74100505D01*
X167240860Y-74100505D01*
X167595828Y-74455473D01*
X167950796Y-74100505D01*
X168655074Y-74100505D01*
X169010042Y-74455473D01*
X169365010Y-74100505D01*
X170069287Y-74100505D01*
X170424255Y-74455473D01*
X170779223Y-74100505D01*
X171483501Y-74100505D01*
X171838469Y-74455473D01*
X172193437Y-74100505D01*
X172897714Y-74100505D01*
X173252682Y-74455473D01*
X173607650Y-74100505D01*
X174311928Y-74100505D01*
X174666896Y-74455473D01*
X175021864Y-74100505D01*
X175726141Y-74100505D01*
X176081109Y-74455473D01*
X176436077Y-74100505D01*
X177140355Y-74100505D01*
X177495323Y-74455473D01*
X177850291Y-74100505D01*
X178554568Y-74100505D01*
X178909536Y-74455473D01*
X179264505Y-74100505D01*
X179968782Y-74100505D01*
X180323750Y-74455473D01*
X180678718Y-74100505D01*
X181382996Y-74100505D01*
X181737964Y-74455473D01*
X182092932Y-74100505D01*
X182797209Y-74100505D01*
X183152177Y-74455473D01*
X183507145Y-74100505D01*
X184211423Y-74100505D01*
X184566391Y-74455473D01*
X184921359Y-74100505D01*
X185625636Y-74100505D01*
X185980604Y-74455473D01*
X186335572Y-74100505D01*
X187039850Y-74100505D01*
X187376000Y-74436655D01*
X187376000Y-73764355D01*
X187039850Y-74100505D01*
X186335572Y-74100505D01*
X185980604Y-73745537D01*
X185625636Y-74100505D01*
X184921359Y-74100505D01*
X184566391Y-73745537D01*
X184211423Y-74100505D01*
X183507145Y-74100505D01*
X183152177Y-73745537D01*
X182797209Y-74100505D01*
X182092932Y-74100505D01*
X181737964Y-73745537D01*
X181382996Y-74100505D01*
X180678718Y-74100505D01*
X180323750Y-73745537D01*
X179968782Y-74100505D01*
X179264505Y-74100505D01*
X178909536Y-73745536D01*
X178554568Y-74100505D01*
X177850291Y-74100505D01*
X177495323Y-73745537D01*
X177140355Y-74100505D01*
X176436077Y-74100505D01*
X176081109Y-73745537D01*
X175726141Y-74100505D01*
X175021864Y-74100505D01*
X174666896Y-73745537D01*
X174311928Y-74100505D01*
X173607650Y-74100505D01*
X173252682Y-73745537D01*
X172897714Y-74100505D01*
X172193437Y-74100505D01*
X171838469Y-73745537D01*
X171483501Y-74100505D01*
X170779223Y-74100505D01*
X170424255Y-73745537D01*
X170069287Y-74100505D01*
X169365010Y-74100505D01*
X169010042Y-73745537D01*
X168655074Y-74100505D01*
X167950796Y-74100505D01*
X167595828Y-73745537D01*
X167240860Y-74100505D01*
X166536582Y-74100505D01*
X166181614Y-73745536D01*
X165826646Y-74100505D01*
X165122369Y-74100505D01*
X164767401Y-73745537D01*
X164624000Y-73888938D01*
X164000000Y-73888938D01*
X164000000Y-73393398D01*
X165119540Y-73393398D01*
X165474508Y-73748366D01*
X165829476Y-73393398D01*
X166533753Y-73393398D01*
X166888721Y-73748366D01*
X167243689Y-73393398D01*
X167947967Y-73393398D01*
X168302935Y-73748366D01*
X168657903Y-73393398D01*
X169362180Y-73393398D01*
X169717148Y-73748366D01*
X170072116Y-73393398D01*
X170776394Y-73393398D01*
X171131362Y-73748366D01*
X171486330Y-73393398D01*
X172190607Y-73393398D01*
X172545575Y-73748366D01*
X172900544Y-73393398D01*
X173604821Y-73393398D01*
X173959789Y-73748366D01*
X174314757Y-73393398D01*
X175019035Y-73393398D01*
X175374003Y-73748366D01*
X175728971Y-73393398D01*
X176433248Y-73393398D01*
X176788216Y-73748366D01*
X177143184Y-73393398D01*
X177847462Y-73393398D01*
X178202430Y-73748366D01*
X178557398Y-73393398D01*
X179261675Y-73393398D01*
X179616643Y-73748366D01*
X179971611Y-73393398D01*
X180675889Y-73393398D01*
X181030857Y-73748366D01*
X181385825Y-73393398D01*
X182090102Y-73393398D01*
X182445070Y-73748366D01*
X182800038Y-73393398D01*
X183504316Y-73393398D01*
X183859284Y-73748366D01*
X184214252Y-73393398D01*
X184918529Y-73393398D01*
X185273497Y-73748366D01*
X185628466Y-73393398D01*
X186332743Y-73393398D01*
X186687711Y-73748366D01*
X187042679Y-73393398D01*
X186687711Y-73038430D01*
X186332743Y-73393398D01*
X185628466Y-73393398D01*
X185273497Y-73038429D01*
X184918529Y-73393398D01*
X184214252Y-73393398D01*
X183859284Y-73038430D01*
X183504316Y-73393398D01*
X182800038Y-73393398D01*
X182445070Y-73038429D01*
X182090102Y-73393398D01*
X181385825Y-73393398D01*
X181030857Y-73038430D01*
X180675889Y-73393398D01*
X179971611Y-73393398D01*
X179616643Y-73038430D01*
X179261675Y-73393398D01*
X178557398Y-73393398D01*
X178202430Y-73038430D01*
X177847462Y-73393398D01*
X177143184Y-73393398D01*
X176788216Y-73038430D01*
X176433248Y-73393398D01*
X175728971Y-73393398D01*
X175374003Y-73038430D01*
X175019035Y-73393398D01*
X174314757Y-73393398D01*
X173959789Y-73038430D01*
X173604821Y-73393398D01*
X172900544Y-73393398D01*
X172545575Y-73038429D01*
X172190607Y-73393398D01*
X171486330Y-73393398D01*
X171131362Y-73038430D01*
X170776394Y-73393398D01*
X170072116Y-73393398D01*
X169717148Y-73038430D01*
X169362180Y-73393398D01*
X168657903Y-73393398D01*
X168302935Y-73038430D01*
X167947967Y-73393398D01*
X167243689Y-73393398D01*
X166888721Y-73038430D01*
X166533753Y-73393398D01*
X165829476Y-73393398D01*
X165474508Y-73038430D01*
X165119540Y-73393398D01*
X164000000Y-73393398D01*
X164000000Y-73000000D01*
X164313709Y-72686291D01*
X165826646Y-72686291D01*
X166181614Y-73041259D01*
X166536582Y-72686291D01*
X167240860Y-72686291D01*
X167595828Y-73041259D01*
X167950796Y-72686291D01*
X168655074Y-72686291D01*
X169010042Y-73041259D01*
X169365010Y-72686291D01*
X170069287Y-72686291D01*
X170424255Y-73041259D01*
X170779223Y-72686291D01*
X171483501Y-72686291D01*
X171838469Y-73041259D01*
X172193437Y-72686291D01*
X172897714Y-72686291D01*
X173252682Y-73041259D01*
X173607650Y-72686291D01*
X174311928Y-72686291D01*
X174666896Y-73041259D01*
X175021864Y-72686291D01*
X175726141Y-72686291D01*
X176081109Y-73041259D01*
X176436077Y-72686291D01*
X177140355Y-72686291D01*
X177495323Y-73041259D01*
X177850291Y-72686291D01*
X178554568Y-72686291D01*
X178909536Y-73041259D01*
X179264505Y-72686291D01*
X179968782Y-72686291D01*
X180323750Y-73041259D01*
X180678718Y-72686291D01*
X181382996Y-72686291D01*
X181737964Y-73041259D01*
X182092932Y-72686291D01*
X182797209Y-72686291D01*
X183152177Y-73041259D01*
X183507145Y-72686291D01*
X184211423Y-72686291D01*
X184566391Y-73041259D01*
X184921359Y-72686291D01*
X185625636Y-72686291D01*
X185980604Y-73041259D01*
X186335572Y-72686291D01*
X186273281Y-72624000D01*
X185687927Y-72624000D01*
X185625636Y-72686291D01*
X184921359Y-72686291D01*
X184859068Y-72624000D01*
X184273714Y-72624000D01*
X184211423Y-72686291D01*
X183507145Y-72686291D01*
X183444854Y-72624000D01*
X182859500Y-72624000D01*
X182797209Y-72686291D01*
X182092932Y-72686291D01*
X182030641Y-72624000D01*
X181445287Y-72624000D01*
X181382996Y-72686291D01*
X180678718Y-72686291D01*
X180616427Y-72624000D01*
X180031073Y-72624000D01*
X179968782Y-72686291D01*
X179264505Y-72686291D01*
X179202214Y-72624000D01*
X178616860Y-72624000D01*
X178554568Y-72686291D01*
X177850291Y-72686291D01*
X177788000Y-72624000D01*
X177202646Y-72624000D01*
X177140355Y-72686291D01*
X176436077Y-72686291D01*
X176373786Y-72624000D01*
X175788432Y-72624000D01*
X175726141Y-72686291D01*
X175021864Y-72686291D01*
X174959573Y-72624000D01*
X174374219Y-72624000D01*
X174311928Y-72686291D01*
X173607650Y-72686291D01*
X173545359Y-72624000D01*
X172960005Y-72624000D01*
X172897714Y-72686291D01*
X172193437Y-72686291D01*
X172131146Y-72624000D01*
X171545792Y-72624000D01*
X171483501Y-72686291D01*
X170779223Y-72686291D01*
X170716932Y-72624000D01*
X170131578Y-72624000D01*
X170069287Y-72686291D01*
X169365010Y-72686291D01*
X169302719Y-72624000D01*
X168717365Y-72624000D01*
X168655074Y-72686291D01*
X167950796Y-72686291D01*
X167888505Y-72624000D01*
X167303151Y-72624000D01*
X167240860Y-72686291D01*
X166536582Y-72686291D01*
X166474291Y-72624000D01*
X165888937Y-72624000D01*
X165826646Y-72686291D01*
X164313709Y-72686291D01*
X164963681Y-72036319D01*
X165025004Y-72002834D01*
X165051362Y-72000000D01*
X186948638Y-72000000D01*
X187015677Y-72019685D01*
G37*
%TD.AperFunction*%
%TD*%
M02*
