%TF.GenerationSoftware,KiCad,Pcbnew,9.0.6*%
%TF.CreationDate,2026-01-24T19:44:13+08:00*%
%TF.ProjectId,TENG_module,54454e47-5f6d-46f6-9475-6c652e6b6963,rev?*%
%TF.SameCoordinates,Original*%
%TF.FileFunction,Copper,L1,Top*%
%TF.FilePolarity,Positive*%
%FSLAX46Y46*%
G04 Gerber Fmt 4.6, Leading zero omitted, Abs format (unit mm)*
G04 Created by KiCad (PCBNEW 9.0.6) date 2026-01-24 19:44:13*
%MOMM*%
%LPD*%
G01*
G04 APERTURE LIST*
G04 Aperture macros list*
%AMRoundRect*
0 Rectangle with rounded corners*
0 $1 Rounding radius*
0 $2 $3 $4 $5 $6 $7 $8 $9 X,Y pos of 4 corners*
0 Add a 4 corners polygon primitive as box body*
4,1,4,$2,$3,$4,$5,$6,$7,$8,$9,$2,$3,0*
0 Add four circle primitives for the rounded corners*
1,1,$1+$1,$2,$3*
1,1,$1+$1,$4,$5*
1,1,$1+$1,$6,$7*
1,1,$1+$1,$8,$9*
0 Add four rect primitives between the rounded corners*
20,1,$1+$1,$2,$3,$4,$5,0*
20,1,$1+$1,$4,$5,$6,$7,0*
20,1,$1+$1,$6,$7,$8,$9,0*
20,1,$1+$1,$8,$9,$2,$3,0*%
G04 Aperture macros list end*
%TA.AperFunction,SMDPad,CuDef*%
%ADD10C,1.700000*%
%TD*%
%TA.AperFunction,SMDPad,CuDef*%
%ADD11RoundRect,0.275000X-0.275000X0.975000X-0.275000X-0.975000X0.275000X-0.975000X0.275000X0.975000X0*%
%TD*%
%TA.AperFunction,SMDPad,CuDef*%
%ADD12RoundRect,0.275000X0.975000X0.275000X-0.975000X0.275000X-0.975000X-0.275000X0.975000X-0.275000X0*%
%TD*%
%TA.AperFunction,SMDPad,CuDef*%
%ADD13RoundRect,0.500000X-0.875000X-0.500000X0.875000X-0.500000X0.875000X0.500000X-0.875000X0.500000X0*%
%TD*%
%TA.AperFunction,SMDPad,CuDef*%
%ADD14R,2.500000X2.500000*%
%TD*%
%TA.AperFunction,SMDPad,CuDef*%
%ADD15RoundRect,0.225000X-0.225000X-0.250000X0.225000X-0.250000X0.225000X0.250000X-0.225000X0.250000X0*%
%TD*%
%TA.AperFunction,SMDPad,CuDef*%
%ADD16RoundRect,0.250000X0.450000X-0.262500X0.450000X0.262500X-0.450000X0.262500X-0.450000X-0.262500X0*%
%TD*%
%TA.AperFunction,SMDPad,CuDef*%
%ADD17RoundRect,0.200000X-0.275000X0.200000X-0.275000X-0.200000X0.275000X-0.200000X0.275000X0.200000X0*%
%TD*%
%TA.AperFunction,SMDPad,CuDef*%
%ADD18RoundRect,0.225000X0.225000X0.250000X-0.225000X0.250000X-0.225000X-0.250000X0.225000X-0.250000X0*%
%TD*%
%TA.AperFunction,SMDPad,CuDef*%
%ADD19RoundRect,0.225000X-0.250000X0.225000X-0.250000X-0.225000X0.250000X-0.225000X0.250000X0.225000X0*%
%TD*%
%TA.AperFunction,SMDPad,CuDef*%
%ADD20RoundRect,0.225000X0.250000X-0.225000X0.250000X0.225000X-0.250000X0.225000X-0.250000X-0.225000X0*%
%TD*%
%TA.AperFunction,SMDPad,CuDef*%
%ADD21RoundRect,0.200000X-0.200000X-0.275000X0.200000X-0.275000X0.200000X0.275000X-0.200000X0.275000X0*%
%TD*%
%TA.AperFunction,SMDPad,CuDef*%
%ADD22RoundRect,0.200000X0.200000X0.275000X-0.200000X0.275000X-0.200000X-0.275000X0.200000X-0.275000X0*%
%TD*%
%TA.AperFunction,SMDPad,CuDef*%
%ADD23R,2.500000X1.400000*%
%TD*%
%TA.AperFunction,SMDPad,CuDef*%
%ADD24RoundRect,0.150000X-0.825000X-0.150000X0.825000X-0.150000X0.825000X0.150000X-0.825000X0.150000X0*%
%TD*%
%TA.AperFunction,ViaPad*%
%ADD25C,0.600000*%
%TD*%
%TA.AperFunction,Conductor*%
%ADD26C,0.200000*%
%TD*%
%TA.AperFunction,Conductor*%
%ADD27C,0.500000*%
%TD*%
G04 APERTURE END LIST*
D10*
%TO.P,U2,22,GND*%
%TO.N,GND*%
X151160000Y-78591500D03*
%TO.P,U2,21,RESET*%
%TO.N,unconnected-(U2-RESET-Pad21)*%
X148620000Y-78591500D03*
%TO.P,U2,20,PA30_SWCLK*%
%TO.N,unconnected-(U2-PA30_SWCLK-Pad20)*%
X151160000Y-76051500D03*
%TO.P,U2,19,PA31_SWDIO*%
%TO.N,unconnected-(U2-PA31_SWDIO-Pad19)*%
X148620000Y-76051500D03*
D11*
%TO.P,U2,18,NFC2*%
%TO.N,unconnected-(U2-NFC2-Pad18)*%
X155605000Y-93856900D03*
%TO.P,U2,17,NFC1*%
%TO.N,unconnected-(U2-NFC1-Pad17)*%
X153700000Y-93856900D03*
D12*
%TO.P,U2,16,GND*%
%TO.N,GND*%
X145445000Y-82401500D03*
%TO.P,U2,15,BAT*%
%TO.N,Net-(U2-BAT)*%
X145445000Y-84306500D03*
D13*
%TO.P,U2,14,5V*%
%TO.N,unconnected-(U2-5V-Pad14)*%
X158000000Y-77000000D03*
%TO.P,U2,13,GND*%
%TO.N,GND*%
X158000000Y-79540000D03*
%TO.P,U2,12,3V3*%
%TO.N,3V3*%
X158000000Y-82080000D03*
%TO.P,U2,11,PA6_A10_D10_MOSI*%
%TO.N,unconnected-(U2-PA6_A10_D10_MOSI-Pad11)*%
X158000000Y-84620000D03*
%TO.P,U2,10,PA5_A9_D9_MISO*%
%TO.N,unconnected-(U2-PA5_A9_D9_MISO-Pad10)*%
X158000000Y-87160000D03*
%TO.P,U2,9,PA7_A8_D8_SCK*%
%TO.N,unconnected-(U2-PA7_A8_D8_SCK-Pad9)*%
X158000000Y-89700000D03*
%TO.P,U2,8,PB09_A7_D7_RX*%
%TO.N,unconnected-(U2-PB09_A7_D7_RX-Pad8)*%
X158000000Y-92240000D03*
%TO.P,U2,7,PB08_A6_D6_TX*%
%TO.N,unconnected-(U2-PB08_A6_D6_TX-Pad7)*%
X141835000Y-92240000D03*
%TO.P,U2,6,PA9_A5_D5_SCL*%
%TO.N,unconnected-(U2-PA9_A5_D5_SCL-Pad6)*%
X141835000Y-89700000D03*
%TO.P,U2,5,PA8_A4_D4_SDA*%
%TO.N,unconnected-(U2-PA8_A4_D4_SDA-Pad5)*%
X141835000Y-87160000D03*
%TO.P,U2,4,PA11_A3_D3*%
%TO.N,unconnected-(U2-PA11_A3_D3-Pad4)*%
X141835000Y-84620000D03*
%TO.P,U2,3,PA10_A2_D2*%
%TO.N,unconnected-(U2-PA10_A2_D2-Pad3)*%
X141835000Y-82080000D03*
%TO.P,U2,2,PA4_A1_D1*%
%TO.N,unconnected-(U2-PA4_A1_D1-Pad2)*%
X141835000Y-79540000D03*
%TO.P,U2,1,PA02_A0_D0*%
%TO.N,Net-(U2-PA02_A0_D0)*%
X141835000Y-77000000D03*
%TD*%
D14*
%TO.P,TP7,1,1*%
%TO.N,GND*%
X162000000Y-93000000D03*
%TD*%
%TO.P,TP6,1,1*%
%TO.N,Net-(U2-BAT)*%
X162000000Y-89000000D03*
%TD*%
D15*
%TO.P,C6,1*%
%TO.N,GND*%
X137450000Y-79792500D03*
%TO.P,C6,2*%
%TO.N,3V3*%
X139000000Y-79792500D03*
%TD*%
D16*
%TO.P,R2,1*%
%TO.N,Net-(U1A--)*%
X129000000Y-84792500D03*
%TO.P,R2,2*%
%TO.N,Net-(U1B-+)*%
X129000000Y-82967500D03*
%TD*%
D15*
%TO.P,C5,1*%
%TO.N,GND*%
X137450000Y-81792500D03*
%TO.P,C5,2*%
%TO.N,3V3*%
X139000000Y-81792500D03*
%TD*%
D17*
%TO.P,R5,1*%
%TO.N,Net-(U1B--)*%
X139000000Y-90000000D03*
%TO.P,R5,2*%
%TO.N,Net-(C4-Pad1)*%
X139000000Y-91650000D03*
%TD*%
D18*
%TO.P,C3,1*%
%TO.N,GND*%
X133775000Y-89697500D03*
%TO.P,C3,2*%
%TO.N,Net-(U1A-+)*%
X132225000Y-89697500D03*
%TD*%
D19*
%TO.P,C7,1*%
%TO.N,GND*%
X162000000Y-82450000D03*
%TO.P,C7,2*%
%TO.N,Net-(U2-BAT)*%
X162000000Y-84000000D03*
%TD*%
D20*
%TO.P,C2,1*%
%TO.N,Net-(U1A--)*%
X131000000Y-84792500D03*
%TO.P,C2,2*%
%TO.N,Net-(U1B-+)*%
X131000000Y-83242500D03*
%TD*%
D18*
%TO.P,C1,1*%
%TO.N,Net-(C1-Pad1)*%
X130775000Y-80792500D03*
%TO.P,C1,2*%
%TO.N,Net-(U1A--)*%
X129225000Y-80792500D03*
%TD*%
D21*
%TO.P,R3,1*%
%TO.N,Net-(U1A-+)*%
X132175000Y-93697500D03*
%TO.P,R3,2*%
%TO.N,3V3*%
X133825000Y-93697500D03*
%TD*%
%TO.P,R6,1*%
%TO.N,Net-(R6-Pad1)*%
X137175000Y-74792500D03*
%TO.P,R6,2*%
%TO.N,Net-(U2-PA02_A0_D0)*%
X138825000Y-74792500D03*
%TD*%
D22*
%TO.P,R4,1*%
%TO.N,GND*%
X133825000Y-91697500D03*
%TO.P,R4,2*%
%TO.N,Net-(U1A-+)*%
X132175000Y-91697500D03*
%TD*%
%TO.P,R1,1*%
%TO.N,Net-(J1-Pad1)*%
X134000000Y-80792500D03*
%TO.P,R1,2*%
%TO.N,Net-(C1-Pad1)*%
X132350000Y-80792500D03*
%TD*%
%TO.P,R7,1*%
%TO.N,Net-(U1B--)*%
X138825000Y-76792500D03*
%TO.P,R7,2*%
%TO.N,Net-(R6-Pad1)*%
X137175000Y-76792500D03*
%TD*%
D23*
%TO.P,J1,1,1*%
%TO.N,Net-(J1-Pad1)*%
X134000000Y-77792500D03*
%TO.P,J1,2*%
%TO.N,N/C*%
X127800000Y-77792500D03*
%TO.P,J1,3,2*%
%TO.N,GND*%
X134000000Y-74792500D03*
%TO.P,J1,4*%
%TO.N,N/C*%
X127800000Y-74792500D03*
%TD*%
D20*
%TO.P,C4,1*%
%TO.N,Net-(C4-Pad1)*%
X137000000Y-91600000D03*
%TO.P,C4,2*%
%TO.N,GND*%
X137000000Y-90050000D03*
%TD*%
D24*
%TO.P,U1,1*%
%TO.N,Net-(U1B-+)*%
X133050000Y-83792500D03*
%TO.P,U1,2,-*%
%TO.N,Net-(U1A--)*%
X133050000Y-85062500D03*
%TO.P,U1,3,+*%
%TO.N,Net-(U1A-+)*%
X133050000Y-86332500D03*
%TO.P,U1,4,V-*%
%TO.N,GND*%
X133050000Y-87602500D03*
%TO.P,U1,5,+*%
%TO.N,Net-(U1B-+)*%
X138000000Y-87602500D03*
%TO.P,U1,6,-*%
%TO.N,Net-(U1B--)*%
X138000000Y-86332500D03*
%TO.P,U1,7*%
%TO.N,Net-(R6-Pad1)*%
X138000000Y-85062500D03*
%TO.P,U1,8,V+*%
%TO.N,3V3*%
X138000000Y-83792500D03*
%TD*%
D25*
%TO.N,GND*%
X155000000Y-77000000D03*
X159000000Y-95000000D03*
X133000000Y-82000000D03*
X136000000Y-73000000D03*
X139000000Y-78000000D03*
X135000000Y-90000000D03*
X128000000Y-91000000D03*
X152000000Y-94000000D03*
X143000000Y-94000000D03*
X145000000Y-80500000D03*
X150500000Y-91000000D03*
X149850000Y-73575000D03*
X145500000Y-91000000D03*
%TO.N,3V3*%
X139960000Y-79000679D03*
X150000000Y-82000000D03*
X135000000Y-94000000D03*
%TO.N,Net-(R6-Pad1)*%
X137000000Y-78792500D03*
X140000000Y-83792500D03*
%TO.N,Net-(U2-BAT)*%
X155000000Y-85000000D03*
X160000000Y-85000000D03*
%TD*%
D26*
%TO.N,Net-(U1A--)*%
X127999000Y-83791500D02*
X129000000Y-84792500D01*
X132780000Y-84792500D02*
X133050000Y-85062500D01*
X129225000Y-80792500D02*
X127999000Y-82018500D01*
X127999000Y-82018500D02*
X127999000Y-83791500D01*
X129000000Y-84792500D02*
X131000000Y-84792500D01*
X131000000Y-84792500D02*
X132780000Y-84792500D01*
%TO.N,Net-(C1-Pad1)*%
X132350000Y-80792500D02*
X130775000Y-80792500D01*
%TO.N,Net-(U1B-+)*%
X133843032Y-83792500D02*
X137653032Y-87602500D01*
X130725000Y-82967500D02*
X131000000Y-83242500D01*
X131000000Y-83242500D02*
X132500000Y-83242500D01*
X132500000Y-83242500D02*
X133050000Y-83792500D01*
X133050000Y-83792500D02*
X133843032Y-83792500D01*
X137653032Y-87602500D02*
X138000000Y-87602500D01*
X129000000Y-82967500D02*
X130725000Y-82967500D01*
%TO.N,Net-(U1A-+)*%
X131774000Y-89246500D02*
X131774000Y-86633501D01*
X131774000Y-86633501D02*
X132075001Y-86332500D01*
X132075001Y-86332500D02*
X133050000Y-86332500D01*
X132225000Y-91647500D02*
X132175000Y-91697500D01*
X132225000Y-89697500D02*
X132225000Y-91647500D01*
X132175000Y-93697500D02*
X132175000Y-91697500D01*
X132225000Y-89697500D02*
X131774000Y-89246500D01*
%TO.N,GND*%
X152108500Y-79540000D02*
X151160000Y-78591500D01*
X158000000Y-79540000D02*
X152108500Y-79540000D01*
%TO.N,Net-(C4-Pad1)*%
X139000000Y-91650000D02*
X137050000Y-91650000D01*
X137050000Y-91650000D02*
X137000000Y-91600000D01*
D27*
%TO.N,3V3*%
X158000000Y-82080000D02*
X150080000Y-82080000D01*
X133825000Y-93697500D02*
X134697500Y-93697500D01*
X150080000Y-82080000D02*
X150000000Y-82000000D01*
X139960000Y-79000679D02*
X139791821Y-79000679D01*
X134697500Y-93697500D02*
X135000000Y-94000000D01*
X139000000Y-79792500D02*
X139000000Y-82792500D01*
D26*
X157920000Y-82080000D02*
X158000000Y-82000000D01*
D27*
X139000000Y-82792500D02*
X138000000Y-83792500D01*
X139791821Y-79000679D02*
X139000000Y-79792500D01*
D26*
%TO.N,Net-(U1B--)*%
X138201000Y-82496500D02*
X137506000Y-83191500D01*
X136157566Y-84017966D02*
X136157566Y-85220066D01*
X137270000Y-86332500D02*
X138000000Y-86332500D01*
X139276000Y-89724000D02*
X139276000Y-86633501D01*
X139276000Y-86633501D02*
X138974999Y-86332500D01*
X136157566Y-85220066D02*
X137270000Y-86332500D01*
X137506000Y-83191500D02*
X136984032Y-83191500D01*
X136984032Y-83191500D02*
X136157566Y-84017966D01*
X138974999Y-86332500D02*
X138000000Y-86332500D01*
X139000000Y-90000000D02*
X139276000Y-89724000D01*
X138000000Y-86332500D02*
X137206968Y-86332500D01*
X138201000Y-77416500D02*
X138201000Y-82496500D01*
X138825000Y-76792500D02*
X138201000Y-77416500D01*
%TO.N,Net-(U2-PA02_A0_D0)*%
X139627500Y-74792500D02*
X141835000Y-77000000D01*
X138825000Y-74792500D02*
X139627500Y-74792500D01*
%TO.N,Net-(R6-Pad1)*%
X137000000Y-78792500D02*
X137175000Y-78617500D01*
X138000000Y-85062500D02*
X138730000Y-85062500D01*
X138730000Y-85062500D02*
X140000000Y-83792500D01*
X137175000Y-76792500D02*
X137175000Y-74792500D01*
X137175000Y-78617500D02*
X137175000Y-76792500D01*
D27*
%TO.N,Net-(U2-BAT)*%
X162000000Y-86000000D02*
X161000000Y-85000000D01*
X146138500Y-85000000D02*
X155000000Y-85000000D01*
X160000000Y-85000000D02*
X161000000Y-85000000D01*
X161000000Y-85000000D02*
X162000000Y-84000000D01*
X145445000Y-84306500D02*
X146138500Y-85000000D01*
X162000000Y-89000000D02*
X162000000Y-86000000D01*
D26*
%TO.N,Net-(J1-Pad1)*%
X134000000Y-77792500D02*
X134000000Y-80792500D01*
%TD*%
%TA.AperFunction,Conductor*%
%TO.N,GND*%
G36*
X163015677Y-72019685D02*
G01*
X163036319Y-72036319D01*
X163977374Y-72977374D01*
X164000000Y-73000000D01*
X164000000Y-95000000D01*
X163036319Y-95963681D01*
X162974996Y-95997166D01*
X162948638Y-96000000D01*
X151124000Y-96000000D01*
X151056961Y-95980315D01*
X151011206Y-95927511D01*
X151000000Y-95876000D01*
X151000000Y-94000000D01*
X150418199Y-92836398D01*
X152949500Y-92836398D01*
X152949500Y-94877381D01*
X152949501Y-94877390D01*
X152955587Y-94934014D01*
X152993746Y-95036319D01*
X153003372Y-95062126D01*
X153085313Y-95171587D01*
X153194774Y-95253528D01*
X153322886Y-95301312D01*
X153379515Y-95307400D01*
X154020484Y-95307399D01*
X154077114Y-95301312D01*
X154205226Y-95253528D01*
X154314687Y-95171587D01*
X154396628Y-95062126D01*
X154444412Y-94934014D01*
X154446687Y-94912844D01*
X154450499Y-94877401D01*
X154450499Y-94877390D01*
X154450500Y-94877385D01*
X154450499Y-92836416D01*
X154444412Y-92779786D01*
X154396628Y-92651674D01*
X154314687Y-92542213D01*
X154248911Y-92492974D01*
X154205228Y-92460273D01*
X154205226Y-92460272D01*
X154077114Y-92412488D01*
X154077112Y-92412487D01*
X154077110Y-92412487D01*
X154020493Y-92406400D01*
X153379518Y-92406400D01*
X153379509Y-92406401D01*
X153322885Y-92412487D01*
X153194773Y-92460272D01*
X153085313Y-92542213D01*
X153003373Y-92651671D01*
X152955587Y-92779789D01*
X152949500Y-92836398D01*
X150418199Y-92836398D01*
X150206244Y-92412487D01*
X150000001Y-92000001D01*
X150000000Y-92000000D01*
X145000000Y-92000000D01*
X144999999Y-92000000D01*
X144999998Y-92000001D01*
X144000000Y-93999999D01*
X144000000Y-95876000D01*
X143980315Y-95943039D01*
X143927511Y-95988794D01*
X143876000Y-96000000D01*
X128051362Y-96000000D01*
X127984323Y-95980315D01*
X127963681Y-95963681D01*
X127036319Y-95036319D01*
X127002834Y-94974996D01*
X127000000Y-94948638D01*
X127000000Y-86593939D01*
X131473500Y-86593939D01*
X131473500Y-89286062D01*
X131487152Y-89337013D01*
X131493979Y-89362490D01*
X131511542Y-89392909D01*
X131513904Y-89397000D01*
X131533540Y-89431011D01*
X131546347Y-89443818D01*
X131552864Y-89453350D01*
X131560234Y-89476040D01*
X131571666Y-89496975D01*
X131573957Y-89518283D01*
X131574450Y-89519801D01*
X131574215Y-89520691D01*
X131574500Y-89523333D01*
X131574500Y-89980993D01*
X131590279Y-90080621D01*
X131590280Y-90080624D01*
X131590281Y-90080626D01*
X131597659Y-90095106D01*
X131651473Y-90200721D01*
X131651476Y-90200725D01*
X131746774Y-90296023D01*
X131746776Y-90296024D01*
X131746780Y-90296028D01*
X131856796Y-90352084D01*
X131907591Y-90400058D01*
X131924500Y-90462568D01*
X131924500Y-90922752D01*
X131904815Y-90989791D01*
X131856795Y-91033237D01*
X131849696Y-91036853D01*
X131849696Y-91036854D01*
X131736658Y-91094450D01*
X131736657Y-91094451D01*
X131736652Y-91094454D01*
X131646954Y-91184152D01*
X131646952Y-91184156D01*
X131646950Y-91184158D01*
X131632938Y-91211658D01*
X131589352Y-91297198D01*
X131574500Y-91390975D01*
X131574500Y-92004017D01*
X131585292Y-92072157D01*
X131589354Y-92097804D01*
X131646950Y-92210842D01*
X131646952Y-92210844D01*
X131646954Y-92210847D01*
X131736652Y-92300545D01*
X131736654Y-92300546D01*
X131736658Y-92300550D01*
X131806796Y-92336287D01*
X131857591Y-92384261D01*
X131874500Y-92446771D01*
X131874500Y-92948228D01*
X131854815Y-93015267D01*
X131806796Y-93058712D01*
X131736659Y-93094449D01*
X131736652Y-93094454D01*
X131646954Y-93184152D01*
X131646951Y-93184157D01*
X131646950Y-93184158D01*
X131627751Y-93221837D01*
X131589352Y-93297198D01*
X131574500Y-93390975D01*
X131574500Y-94004017D01*
X131584300Y-94065890D01*
X131589354Y-94097804D01*
X131646950Y-94210842D01*
X131646952Y-94210844D01*
X131646954Y-94210847D01*
X131736652Y-94300545D01*
X131736654Y-94300546D01*
X131736658Y-94300550D01*
X131848177Y-94357372D01*
X131849698Y-94358147D01*
X131943475Y-94372999D01*
X131943481Y-94373000D01*
X132406518Y-94372999D01*
X132500304Y-94358146D01*
X132613342Y-94300550D01*
X132703050Y-94210842D01*
X132760646Y-94097804D01*
X132760646Y-94097802D01*
X132760647Y-94097801D01*
X132775499Y-94004024D01*
X132775500Y-94004019D01*
X132775499Y-93390982D01*
X132775498Y-93390975D01*
X133224500Y-93390975D01*
X133224500Y-94004017D01*
X133234300Y-94065890D01*
X133239354Y-94097804D01*
X133296950Y-94210842D01*
X133296952Y-94210844D01*
X133296954Y-94210847D01*
X133386652Y-94300545D01*
X133386654Y-94300546D01*
X133386658Y-94300550D01*
X133498177Y-94357372D01*
X133499698Y-94358147D01*
X133593475Y-94372999D01*
X133593481Y-94373000D01*
X134056518Y-94372999D01*
X134150304Y-94358146D01*
X134263342Y-94300550D01*
X134353050Y-94210842D01*
X134353051Y-94210839D01*
X134359713Y-94204178D01*
X134421036Y-94170693D01*
X134490728Y-94175677D01*
X134546662Y-94217548D01*
X134554780Y-94229857D01*
X134599500Y-94307314D01*
X134692686Y-94400500D01*
X134806814Y-94466392D01*
X134934108Y-94500500D01*
X134934110Y-94500500D01*
X135065890Y-94500500D01*
X135065892Y-94500500D01*
X135193186Y-94466392D01*
X135307314Y-94400500D01*
X135400500Y-94307314D01*
X135466392Y-94193186D01*
X135500500Y-94065892D01*
X135500500Y-93934108D01*
X135466392Y-93806814D01*
X135400500Y-93692686D01*
X135307314Y-93599500D01*
X135193186Y-93533608D01*
X135193183Y-93533606D01*
X135185672Y-93530495D01*
X135186224Y-93529160D01*
X135138990Y-93501886D01*
X134974116Y-93337013D01*
X134974114Y-93337011D01*
X134922750Y-93307356D01*
X134871388Y-93277701D01*
X134859280Y-93274457D01*
X134847173Y-93271213D01*
X134847170Y-93271212D01*
X134808978Y-93260978D01*
X134756809Y-93247000D01*
X134756808Y-93247000D01*
X134461057Y-93247000D01*
X134394018Y-93227315D01*
X134360793Y-93190593D01*
X134358786Y-93192052D01*
X134353050Y-93184157D01*
X134263347Y-93094454D01*
X134263344Y-93094452D01*
X134263342Y-93094450D01*
X134186517Y-93055305D01*
X134150301Y-93036852D01*
X134056524Y-93022000D01*
X133593482Y-93022000D01*
X133512519Y-93034823D01*
X133499696Y-93036854D01*
X133386658Y-93094450D01*
X133386657Y-93094451D01*
X133386652Y-93094454D01*
X133296954Y-93184152D01*
X133296951Y-93184157D01*
X133296950Y-93184158D01*
X133277751Y-93221837D01*
X133239352Y-93297198D01*
X133224500Y-93390975D01*
X132775498Y-93390975D01*
X132760646Y-93297196D01*
X132703050Y-93184158D01*
X132703046Y-93184154D01*
X132703045Y-93184152D01*
X132613347Y-93094454D01*
X132613343Y-93094451D01*
X132613342Y-93094450D01*
X132611582Y-93093553D01*
X132543204Y-93058712D01*
X132492408Y-93010737D01*
X132475500Y-92948228D01*
X132475500Y-92446771D01*
X132495185Y-92379732D01*
X132543203Y-92336287D01*
X132613342Y-92300550D01*
X132703050Y-92210842D01*
X132727995Y-92161884D01*
X132775967Y-92111091D01*
X132843788Y-92094296D01*
X132909923Y-92116833D01*
X132953375Y-92171548D01*
X132956863Y-92181291D01*
X132981981Y-92261896D01*
X133069927Y-92407377D01*
X133190122Y-92527572D01*
X133335604Y-92615519D01*
X133335603Y-92615519D01*
X133497894Y-92666090D01*
X133497893Y-92666090D01*
X133568408Y-92672498D01*
X133568426Y-92672499D01*
X134075000Y-92672499D01*
X134081581Y-92672499D01*
X134152102Y-92666091D01*
X134152107Y-92666090D01*
X134314396Y-92615518D01*
X134459877Y-92527572D01*
X134580072Y-92407377D01*
X134668019Y-92261895D01*
X134718590Y-92099606D01*
X134725000Y-92029072D01*
X134725000Y-91947500D01*
X134075000Y-91947500D01*
X134075000Y-92672499D01*
X133568426Y-92672499D01*
X133574999Y-92672498D01*
X133575000Y-92672498D01*
X133575000Y-90802500D01*
X133561319Y-90788819D01*
X133527834Y-90727496D01*
X133525000Y-90701138D01*
X133525000Y-90592500D01*
X134025000Y-90592500D01*
X134038681Y-90606181D01*
X134072166Y-90667504D01*
X134075000Y-90693862D01*
X134075000Y-91447500D01*
X134724999Y-91447500D01*
X134724999Y-91365917D01*
X134718591Y-91295397D01*
X134718590Y-91295392D01*
X134668018Y-91133103D01*
X134580072Y-90987622D01*
X134459877Y-90867427D01*
X134345639Y-90798368D01*
X134298452Y-90746840D01*
X134286613Y-90677981D01*
X134313882Y-90613652D01*
X134344692Y-90586712D01*
X134452733Y-90520071D01*
X134572572Y-90400232D01*
X134572575Y-90400228D01*
X134620012Y-90323322D01*
X136025001Y-90323322D01*
X136035144Y-90422607D01*
X136088452Y-90583481D01*
X136088457Y-90583492D01*
X136177424Y-90727728D01*
X136177427Y-90727732D01*
X136297266Y-90847571D01*
X136397840Y-90909606D01*
X136444564Y-90961554D01*
X136455787Y-91030517D01*
X136427943Y-91094599D01*
X136420426Y-91102825D01*
X136401473Y-91121778D01*
X136340279Y-91241878D01*
X136324500Y-91341506D01*
X136324500Y-91858493D01*
X136340279Y-91958121D01*
X136340280Y-91958124D01*
X136340281Y-91958126D01*
X136370893Y-92018205D01*
X136401473Y-92078221D01*
X136401476Y-92078225D01*
X136496774Y-92173523D01*
X136496778Y-92173526D01*
X136496780Y-92173528D01*
X136616874Y-92234719D01*
X136616876Y-92234719D01*
X136616878Y-92234720D01*
X136716507Y-92250500D01*
X136716512Y-92250500D01*
X137283493Y-92250500D01*
X137383121Y-92234720D01*
X137383121Y-92234719D01*
X137383126Y-92234719D01*
X137503220Y-92173528D01*
X137598528Y-92078220D01*
X137599912Y-92075503D01*
X137629108Y-92018205D01*
X137677082Y-91967409D01*
X137739592Y-91950500D01*
X138250728Y-91950500D01*
X138317767Y-91970185D01*
X138361212Y-92018204D01*
X138396949Y-92088340D01*
X138396954Y-92088347D01*
X138486652Y-92178045D01*
X138486654Y-92178046D01*
X138486658Y-92178050D01*
X138597877Y-92234719D01*
X138599698Y-92235647D01*
X138693475Y-92250499D01*
X138693481Y-92250500D01*
X139306518Y-92250499D01*
X139400304Y-92235646D01*
X139513342Y-92178050D01*
X139603050Y-92088342D01*
X139660646Y-91975304D01*
X139660646Y-91975302D01*
X139660647Y-91975301D01*
X139675499Y-91881524D01*
X139675500Y-91881519D01*
X139675499Y-91418482D01*
X139660646Y-91324696D01*
X139603050Y-91211658D01*
X139603046Y-91211654D01*
X139603045Y-91211652D01*
X139513347Y-91121954D01*
X139513344Y-91121952D01*
X139513342Y-91121950D01*
X139420790Y-91074792D01*
X139400301Y-91064352D01*
X139306524Y-91049500D01*
X138693482Y-91049500D01*
X138612519Y-91062323D01*
X138599696Y-91064354D01*
X138486658Y-91121950D01*
X138486657Y-91121951D01*
X138486652Y-91121954D01*
X138396954Y-91211652D01*
X138396951Y-91211657D01*
X138396950Y-91211658D01*
X138361212Y-91281796D01*
X138313239Y-91332591D01*
X138250729Y-91349500D01*
X137782672Y-91349500D01*
X137715633Y-91329815D01*
X137673960Y-91285147D01*
X137663574Y-91266219D01*
X137659719Y-91241874D01*
X137598528Y-91121780D01*
X137567058Y-91090310D01*
X137558544Y-91074792D01*
X137554692Y-91057256D01*
X137546090Y-91041503D01*
X137547352Y-91023843D01*
X137543554Y-91006549D01*
X137549793Y-90989716D01*
X137551074Y-90971811D01*
X137561685Y-90957635D01*
X137567839Y-90941036D01*
X137582187Y-90930249D01*
X137592946Y-90915878D01*
X137602160Y-90909606D01*
X137702731Y-90847573D01*
X137822572Y-90727732D01*
X137822575Y-90727728D01*
X137911542Y-90583492D01*
X137911547Y-90583481D01*
X137964855Y-90422606D01*
X137974999Y-90323322D01*
X137975000Y-90323309D01*
X137975000Y-90300000D01*
X136025001Y-90300000D01*
X136025001Y-90323322D01*
X134620012Y-90323322D01*
X134661542Y-90255992D01*
X134661548Y-90255979D01*
X134676905Y-90209635D01*
X134676905Y-90209634D01*
X134714855Y-90095106D01*
X134724999Y-89995822D01*
X134725000Y-89995809D01*
X134725000Y-89947500D01*
X134025000Y-89947500D01*
X134025000Y-90592500D01*
X133525000Y-90592500D01*
X133525000Y-89776677D01*
X136025000Y-89776677D01*
X136025000Y-89800000D01*
X136750000Y-89800000D01*
X137250000Y-89800000D01*
X137974999Y-89800000D01*
X137974999Y-89776692D01*
X137974998Y-89776677D01*
X137964855Y-89677392D01*
X137911547Y-89516518D01*
X137911542Y-89516507D01*
X137822575Y-89372271D01*
X137822572Y-89372267D01*
X137702732Y-89252427D01*
X137702728Y-89252424D01*
X137558492Y-89163457D01*
X137558481Y-89163452D01*
X137397606Y-89110144D01*
X137298322Y-89100000D01*
X137250000Y-89100000D01*
X137250000Y-89800000D01*
X136750000Y-89800000D01*
X136750000Y-89100000D01*
X136749999Y-89099999D01*
X136701693Y-89100000D01*
X136701675Y-89100001D01*
X136602392Y-89110144D01*
X136441518Y-89163452D01*
X136441507Y-89163457D01*
X136297271Y-89252424D01*
X136297267Y-89252427D01*
X136177427Y-89372267D01*
X136177424Y-89372271D01*
X136088457Y-89516507D01*
X136088452Y-89516518D01*
X136035144Y-89677393D01*
X136025000Y-89776677D01*
X133525000Y-89776677D01*
X133525000Y-89447500D01*
X134025000Y-89447500D01*
X134724999Y-89447500D01*
X134724999Y-89399192D01*
X134724998Y-89399177D01*
X134714855Y-89299892D01*
X134661547Y-89139018D01*
X134661542Y-89139007D01*
X134572575Y-88994771D01*
X134572572Y-88994767D01*
X134452732Y-88874927D01*
X134452728Y-88874924D01*
X134308492Y-88785957D01*
X134308481Y-88785952D01*
X134147606Y-88732644D01*
X134048322Y-88722500D01*
X134025000Y-88722500D01*
X134025000Y-89447500D01*
X133525000Y-89447500D01*
X133525000Y-88722499D01*
X133501693Y-88722500D01*
X133501674Y-88722501D01*
X133402392Y-88732644D01*
X133241518Y-88785952D01*
X133241507Y-88785957D01*
X133097271Y-88874924D01*
X133097267Y-88874927D01*
X132977426Y-88994768D01*
X132915392Y-89095341D01*
X132863444Y-89142065D01*
X132794481Y-89153286D01*
X132730399Y-89125443D01*
X132722173Y-89117924D01*
X132703225Y-89098976D01*
X132703221Y-89098973D01*
X132703220Y-89098972D01*
X132583126Y-89037781D01*
X132583124Y-89037780D01*
X132583121Y-89037779D01*
X132483493Y-89022000D01*
X132483488Y-89022000D01*
X132198500Y-89022000D01*
X132131461Y-89002315D01*
X132085706Y-88949511D01*
X132074500Y-88898000D01*
X132074500Y-88526500D01*
X132094185Y-88459461D01*
X132146989Y-88413706D01*
X132198500Y-88402500D01*
X132800000Y-88402500D01*
X133300000Y-88402500D01*
X133940634Y-88402500D01*
X133940649Y-88402499D01*
X133977489Y-88399600D01*
X133977495Y-88399599D01*
X134135193Y-88353783D01*
X134135196Y-88353782D01*
X134276552Y-88270185D01*
X134276561Y-88270178D01*
X134392678Y-88154061D01*
X134392685Y-88154052D01*
X134476281Y-88012698D01*
X134522100Y-87854986D01*
X134522295Y-87852501D01*
X134522295Y-87852500D01*
X133300000Y-87852500D01*
X133300000Y-88402500D01*
X132800000Y-88402500D01*
X132800000Y-87852500D01*
X132198500Y-87852500D01*
X132131461Y-87832815D01*
X132085706Y-87780011D01*
X132074500Y-87728500D01*
X132074500Y-87476500D01*
X132094185Y-87409461D01*
X132146989Y-87363706D01*
X132198500Y-87352500D01*
X134522295Y-87352500D01*
X134522295Y-87352498D01*
X134522100Y-87350013D01*
X134476281Y-87192301D01*
X134392685Y-87050947D01*
X134392678Y-87050938D01*
X134276561Y-86934821D01*
X134276552Y-86934814D01*
X134189074Y-86883080D01*
X134141390Y-86832011D01*
X134128887Y-86763269D01*
X134155532Y-86698680D01*
X134164074Y-86689156D01*
X134164195Y-86688986D01*
X134164198Y-86688983D01*
X134215573Y-86583893D01*
X134225500Y-86515760D01*
X134225500Y-86149240D01*
X134215573Y-86081107D01*
X134164198Y-85976017D01*
X134164196Y-85976015D01*
X134164196Y-85976014D01*
X134081485Y-85893303D01*
X133976391Y-85841926D01*
X133908261Y-85832000D01*
X133908260Y-85832000D01*
X132191740Y-85832000D01*
X132191739Y-85832000D01*
X132123608Y-85841926D01*
X132018514Y-85893303D01*
X131935803Y-85976014D01*
X131880198Y-86089758D01*
X131878357Y-86088858D01*
X131855104Y-86127425D01*
X131589489Y-86393041D01*
X131533541Y-86448988D01*
X131533535Y-86448996D01*
X131493982Y-86517505D01*
X131493979Y-86517510D01*
X131480326Y-86568463D01*
X131473500Y-86593939D01*
X127000000Y-86593939D01*
X127000000Y-81978938D01*
X127698500Y-81978938D01*
X127698500Y-83831062D01*
X127699143Y-83833461D01*
X127718978Y-83907487D01*
X127738149Y-83940692D01*
X127758539Y-83976009D01*
X127758541Y-83976012D01*
X128079784Y-84297255D01*
X128113269Y-84358578D01*
X128109146Y-84425886D01*
X128102355Y-84445296D01*
X128102353Y-84445305D01*
X128099500Y-84475730D01*
X128099500Y-85109269D01*
X128102353Y-85139699D01*
X128102353Y-85139701D01*
X128147206Y-85267880D01*
X128147207Y-85267882D01*
X128227850Y-85377150D01*
X128337118Y-85457793D01*
X128379845Y-85472744D01*
X128465299Y-85502646D01*
X128495730Y-85505500D01*
X128495734Y-85505500D01*
X129504270Y-85505500D01*
X129534699Y-85502646D01*
X129534701Y-85502646D01*
X129598790Y-85480219D01*
X129662882Y-85457793D01*
X129772150Y-85377150D01*
X129852793Y-85267882D01*
X129878930Y-85193186D01*
X129884929Y-85176044D01*
X129898548Y-85157055D01*
X129908257Y-85135797D01*
X129918532Y-85129193D01*
X129925651Y-85119269D01*
X129947374Y-85110657D01*
X129967035Y-85098023D01*
X129986201Y-85095267D01*
X129990604Y-85093522D01*
X130001970Y-85093000D01*
X130234932Y-85093000D01*
X130301971Y-85112685D01*
X130345415Y-85160703D01*
X130401472Y-85270720D01*
X130401474Y-85270722D01*
X130401476Y-85270725D01*
X130496774Y-85366023D01*
X130496778Y-85366026D01*
X130496780Y-85366028D01*
X130616874Y-85427219D01*
X130616876Y-85427219D01*
X130616878Y-85427220D01*
X130716507Y-85443000D01*
X130716512Y-85443000D01*
X131283493Y-85443000D01*
X131383121Y-85427220D01*
X131383121Y-85427219D01*
X131383126Y-85427219D01*
X131503220Y-85366028D01*
X131598528Y-85270720D01*
X131640016Y-85189294D01*
X131687989Y-85138499D01*
X131755810Y-85121704D01*
X131821945Y-85144241D01*
X131865397Y-85198956D01*
X131873665Y-85241316D01*
X131874175Y-85241280D01*
X131874480Y-85245488D01*
X131874500Y-85245590D01*
X131874500Y-85245760D01*
X131884426Y-85313891D01*
X131935803Y-85418985D01*
X132018514Y-85501696D01*
X132018515Y-85501696D01*
X132018517Y-85501698D01*
X132123607Y-85553073D01*
X132157673Y-85558036D01*
X132191739Y-85563000D01*
X132191740Y-85563000D01*
X133908261Y-85563000D01*
X133930971Y-85559691D01*
X133976393Y-85553073D01*
X134081483Y-85501698D01*
X134164198Y-85418983D01*
X134215573Y-85313893D01*
X134225500Y-85245760D01*
X134225500Y-84899301D01*
X134245185Y-84832262D01*
X134297989Y-84786507D01*
X134367147Y-84776563D01*
X134430703Y-84805588D01*
X134437181Y-84811620D01*
X136818528Y-87192967D01*
X136852013Y-87254290D01*
X136847029Y-87323982D01*
X136842250Y-87335104D01*
X136834427Y-87351106D01*
X136834425Y-87351111D01*
X136824500Y-87419239D01*
X136824500Y-87785760D01*
X136834426Y-87853891D01*
X136885803Y-87958985D01*
X136968514Y-88041696D01*
X136968515Y-88041696D01*
X136968517Y-88041698D01*
X137073607Y-88093073D01*
X137107673Y-88098036D01*
X137141739Y-88103000D01*
X138851500Y-88103000D01*
X138918539Y-88122685D01*
X138964294Y-88175489D01*
X138975500Y-88227000D01*
X138975500Y-89275500D01*
X138955815Y-89342539D01*
X138903011Y-89388294D01*
X138851501Y-89399500D01*
X138693482Y-89399500D01*
X138612519Y-89412323D01*
X138599696Y-89414354D01*
X138486658Y-89471950D01*
X138486657Y-89471951D01*
X138486652Y-89471954D01*
X138396954Y-89561652D01*
X138396951Y-89561657D01*
X138339352Y-89674698D01*
X138324500Y-89768475D01*
X138324500Y-90231517D01*
X138335292Y-90299657D01*
X138339354Y-90325304D01*
X138396950Y-90438342D01*
X138396952Y-90438344D01*
X138396954Y-90438347D01*
X138486652Y-90528045D01*
X138486654Y-90528046D01*
X138486658Y-90528050D01*
X138595447Y-90583481D01*
X138599698Y-90585647D01*
X138693475Y-90600499D01*
X138693481Y-90600500D01*
X139306518Y-90600499D01*
X139400304Y-90585646D01*
X139513342Y-90528050D01*
X139603050Y-90438342D01*
X139660646Y-90325304D01*
X139660646Y-90325302D01*
X139660647Y-90325301D01*
X139673588Y-90243590D01*
X139675500Y-90231519D01*
X139675499Y-89768482D01*
X139660646Y-89674696D01*
X139603050Y-89561658D01*
X139603048Y-89561656D01*
X139603047Y-89561654D01*
X139600177Y-89557703D01*
X139576702Y-89491895D01*
X139576500Y-89484824D01*
X139576500Y-86593941D01*
X139576500Y-86593940D01*
X139576500Y-86593939D01*
X139560119Y-86532804D01*
X139556022Y-86517513D01*
X139516460Y-86448990D01*
X139194895Y-86127425D01*
X139171645Y-86088857D01*
X139169802Y-86089759D01*
X139165573Y-86081108D01*
X139165573Y-86081107D01*
X139114198Y-85976017D01*
X139114196Y-85976015D01*
X139114196Y-85976014D01*
X139031485Y-85893303D01*
X138926391Y-85841926D01*
X138858261Y-85832000D01*
X138858260Y-85832000D01*
X137245833Y-85832000D01*
X137216392Y-85823355D01*
X137186406Y-85816832D01*
X137181390Y-85813077D01*
X137178794Y-85812315D01*
X137158152Y-85795681D01*
X137137152Y-85774681D01*
X137103667Y-85713358D01*
X137108651Y-85643666D01*
X137150523Y-85587733D01*
X137215987Y-85563316D01*
X137224833Y-85563000D01*
X138858261Y-85563000D01*
X138880971Y-85559691D01*
X138926393Y-85553073D01*
X139031483Y-85501698D01*
X139114198Y-85418983D01*
X139165573Y-85313893D01*
X139175500Y-85245760D01*
X139175500Y-85093332D01*
X139195185Y-85026293D01*
X139211815Y-85005655D01*
X139888151Y-84329318D01*
X139910407Y-84317165D01*
X139930439Y-84301607D01*
X139943403Y-84299148D01*
X139949474Y-84295834D01*
X139964788Y-84293493D01*
X139970301Y-84293000D01*
X140065892Y-84293000D01*
X140113773Y-84280170D01*
X140124456Y-84279215D01*
X140148624Y-84284023D01*
X140173255Y-84284610D01*
X140182285Y-84290721D01*
X140192982Y-84292850D01*
X140210712Y-84309960D01*
X140231118Y-84323771D01*
X140235411Y-84333796D01*
X140243258Y-84341369D01*
X140248923Y-84365349D01*
X140258623Y-84388000D01*
X140259500Y-84402722D01*
X140259500Y-85176613D01*
X140265913Y-85247192D01*
X140265913Y-85247194D01*
X140265914Y-85247196D01*
X140316522Y-85409606D01*
X140353143Y-85470185D01*
X140404530Y-85555188D01*
X140524811Y-85675469D01*
X140524813Y-85675470D01*
X140524815Y-85675472D01*
X140670394Y-85763478D01*
X140670397Y-85763479D01*
X140670396Y-85763479D01*
X140696505Y-85771615D01*
X140754653Y-85810352D01*
X140782627Y-85874378D01*
X140771545Y-85943363D01*
X140724927Y-85995406D01*
X140696505Y-86008385D01*
X140670397Y-86016520D01*
X140524811Y-86104530D01*
X140404530Y-86224811D01*
X140316522Y-86370393D01*
X140265913Y-86532807D01*
X140259500Y-86603386D01*
X140259500Y-87716613D01*
X140265913Y-87787192D01*
X140265913Y-87787194D01*
X140265914Y-87787196D01*
X140316522Y-87949606D01*
X140388738Y-88069066D01*
X140404530Y-88095188D01*
X140524811Y-88215469D01*
X140524813Y-88215470D01*
X140524815Y-88215472D01*
X140670394Y-88303478D01*
X140670397Y-88303479D01*
X140670396Y-88303479D01*
X140696505Y-88311615D01*
X140754653Y-88350352D01*
X140782627Y-88414378D01*
X140771545Y-88483363D01*
X140724927Y-88535406D01*
X140696505Y-88548385D01*
X140670397Y-88556520D01*
X140524811Y-88644530D01*
X140404530Y-88764811D01*
X140316522Y-88910393D01*
X140265913Y-89072807D01*
X140259500Y-89143386D01*
X140259500Y-90256613D01*
X140265913Y-90327192D01*
X140265913Y-90327194D01*
X140265914Y-90327196D01*
X140316522Y-90489606D01*
X140386994Y-90606181D01*
X140404530Y-90635188D01*
X140524811Y-90755469D01*
X140524813Y-90755470D01*
X140524815Y-90755472D01*
X140670394Y-90843478D01*
X140670397Y-90843479D01*
X140670396Y-90843479D01*
X140696505Y-90851615D01*
X140754653Y-90890352D01*
X140782627Y-90954378D01*
X140771545Y-91023363D01*
X140724927Y-91075406D01*
X140696505Y-91088385D01*
X140670397Y-91096520D01*
X140524811Y-91184530D01*
X140404530Y-91304811D01*
X140316522Y-91450393D01*
X140265913Y-91612807D01*
X140259500Y-91683386D01*
X140259500Y-92796613D01*
X140265913Y-92867192D01*
X140265913Y-92867194D01*
X140265914Y-92867196D01*
X140316522Y-93029606D01*
X140381916Y-93137781D01*
X140404530Y-93175188D01*
X140524811Y-93295469D01*
X140524813Y-93295470D01*
X140524815Y-93295472D01*
X140670394Y-93383478D01*
X140832804Y-93434086D01*
X140903384Y-93440500D01*
X140903387Y-93440500D01*
X142766613Y-93440500D01*
X142766616Y-93440500D01*
X142837196Y-93434086D01*
X142999606Y-93383478D01*
X143145185Y-93295472D01*
X143265472Y-93175185D01*
X143353478Y-93029606D01*
X143404086Y-92867196D01*
X143410500Y-92796616D01*
X143410500Y-91683384D01*
X143404086Y-91612804D01*
X143353478Y-91450394D01*
X143265472Y-91304815D01*
X143265470Y-91304813D01*
X143265469Y-91304811D01*
X143145188Y-91184530D01*
X143144571Y-91184157D01*
X142999606Y-91096522D01*
X142973493Y-91088385D01*
X142915346Y-91049648D01*
X142887372Y-90985623D01*
X142898453Y-90916638D01*
X142945072Y-90864595D01*
X142973492Y-90851615D01*
X142999606Y-90843478D01*
X143145185Y-90755472D01*
X143265472Y-90635185D01*
X143353478Y-90489606D01*
X143404086Y-90327196D01*
X143410500Y-90256616D01*
X143410500Y-89143384D01*
X143404086Y-89072804D01*
X143353478Y-88910394D01*
X143265472Y-88764815D01*
X143265470Y-88764813D01*
X143265469Y-88764811D01*
X143145188Y-88644530D01*
X143145185Y-88644528D01*
X142999606Y-88556522D01*
X142973493Y-88548385D01*
X142915346Y-88509648D01*
X142887372Y-88445623D01*
X142898453Y-88376638D01*
X142945072Y-88324595D01*
X142973492Y-88311615D01*
X142999606Y-88303478D01*
X143145185Y-88215472D01*
X143265472Y-88095185D01*
X143353478Y-87949606D01*
X143404086Y-87787196D01*
X143410500Y-87716616D01*
X143410500Y-86603384D01*
X143404086Y-86532804D01*
X143353478Y-86370394D01*
X143265472Y-86224815D01*
X143265470Y-86224813D01*
X143265469Y-86224811D01*
X143145188Y-86104530D01*
X143145185Y-86104528D01*
X142999606Y-86016522D01*
X142973493Y-86008385D01*
X142915346Y-85969648D01*
X142887372Y-85905623D01*
X142898453Y-85836638D01*
X142945072Y-85784595D01*
X142973492Y-85771615D01*
X142999606Y-85763478D01*
X143145185Y-85675472D01*
X143265472Y-85555185D01*
X143353478Y-85409606D01*
X143404086Y-85247196D01*
X143410500Y-85176616D01*
X143410500Y-84063384D01*
X143404086Y-83992804D01*
X143401965Y-83985998D01*
X143994500Y-83985998D01*
X143994500Y-84626981D01*
X143994501Y-84626990D01*
X144000587Y-84683614D01*
X144046083Y-84805588D01*
X144048372Y-84811726D01*
X144130313Y-84921187D01*
X144239774Y-85003128D01*
X144367886Y-85050912D01*
X144424515Y-85057000D01*
X145507034Y-85056999D01*
X145574073Y-85076684D01*
X145594715Y-85093318D01*
X145861886Y-85360489D01*
X145964613Y-85419799D01*
X145988821Y-85426284D01*
X145988824Y-85426286D01*
X145988825Y-85426286D01*
X146005082Y-85430642D01*
X146079191Y-85450500D01*
X154746063Y-85450500D01*
X154798750Y-85464618D01*
X154799304Y-85463281D01*
X154806807Y-85466388D01*
X154806814Y-85466392D01*
X154934108Y-85500500D01*
X154934110Y-85500500D01*
X155065890Y-85500500D01*
X155065892Y-85500500D01*
X155193186Y-85466392D01*
X155307314Y-85400500D01*
X155400500Y-85307314D01*
X155466392Y-85193186D01*
X155500500Y-85065892D01*
X155500500Y-84934108D01*
X155466392Y-84806814D01*
X155400500Y-84692686D01*
X155307314Y-84599500D01*
X155236309Y-84558505D01*
X155193187Y-84533608D01*
X155129539Y-84516554D01*
X155065892Y-84499500D01*
X154934108Y-84499500D01*
X154806814Y-84533608D01*
X154799304Y-84536719D01*
X154798750Y-84535381D01*
X154746063Y-84549500D01*
X147019500Y-84549500D01*
X146952461Y-84529815D01*
X146906706Y-84477011D01*
X146895500Y-84425500D01*
X146895499Y-83986018D01*
X146895498Y-83986009D01*
X146894889Y-83980347D01*
X146889412Y-83929386D01*
X146879015Y-83901512D01*
X146862932Y-83858392D01*
X146841628Y-83801274D01*
X146759687Y-83691813D01*
X146661024Y-83617955D01*
X146650228Y-83609873D01*
X146650226Y-83609872D01*
X146522114Y-83562088D01*
X146522112Y-83562087D01*
X146522110Y-83562087D01*
X146465501Y-83556000D01*
X146283741Y-83556000D01*
X146216702Y-83536315D01*
X146170947Y-83483511D01*
X146170524Y-83480576D01*
X145445000Y-82755052D01*
X144710500Y-83489550D01*
X144697010Y-83516499D01*
X144636920Y-83552149D01*
X144606259Y-83556000D01*
X144424519Y-83556000D01*
X144424509Y-83556001D01*
X144367885Y-83562087D01*
X144239773Y-83609872D01*
X144130313Y-83691813D01*
X144048373Y-83801271D01*
X144048372Y-83801274D01*
X144014160Y-83893000D01*
X144000587Y-83929389D01*
X143994500Y-83985998D01*
X143401965Y-83985998D01*
X143353478Y-83830394D01*
X143265472Y-83684815D01*
X143265470Y-83684813D01*
X143265469Y-83684811D01*
X143145188Y-83564530D01*
X143145185Y-83564528D01*
X142999606Y-83476522D01*
X142973493Y-83468385D01*
X142915346Y-83429648D01*
X142887372Y-83365623D01*
X142898453Y-83296638D01*
X142945072Y-83244595D01*
X142973492Y-83231615D01*
X142999606Y-83223478D01*
X143145185Y-83135472D01*
X143265472Y-83015185D01*
X143353478Y-82869606D01*
X143404086Y-82707196D01*
X143410500Y-82636616D01*
X143410500Y-82082969D01*
X143695000Y-82082969D01*
X143695000Y-82720030D01*
X143709648Y-82850039D01*
X143767330Y-83014886D01*
X143860246Y-83162762D01*
X143983740Y-83286256D01*
X144120659Y-83372287D01*
X144120660Y-83372287D01*
X145091448Y-82401500D01*
X145091447Y-82401499D01*
X145798552Y-82401499D01*
X145798552Y-82401500D01*
X146769338Y-83372286D01*
X146906259Y-83286255D01*
X146906262Y-83286253D01*
X147029753Y-83162762D01*
X147122669Y-83014886D01*
X147180351Y-82850039D01*
X147194999Y-82720030D01*
X147195000Y-82720026D01*
X147195000Y-82082973D01*
X147194999Y-82082969D01*
X147180351Y-81952960D01*
X147173754Y-81934108D01*
X149499500Y-81934108D01*
X149499500Y-82065892D01*
X149502582Y-82077393D01*
X149533608Y-82193187D01*
X149537542Y-82200000D01*
X149599500Y-82307314D01*
X149692686Y-82400500D01*
X149806814Y-82466392D01*
X149868377Y-82482887D01*
X149880084Y-82486656D01*
X149889528Y-82490222D01*
X149906113Y-82499799D01*
X149930326Y-82506286D01*
X150020691Y-82530500D01*
X156301615Y-82530500D01*
X156368654Y-82550185D01*
X156414409Y-82602989D01*
X156425105Y-82643274D01*
X156427441Y-82668976D01*
X156430913Y-82707193D01*
X156430914Y-82707196D01*
X156481522Y-82869606D01*
X156540031Y-82966392D01*
X156569530Y-83015188D01*
X156689811Y-83135469D01*
X156689813Y-83135470D01*
X156689815Y-83135472D01*
X156835394Y-83223478D01*
X156835397Y-83223479D01*
X156835396Y-83223479D01*
X156861505Y-83231615D01*
X156919653Y-83270352D01*
X156947627Y-83334378D01*
X156936545Y-83403363D01*
X156889927Y-83455406D01*
X156861505Y-83468385D01*
X156835397Y-83476520D01*
X156689811Y-83564530D01*
X156569530Y-83684811D01*
X156481522Y-83830393D01*
X156430913Y-83992807D01*
X156424500Y-84063386D01*
X156424500Y-85176613D01*
X156430913Y-85247192D01*
X156430913Y-85247194D01*
X156430914Y-85247196D01*
X156481522Y-85409606D01*
X156518143Y-85470185D01*
X156569530Y-85555188D01*
X156689811Y-85675469D01*
X156689813Y-85675470D01*
X156689815Y-85675472D01*
X156835394Y-85763478D01*
X156835397Y-85763479D01*
X156835396Y-85763479D01*
X156861505Y-85771615D01*
X156919653Y-85810352D01*
X156947627Y-85874378D01*
X156936545Y-85943363D01*
X156889927Y-85995406D01*
X156861505Y-86008385D01*
X156835397Y-86016520D01*
X156689811Y-86104530D01*
X156569530Y-86224811D01*
X156481522Y-86370393D01*
X156430913Y-86532807D01*
X156424500Y-86603386D01*
X156424500Y-87716613D01*
X156430913Y-87787192D01*
X156430913Y-87787194D01*
X156430914Y-87787196D01*
X156481522Y-87949606D01*
X156553738Y-88069066D01*
X156569530Y-88095188D01*
X156689811Y-88215469D01*
X156689813Y-88215470D01*
X156689815Y-88215472D01*
X156835394Y-88303478D01*
X156835397Y-88303479D01*
X156835396Y-88303479D01*
X156861505Y-88311615D01*
X156919653Y-88350352D01*
X156947627Y-88414378D01*
X156936545Y-88483363D01*
X156889927Y-88535406D01*
X156861505Y-88548385D01*
X156835397Y-88556520D01*
X156689811Y-88644530D01*
X156569530Y-88764811D01*
X156481522Y-88910393D01*
X156430913Y-89072807D01*
X156424500Y-89143386D01*
X156424500Y-90256613D01*
X156430913Y-90327192D01*
X156430913Y-90327194D01*
X156430914Y-90327196D01*
X156481522Y-90489606D01*
X156551994Y-90606181D01*
X156569530Y-90635188D01*
X156689811Y-90755469D01*
X156689813Y-90755470D01*
X156689815Y-90755472D01*
X156835394Y-90843478D01*
X156835397Y-90843479D01*
X156835396Y-90843479D01*
X156861505Y-90851615D01*
X156919653Y-90890352D01*
X156947627Y-90954378D01*
X156936545Y-91023363D01*
X156889927Y-91075406D01*
X156861505Y-91088385D01*
X156835397Y-91096520D01*
X156689811Y-91184530D01*
X156569530Y-91304811D01*
X156481522Y-91450393D01*
X156430913Y-91612807D01*
X156424500Y-91683386D01*
X156424500Y-92447814D01*
X156404815Y-92514853D01*
X156352011Y-92560608D01*
X156282853Y-92570552D01*
X156226189Y-92547081D01*
X156219688Y-92542214D01*
X156219687Y-92542213D01*
X156158702Y-92496560D01*
X156110228Y-92460273D01*
X156110226Y-92460272D01*
X155982114Y-92412488D01*
X155982112Y-92412487D01*
X155982110Y-92412487D01*
X155925493Y-92406400D01*
X155284518Y-92406400D01*
X155284509Y-92406401D01*
X155227885Y-92412487D01*
X155099773Y-92460272D01*
X154990313Y-92542213D01*
X154908373Y-92651671D01*
X154860587Y-92779789D01*
X154854500Y-92836398D01*
X154854500Y-94877381D01*
X154854501Y-94877390D01*
X154860587Y-94934014D01*
X154898746Y-95036319D01*
X154908372Y-95062126D01*
X154990313Y-95171587D01*
X155099774Y-95253528D01*
X155227886Y-95301312D01*
X155284515Y-95307400D01*
X155925484Y-95307399D01*
X155982114Y-95301312D01*
X156110226Y-95253528D01*
X156219687Y-95171587D01*
X156301628Y-95062126D01*
X156349412Y-94934014D01*
X156351687Y-94912844D01*
X156355499Y-94877401D01*
X156355499Y-94877390D01*
X156355500Y-94877385D01*
X156355500Y-94297844D01*
X160250000Y-94297844D01*
X160256401Y-94357372D01*
X160256403Y-94357379D01*
X160306645Y-94492086D01*
X160306649Y-94492093D01*
X160392809Y-94607187D01*
X160392812Y-94607190D01*
X160507906Y-94693350D01*
X160507913Y-94693354D01*
X160642620Y-94743596D01*
X160642627Y-94743598D01*
X160702155Y-94749999D01*
X160702172Y-94750000D01*
X161750000Y-94750000D01*
X162250000Y-94750000D01*
X163297828Y-94750000D01*
X163297844Y-94749999D01*
X163357372Y-94743598D01*
X163357379Y-94743596D01*
X163492086Y-94693354D01*
X163492093Y-94693350D01*
X163607187Y-94607190D01*
X163607190Y-94607187D01*
X163693350Y-94492093D01*
X163693354Y-94492086D01*
X163743596Y-94357379D01*
X163743598Y-94357372D01*
X163749999Y-94297844D01*
X163750000Y-94297827D01*
X163750000Y-93250000D01*
X162250000Y-93250000D01*
X162250000Y-94750000D01*
X161750000Y-94750000D01*
X161750000Y-93250000D01*
X160250000Y-93250000D01*
X160250000Y-94297844D01*
X156355500Y-94297844D01*
X156355499Y-93260518D01*
X156375184Y-93193480D01*
X156427987Y-93147725D01*
X156497146Y-93137781D01*
X156560702Y-93166806D01*
X156567180Y-93172838D01*
X156689811Y-93295469D01*
X156689813Y-93295470D01*
X156689815Y-93295472D01*
X156835394Y-93383478D01*
X156997804Y-93434086D01*
X157068384Y-93440500D01*
X157068387Y-93440500D01*
X158931613Y-93440500D01*
X158931616Y-93440500D01*
X159002196Y-93434086D01*
X159164606Y-93383478D01*
X159310185Y-93295472D01*
X159430472Y-93175185D01*
X159518478Y-93029606D01*
X159569086Y-92867196D01*
X159575500Y-92796616D01*
X159575500Y-91702155D01*
X160250000Y-91702155D01*
X160250000Y-92750000D01*
X161750000Y-92750000D01*
X162250000Y-92750000D01*
X163750000Y-92750000D01*
X163750000Y-91702172D01*
X163749999Y-91702155D01*
X163743598Y-91642627D01*
X163743596Y-91642620D01*
X163693354Y-91507913D01*
X163693350Y-91507906D01*
X163607190Y-91392812D01*
X163607187Y-91392809D01*
X163492093Y-91306649D01*
X163492086Y-91306645D01*
X163357379Y-91256403D01*
X163357372Y-91256401D01*
X163297844Y-91250000D01*
X162250000Y-91250000D01*
X162250000Y-92750000D01*
X161750000Y-92750000D01*
X161750000Y-91250000D01*
X160702155Y-91250000D01*
X160642627Y-91256401D01*
X160642620Y-91256403D01*
X160507913Y-91306645D01*
X160507906Y-91306649D01*
X160392812Y-91392809D01*
X160392809Y-91392812D01*
X160306649Y-91507906D01*
X160306645Y-91507913D01*
X160256403Y-91642620D01*
X160256401Y-91642627D01*
X160250000Y-91702155D01*
X159575500Y-91702155D01*
X159575500Y-91683384D01*
X159569086Y-91612804D01*
X159518478Y-91450394D01*
X159430472Y-91304815D01*
X159430470Y-91304813D01*
X159430469Y-91304811D01*
X159310188Y-91184530D01*
X159309571Y-91184157D01*
X159164606Y-91096522D01*
X159138493Y-91088385D01*
X159080346Y-91049648D01*
X159052372Y-90985623D01*
X159063453Y-90916638D01*
X159110072Y-90864595D01*
X159138492Y-90851615D01*
X159164606Y-90843478D01*
X159310185Y-90755472D01*
X159430472Y-90635185D01*
X159518478Y-90489606D01*
X159569086Y-90327196D01*
X159575500Y-90256616D01*
X159575500Y-89143384D01*
X159569086Y-89072804D01*
X159518478Y-88910394D01*
X159430472Y-88764815D01*
X159430470Y-88764813D01*
X159430469Y-88764811D01*
X159310188Y-88644530D01*
X159310185Y-88644528D01*
X159164606Y-88556522D01*
X159138493Y-88548385D01*
X159080346Y-88509648D01*
X159052372Y-88445623D01*
X159063453Y-88376638D01*
X159110072Y-88324595D01*
X159138492Y-88311615D01*
X159164606Y-88303478D01*
X159310185Y-88215472D01*
X159430472Y-88095185D01*
X159518478Y-87949606D01*
X159569086Y-87787196D01*
X159575500Y-87716616D01*
X159575500Y-86603384D01*
X159569086Y-86532804D01*
X159518478Y-86370394D01*
X159430472Y-86224815D01*
X159430470Y-86224813D01*
X159430469Y-86224811D01*
X159310188Y-86104530D01*
X159310185Y-86104528D01*
X159164606Y-86016522D01*
X159138493Y-86008385D01*
X159080346Y-85969648D01*
X159052372Y-85905623D01*
X159063453Y-85836638D01*
X159110072Y-85784595D01*
X159138492Y-85771615D01*
X159164606Y-85763478D01*
X159310185Y-85675472D01*
X159430472Y-85555185D01*
X159505762Y-85430639D01*
X159557287Y-85383454D01*
X159626147Y-85371615D01*
X159687366Y-85396417D01*
X159692681Y-85400495D01*
X159692686Y-85400500D01*
X159791521Y-85457563D01*
X159801425Y-85463281D01*
X159806814Y-85466392D01*
X159934108Y-85500500D01*
X159934110Y-85500500D01*
X160065890Y-85500500D01*
X160065892Y-85500500D01*
X160193186Y-85466392D01*
X160193194Y-85466387D01*
X160200696Y-85463281D01*
X160201249Y-85464618D01*
X160253937Y-85450500D01*
X160762035Y-85450500D01*
X160829074Y-85470185D01*
X160849716Y-85486819D01*
X161513181Y-86150284D01*
X161546666Y-86211607D01*
X161549500Y-86237965D01*
X161549500Y-87425500D01*
X161529815Y-87492539D01*
X161477011Y-87538294D01*
X161425500Y-87549500D01*
X160730247Y-87549500D01*
X160671770Y-87561131D01*
X160671769Y-87561132D01*
X160605447Y-87605447D01*
X160561132Y-87671769D01*
X160561131Y-87671770D01*
X160549500Y-87730247D01*
X160549500Y-90269752D01*
X160561131Y-90328229D01*
X160561132Y-90328230D01*
X160605447Y-90394552D01*
X160671769Y-90438867D01*
X160671770Y-90438868D01*
X160730247Y-90450499D01*
X160730250Y-90450500D01*
X160730252Y-90450500D01*
X163269750Y-90450500D01*
X163269751Y-90450499D01*
X163284568Y-90447552D01*
X163328229Y-90438868D01*
X163328229Y-90438867D01*
X163328231Y-90438867D01*
X163394552Y-90394552D01*
X163438867Y-90328231D01*
X163438867Y-90328229D01*
X163438868Y-90328229D01*
X163450499Y-90269752D01*
X163450500Y-90269750D01*
X163450500Y-87730249D01*
X163450499Y-87730247D01*
X163438868Y-87671770D01*
X163438867Y-87671769D01*
X163394552Y-87605447D01*
X163328230Y-87561132D01*
X163328229Y-87561131D01*
X163269752Y-87549500D01*
X163269748Y-87549500D01*
X162574500Y-87549500D01*
X162507461Y-87529815D01*
X162461706Y-87477011D01*
X162450500Y-87425500D01*
X162450500Y-85940693D01*
X162450500Y-85940691D01*
X162419799Y-85826114D01*
X162383636Y-85763478D01*
X162360490Y-85723387D01*
X161724784Y-85087681D01*
X161691299Y-85026358D01*
X161696283Y-84956666D01*
X161724784Y-84912319D01*
X161950284Y-84686819D01*
X162011607Y-84653334D01*
X162037965Y-84650500D01*
X162283493Y-84650500D01*
X162383121Y-84634720D01*
X162383121Y-84634719D01*
X162383126Y-84634719D01*
X162503220Y-84573528D01*
X162598528Y-84478220D01*
X162659719Y-84358126D01*
X162660634Y-84352349D01*
X162675500Y-84258493D01*
X162675500Y-83741506D01*
X162659720Y-83641878D01*
X162659719Y-83641876D01*
X162659719Y-83641874D01*
X162598528Y-83521780D01*
X162598526Y-83521778D01*
X162598523Y-83521774D01*
X162579575Y-83502826D01*
X162546090Y-83441503D01*
X162551074Y-83371811D01*
X162592946Y-83315878D01*
X162602160Y-83309606D01*
X162702731Y-83247573D01*
X162822572Y-83127732D01*
X162822575Y-83127728D01*
X162911542Y-82983492D01*
X162911547Y-82983481D01*
X162964855Y-82822606D01*
X162974999Y-82723322D01*
X162975000Y-82723309D01*
X162975000Y-82700000D01*
X161025001Y-82700000D01*
X161025001Y-82723322D01*
X161035144Y-82822607D01*
X161088452Y-82983481D01*
X161088457Y-82983492D01*
X161177424Y-83127728D01*
X161177427Y-83127732D01*
X161297266Y-83247571D01*
X161397840Y-83309606D01*
X161444564Y-83361554D01*
X161455787Y-83430517D01*
X161427943Y-83494599D01*
X161420426Y-83502825D01*
X161401473Y-83521778D01*
X161401472Y-83521780D01*
X161359055Y-83605029D01*
X161340279Y-83641878D01*
X161324500Y-83741506D01*
X161324500Y-83987035D01*
X161304815Y-84054074D01*
X161288181Y-84074716D01*
X160849716Y-84513181D01*
X160788393Y-84546666D01*
X160762035Y-84549500D01*
X160253937Y-84549500D01*
X160201249Y-84535381D01*
X160200696Y-84536719D01*
X160193188Y-84533609D01*
X160193186Y-84533608D01*
X160065892Y-84499500D01*
X159934108Y-84499500D01*
X159806812Y-84533608D01*
X159761499Y-84559770D01*
X159693599Y-84576242D01*
X159627572Y-84553389D01*
X159584382Y-84498467D01*
X159575500Y-84452382D01*
X159575500Y-84063386D01*
X159575245Y-84060577D01*
X159569086Y-83992804D01*
X159518478Y-83830394D01*
X159430472Y-83684815D01*
X159430470Y-83684813D01*
X159430469Y-83684811D01*
X159310188Y-83564530D01*
X159310185Y-83564528D01*
X159164606Y-83476522D01*
X159138493Y-83468385D01*
X159080346Y-83429648D01*
X159052372Y-83365623D01*
X159063453Y-83296638D01*
X159110072Y-83244595D01*
X159138492Y-83231615D01*
X159164606Y-83223478D01*
X159310185Y-83135472D01*
X159430472Y-83015185D01*
X159518478Y-82869606D01*
X159569086Y-82707196D01*
X159575500Y-82636616D01*
X159575500Y-82176677D01*
X161025000Y-82176677D01*
X161025000Y-82200000D01*
X161750000Y-82200000D01*
X162250000Y-82200000D01*
X162974999Y-82200000D01*
X162974999Y-82176692D01*
X162974998Y-82176677D01*
X162964855Y-82077392D01*
X162911547Y-81916518D01*
X162911542Y-81916507D01*
X162822575Y-81772271D01*
X162822572Y-81772267D01*
X162702732Y-81652427D01*
X162702728Y-81652424D01*
X162558492Y-81563457D01*
X162558481Y-81563452D01*
X162397606Y-81510144D01*
X162298322Y-81500000D01*
X162250000Y-81500000D01*
X162250000Y-82200000D01*
X161750000Y-82200000D01*
X161750000Y-81500000D01*
X161749999Y-81499999D01*
X161701693Y-81500000D01*
X161701675Y-81500001D01*
X161602392Y-81510144D01*
X161441518Y-81563452D01*
X161441507Y-81563457D01*
X161297271Y-81652424D01*
X161297267Y-81652427D01*
X161177427Y-81772267D01*
X161177424Y-81772271D01*
X161088457Y-81916507D01*
X161088452Y-81916518D01*
X161035144Y-82077393D01*
X161025000Y-82176677D01*
X159575500Y-82176677D01*
X159575500Y-81523384D01*
X159569086Y-81452804D01*
X159518478Y-81290394D01*
X159430472Y-81144815D01*
X159430470Y-81144813D01*
X159430469Y-81144811D01*
X159310188Y-81024530D01*
X159164606Y-80936522D01*
X159096841Y-80915406D01*
X159017088Y-80890554D01*
X158966298Y-80859850D01*
X158000000Y-79893552D01*
X157033700Y-80859850D01*
X156982909Y-80890554D01*
X156835397Y-80936520D01*
X156689811Y-81024530D01*
X156569530Y-81144811D01*
X156481522Y-81290393D01*
X156430913Y-81452806D01*
X156427531Y-81490029D01*
X156425105Y-81516723D01*
X156399435Y-81581705D01*
X156342707Y-81622493D01*
X156301615Y-81629500D01*
X150388503Y-81629500D01*
X150321464Y-81609815D01*
X150313017Y-81603876D01*
X150307317Y-81599502D01*
X150193187Y-81533608D01*
X150105616Y-81510144D01*
X150065892Y-81499500D01*
X149934108Y-81499500D01*
X149806812Y-81533608D01*
X149692686Y-81599500D01*
X149692683Y-81599502D01*
X149599502Y-81692683D01*
X149599500Y-81692686D01*
X149533608Y-81806812D01*
X149526325Y-81833995D01*
X149499500Y-81934108D01*
X147173754Y-81934108D01*
X147122669Y-81788113D01*
X147029753Y-81640237D01*
X146906262Y-81516746D01*
X146769338Y-81430712D01*
X145798552Y-82401499D01*
X145091447Y-82401499D01*
X144120660Y-81430712D01*
X143983737Y-81516746D01*
X143860246Y-81640237D01*
X143767330Y-81788113D01*
X143709648Y-81952960D01*
X143695000Y-82082969D01*
X143410500Y-82082969D01*
X143410500Y-81523384D01*
X143404086Y-81452804D01*
X143372519Y-81351500D01*
X144748551Y-81351500D01*
X145445000Y-82047948D01*
X146141448Y-81351500D01*
X144748551Y-81351500D01*
X143372519Y-81351500D01*
X143353478Y-81290394D01*
X143265472Y-81144815D01*
X143265470Y-81144813D01*
X143265469Y-81144811D01*
X143145188Y-81024530D01*
X143054859Y-80969924D01*
X142999606Y-80936522D01*
X142973493Y-80928385D01*
X142915346Y-80889648D01*
X142887372Y-80825623D01*
X142898453Y-80756638D01*
X142945072Y-80704595D01*
X142973492Y-80691615D01*
X142999606Y-80683478D01*
X143145185Y-80595472D01*
X143265472Y-80475185D01*
X143353478Y-80329606D01*
X143404086Y-80167196D01*
X143410500Y-80096616D01*
X143410500Y-79706769D01*
X150398282Y-79706769D01*
X150398282Y-79706770D01*
X150452449Y-79746124D01*
X150641782Y-79842595D01*
X150843870Y-79908257D01*
X151053754Y-79941500D01*
X151266246Y-79941500D01*
X151476127Y-79908257D01*
X151476130Y-79908257D01*
X151678217Y-79842595D01*
X151867554Y-79746122D01*
X151921716Y-79706770D01*
X151921717Y-79706770D01*
X151160000Y-78945054D01*
X150398282Y-79706769D01*
X143410500Y-79706769D01*
X143410500Y-78983384D01*
X143404086Y-78912804D01*
X143353478Y-78750394D01*
X143265472Y-78604815D01*
X143265470Y-78604813D01*
X143265469Y-78604811D01*
X143148688Y-78488030D01*
X147569500Y-78488030D01*
X147569500Y-78694969D01*
X147609868Y-78897912D01*
X147609870Y-78897920D01*
X147685572Y-79080681D01*
X147689059Y-79089098D01*
X147711943Y-79123346D01*
X147804024Y-79261157D01*
X147950342Y-79407475D01*
X147950345Y-79407477D01*
X148122402Y-79522441D01*
X148313580Y-79601630D01*
X148516530Y-79641999D01*
X148516534Y-79642000D01*
X148516535Y-79642000D01*
X148723466Y-79642000D01*
X148723467Y-79641999D01*
X148926420Y-79601630D01*
X149117598Y-79522441D01*
X149289655Y-79407477D01*
X149435977Y-79261155D01*
X149550941Y-79089098D01*
X149619165Y-78924389D01*
X149663004Y-78869988D01*
X149729298Y-78847923D01*
X149796998Y-78865202D01*
X149844609Y-78916339D01*
X149851656Y-78933526D01*
X149908904Y-79109716D01*
X150005375Y-79299050D01*
X150044728Y-79353216D01*
X150806445Y-78591499D01*
X151513554Y-78591499D01*
X151513554Y-78591500D01*
X152275270Y-79353217D01*
X152275270Y-79353216D01*
X152314622Y-79299054D01*
X152411095Y-79109717D01*
X152452593Y-78981999D01*
X156125000Y-78981999D01*
X156125000Y-80098000D01*
X156135608Y-80217325D01*
X156135609Y-80217328D01*
X156191557Y-80412861D01*
X156285721Y-80593129D01*
X156414244Y-80750750D01*
X156426061Y-80760385D01*
X156426062Y-80760385D01*
X157646448Y-79540000D01*
X157646447Y-79539999D01*
X158353552Y-79539999D01*
X158353552Y-79540000D01*
X159573937Y-80760385D01*
X159573937Y-80760386D01*
X159585753Y-80750752D01*
X159714278Y-80593129D01*
X159808442Y-80412861D01*
X159864390Y-80217328D01*
X159864391Y-80217325D01*
X159874999Y-80098000D01*
X159875000Y-80097998D01*
X159875000Y-78982002D01*
X159874999Y-78981999D01*
X159864391Y-78862674D01*
X159864390Y-78862671D01*
X159808442Y-78667138D01*
X159714278Y-78486870D01*
X159585753Y-78329246D01*
X159573938Y-78319613D01*
X159573937Y-78319613D01*
X158353552Y-79539999D01*
X157646447Y-79539999D01*
X156426061Y-78319613D01*
X156414245Y-78329248D01*
X156285721Y-78486870D01*
X156191557Y-78667138D01*
X156135609Y-78862671D01*
X156135608Y-78862674D01*
X156125000Y-78981999D01*
X152452593Y-78981999D01*
X152465938Y-78940929D01*
X152476757Y-78907630D01*
X152476757Y-78907627D01*
X152510000Y-78697746D01*
X152510000Y-78485253D01*
X152476757Y-78275372D01*
X152476757Y-78275369D01*
X152411095Y-78073282D01*
X152314624Y-77883949D01*
X152275270Y-77829782D01*
X152275269Y-77829782D01*
X151513554Y-78591499D01*
X150806445Y-78591499D01*
X150044728Y-77829782D01*
X150044727Y-77829782D01*
X150005380Y-77883939D01*
X149908905Y-78073281D01*
X149851656Y-78249474D01*
X149812218Y-78307149D01*
X149747859Y-78334347D01*
X149679013Y-78322432D01*
X149627537Y-78275188D01*
X149619164Y-78258607D01*
X149617412Y-78254378D01*
X149574847Y-78151615D01*
X149550943Y-78093905D01*
X149435975Y-77921842D01*
X149289657Y-77775524D01*
X149203626Y-77718041D01*
X149117598Y-77660559D01*
X149037043Y-77627192D01*
X148926420Y-77581370D01*
X148926412Y-77581368D01*
X148723469Y-77541000D01*
X148723465Y-77541000D01*
X148516535Y-77541000D01*
X148516530Y-77541000D01*
X148313587Y-77581368D01*
X148313579Y-77581370D01*
X148122403Y-77660558D01*
X147950342Y-77775524D01*
X147804024Y-77921842D01*
X147689058Y-78093903D01*
X147609870Y-78285079D01*
X147609868Y-78285087D01*
X147569500Y-78488030D01*
X143148688Y-78488030D01*
X143145188Y-78484530D01*
X143145185Y-78484528D01*
X142999606Y-78396522D01*
X142973493Y-78388385D01*
X142915346Y-78349648D01*
X142887372Y-78285623D01*
X142898453Y-78216638D01*
X142945072Y-78164595D01*
X142973492Y-78151615D01*
X142999606Y-78143478D01*
X143145185Y-78055472D01*
X143265472Y-77935185D01*
X143353478Y-77789606D01*
X143404086Y-77627196D01*
X143410500Y-77556616D01*
X143410500Y-76443384D01*
X143404086Y-76372804D01*
X143353478Y-76210394D01*
X143265472Y-76064815D01*
X143265470Y-76064813D01*
X143265469Y-76064811D01*
X143148688Y-75948030D01*
X147569500Y-75948030D01*
X147569500Y-76154969D01*
X147609868Y-76357912D01*
X147609870Y-76357920D01*
X147689058Y-76549096D01*
X147804024Y-76721157D01*
X147950342Y-76867475D01*
X147950345Y-76867477D01*
X148122402Y-76982441D01*
X148313580Y-77061630D01*
X148501574Y-77099024D01*
X148516530Y-77101999D01*
X148516534Y-77102000D01*
X148516535Y-77102000D01*
X148723466Y-77102000D01*
X148723467Y-77101999D01*
X148926420Y-77061630D01*
X149117598Y-76982441D01*
X149289655Y-76867477D01*
X149435977Y-76721155D01*
X149550941Y-76549098D01*
X149630130Y-76357920D01*
X149670500Y-76154965D01*
X149670500Y-75948035D01*
X149670499Y-75948030D01*
X150109500Y-75948030D01*
X150109500Y-76154969D01*
X150149868Y-76357912D01*
X150149870Y-76357920D01*
X150229058Y-76549096D01*
X150344024Y-76721157D01*
X150490342Y-76867475D01*
X150662405Y-76982443D01*
X150765043Y-77024956D01*
X150827108Y-77050664D01*
X150881511Y-77094505D01*
X150903576Y-77160799D01*
X150886297Y-77228498D01*
X150835160Y-77276109D01*
X150817974Y-77283156D01*
X150641781Y-77340405D01*
X150452439Y-77436880D01*
X150398282Y-77476227D01*
X150398282Y-77476228D01*
X151160000Y-78237946D01*
X151160001Y-78237946D01*
X151921716Y-77476228D01*
X151867550Y-77436875D01*
X151678216Y-77340404D01*
X151502026Y-77283156D01*
X151444350Y-77243718D01*
X151417152Y-77179360D01*
X151429067Y-77110513D01*
X151476311Y-77059038D01*
X151492882Y-77050668D01*
X151657598Y-76982441D01*
X151829655Y-76867477D01*
X151975977Y-76721155D01*
X152090941Y-76549098D01*
X152134729Y-76443384D01*
X156424500Y-76443384D01*
X156424500Y-77556616D01*
X156426423Y-77577778D01*
X156430913Y-77627192D01*
X156481522Y-77789606D01*
X156569530Y-77935188D01*
X156689811Y-78055469D01*
X156689813Y-78055470D01*
X156689815Y-78055472D01*
X156835394Y-78143478D01*
X156982911Y-78189445D01*
X157033701Y-78220149D01*
X158000000Y-79186448D01*
X158000001Y-79186448D01*
X158966296Y-78220150D01*
X159017084Y-78189446D01*
X159164606Y-78143478D01*
X159310185Y-78055472D01*
X159430472Y-77935185D01*
X159518478Y-77789606D01*
X159569086Y-77627196D01*
X159575500Y-77556616D01*
X159575500Y-76443384D01*
X159569086Y-76372804D01*
X159518478Y-76210394D01*
X159430472Y-76064815D01*
X159430470Y-76064813D01*
X159430469Y-76064811D01*
X159310188Y-75944530D01*
X159295836Y-75935854D01*
X159164606Y-75856522D01*
X159002196Y-75805914D01*
X159002194Y-75805913D01*
X159002192Y-75805913D01*
X158952778Y-75801423D01*
X158931616Y-75799500D01*
X157068384Y-75799500D01*
X157049145Y-75801248D01*
X156997807Y-75805913D01*
X156835393Y-75856522D01*
X156689811Y-75944530D01*
X156569530Y-76064811D01*
X156481522Y-76210393D01*
X156430913Y-76372807D01*
X156425782Y-76429275D01*
X156424500Y-76443384D01*
X152134729Y-76443384D01*
X152170130Y-76357920D01*
X152210500Y-76154965D01*
X152210500Y-75948035D01*
X152170130Y-75745080D01*
X152090941Y-75553902D01*
X151975977Y-75381845D01*
X151975975Y-75381842D01*
X151829657Y-75235524D01*
X151701607Y-75149965D01*
X151657598Y-75120559D01*
X151605608Y-75099024D01*
X151466420Y-75041370D01*
X151466412Y-75041368D01*
X151263469Y-75001000D01*
X151263465Y-75001000D01*
X151056535Y-75001000D01*
X151056530Y-75001000D01*
X150853587Y-75041368D01*
X150853579Y-75041370D01*
X150662403Y-75120558D01*
X150490342Y-75235524D01*
X150344024Y-75381842D01*
X150229058Y-75553903D01*
X150149870Y-75745079D01*
X150149868Y-75745087D01*
X150109500Y-75948030D01*
X149670499Y-75948030D01*
X149630130Y-75745080D01*
X149550941Y-75553902D01*
X149435977Y-75381845D01*
X149435975Y-75381842D01*
X149289657Y-75235524D01*
X149161607Y-75149965D01*
X149117598Y-75120559D01*
X149065608Y-75099024D01*
X148926420Y-75041370D01*
X148926412Y-75041368D01*
X148723469Y-75001000D01*
X148723465Y-75001000D01*
X148516535Y-75001000D01*
X148516530Y-75001000D01*
X148313587Y-75041368D01*
X148313579Y-75041370D01*
X148122403Y-75120558D01*
X147950342Y-75235524D01*
X147804024Y-75381842D01*
X147689058Y-75553903D01*
X147609870Y-75745079D01*
X147609868Y-75745087D01*
X147569500Y-75948030D01*
X143148688Y-75948030D01*
X143145188Y-75944530D01*
X143130836Y-75935854D01*
X142999606Y-75856522D01*
X142837196Y-75805914D01*
X142837194Y-75805913D01*
X142837192Y-75805913D01*
X142787778Y-75801423D01*
X142766616Y-75799500D01*
X142766613Y-75799500D01*
X141110833Y-75799500D01*
X141043794Y-75779815D01*
X141023152Y-75763181D01*
X139812012Y-74552041D01*
X139812004Y-74552035D01*
X139743495Y-74512482D01*
X139743490Y-74512479D01*
X139718013Y-74505652D01*
X139667062Y-74492000D01*
X139667060Y-74492000D01*
X139532360Y-74492000D01*
X139465321Y-74472315D01*
X139419566Y-74419511D01*
X139414088Y-74401342D01*
X139413663Y-74401481D01*
X139410647Y-74392199D01*
X139410646Y-74392197D01*
X139410646Y-74392196D01*
X139353050Y-74279158D01*
X139353046Y-74279154D01*
X139353045Y-74279152D01*
X139263347Y-74189454D01*
X139263344Y-74189452D01*
X139263342Y-74189450D01*
X139186517Y-74150305D01*
X139150301Y-74131852D01*
X139056524Y-74117000D01*
X138593482Y-74117000D01*
X138512519Y-74129823D01*
X138499696Y-74131854D01*
X138386658Y-74189450D01*
X138386657Y-74189451D01*
X138386652Y-74189454D01*
X138296954Y-74279152D01*
X138296951Y-74279157D01*
X138239352Y-74392198D01*
X138224500Y-74485975D01*
X138224500Y-75099017D01*
X138235229Y-75166760D01*
X138239354Y-75192804D01*
X138296950Y-75305842D01*
X138296952Y-75305844D01*
X138296954Y-75305847D01*
X138386652Y-75395545D01*
X138386654Y-75395546D01*
X138386658Y-75395550D01*
X138499694Y-75453145D01*
X138499698Y-75453147D01*
X138593475Y-75467999D01*
X138593481Y-75468000D01*
X139056518Y-75467999D01*
X139150304Y-75453146D01*
X139263342Y-75395550D01*
X139353050Y-75305842D01*
X139398035Y-75217553D01*
X139446007Y-75166760D01*
X139513828Y-75149965D01*
X139579963Y-75172502D01*
X139596199Y-75186170D01*
X140362326Y-75952297D01*
X140395811Y-76013620D01*
X140390827Y-76083312D01*
X140380762Y-76104128D01*
X140316522Y-76210393D01*
X140265913Y-76372807D01*
X140260782Y-76429275D01*
X140259500Y-76443384D01*
X140259500Y-77556616D01*
X140261423Y-77577778D01*
X140265913Y-77627192D01*
X140316522Y-77789606D01*
X140404530Y-77935188D01*
X140524811Y-78055469D01*
X140524813Y-78055470D01*
X140524815Y-78055472D01*
X140670394Y-78143478D01*
X140670397Y-78143479D01*
X140670396Y-78143479D01*
X140696505Y-78151615D01*
X140754653Y-78190352D01*
X140782627Y-78254378D01*
X140771545Y-78323363D01*
X140724927Y-78375406D01*
X140696505Y-78388385D01*
X140670397Y-78396520D01*
X140524813Y-78484529D01*
X140424470Y-78584872D01*
X140363147Y-78618356D01*
X140293455Y-78613372D01*
X140274982Y-78603151D01*
X140274352Y-78604243D01*
X140267315Y-78600180D01*
X140267314Y-78600179D01*
X140212684Y-78568638D01*
X140153187Y-78534287D01*
X140070942Y-78512250D01*
X140025892Y-78500179D01*
X139894108Y-78500179D01*
X139766814Y-78534287D01*
X139766807Y-78534290D01*
X139759286Y-78538632D01*
X139729387Y-78551016D01*
X139642147Y-78574392D01*
X139642146Y-78574391D01*
X139617937Y-78580878D01*
X139617934Y-78580879D01*
X139515207Y-78640190D01*
X139515204Y-78640192D01*
X139074716Y-79080681D01*
X139013393Y-79114166D01*
X138987035Y-79117000D01*
X138741507Y-79117000D01*
X138644898Y-79132301D01*
X138575604Y-79123346D01*
X138522152Y-79078350D01*
X138501513Y-79011598D01*
X138501500Y-79009828D01*
X138501500Y-77592333D01*
X138510118Y-77562981D01*
X138516579Y-77533069D01*
X138520409Y-77527936D01*
X138521185Y-77525294D01*
X138537684Y-77504785D01*
X138538023Y-77504447D01*
X138599293Y-77470872D01*
X138625824Y-77467999D01*
X139056518Y-77467999D01*
X139150304Y-77453146D01*
X139263342Y-77395550D01*
X139353050Y-77305842D01*
X139410646Y-77192804D01*
X139410646Y-77192802D01*
X139410647Y-77192801D01*
X139421282Y-77125647D01*
X139425500Y-77099019D01*
X139425499Y-76485982D01*
X139410646Y-76392196D01*
X139353050Y-76279158D01*
X139353046Y-76279154D01*
X139353045Y-76279152D01*
X139263347Y-76189454D01*
X139263344Y-76189452D01*
X139263342Y-76189450D01*
X139186517Y-76150305D01*
X139150301Y-76131852D01*
X139056524Y-76117000D01*
X138593482Y-76117000D01*
X138512519Y-76129823D01*
X138499696Y-76131854D01*
X138386658Y-76189450D01*
X138386657Y-76189451D01*
X138386652Y-76189454D01*
X138296954Y-76279152D01*
X138296951Y-76279157D01*
X138239352Y-76392198D01*
X138224500Y-76485975D01*
X138224500Y-76916666D01*
X138215855Y-76946106D01*
X138209332Y-76976093D01*
X138205577Y-76981108D01*
X138204815Y-76983705D01*
X138188181Y-77004347D01*
X138098024Y-77094505D01*
X138016489Y-77176040D01*
X137999728Y-77192801D01*
X137985507Y-77207022D01*
X137924183Y-77240506D01*
X137854492Y-77235520D01*
X137798559Y-77193648D01*
X137774143Y-77128183D01*
X137775185Y-77103888D01*
X137775118Y-77103883D01*
X137775267Y-77101977D01*
X137775355Y-77099929D01*
X137775500Y-77099019D01*
X137775499Y-76485982D01*
X137760646Y-76392196D01*
X137703050Y-76279158D01*
X137703046Y-76279154D01*
X137703045Y-76279152D01*
X137613347Y-76189454D01*
X137613343Y-76189451D01*
X137613342Y-76189450D01*
X137611582Y-76188553D01*
X137543204Y-76153712D01*
X137492408Y-76105737D01*
X137475500Y-76043228D01*
X137475500Y-75541771D01*
X137495185Y-75474732D01*
X137543203Y-75431287D01*
X137613342Y-75395550D01*
X137703050Y-75305842D01*
X137760646Y-75192804D01*
X137760646Y-75192802D01*
X137760647Y-75192801D01*
X137775499Y-75099024D01*
X137775500Y-75099019D01*
X137775499Y-74485982D01*
X137760646Y-74392196D01*
X137703050Y-74279158D01*
X137703046Y-74279154D01*
X137703045Y-74279152D01*
X137613347Y-74189454D01*
X137613344Y-74189452D01*
X137613342Y-74189450D01*
X137536517Y-74150305D01*
X137500301Y-74131852D01*
X137406524Y-74117000D01*
X136943482Y-74117000D01*
X136862519Y-74129823D01*
X136849696Y-74131854D01*
X136736658Y-74189450D01*
X136736657Y-74189451D01*
X136736652Y-74189454D01*
X136646954Y-74279152D01*
X136646951Y-74279157D01*
X136589352Y-74392198D01*
X136574500Y-74485975D01*
X136574500Y-75099017D01*
X136585229Y-75166760D01*
X136589354Y-75192804D01*
X136646950Y-75305842D01*
X136646952Y-75305844D01*
X136646954Y-75305847D01*
X136736652Y-75395545D01*
X136736654Y-75395546D01*
X136736658Y-75395550D01*
X136806796Y-75431287D01*
X136857591Y-75479261D01*
X136874500Y-75541771D01*
X136874500Y-76043228D01*
X136854815Y-76110267D01*
X136806796Y-76153712D01*
X136736659Y-76189449D01*
X136736652Y-76189454D01*
X136646954Y-76279152D01*
X136646951Y-76279157D01*
X136589352Y-76392198D01*
X136574500Y-76485975D01*
X136574500Y-77099017D01*
X136584285Y-77160799D01*
X136589354Y-77192804D01*
X136646950Y-77305842D01*
X136646952Y-77305844D01*
X136646954Y-77305847D01*
X136736652Y-77395545D01*
X136736654Y-77395546D01*
X136736658Y-77395550D01*
X136806796Y-77431287D01*
X136857591Y-77479261D01*
X136874500Y-77541771D01*
X136874500Y-78215437D01*
X136854815Y-78282476D01*
X136812501Y-78322824D01*
X136692686Y-78392000D01*
X136692683Y-78392002D01*
X136599502Y-78485183D01*
X136599500Y-78485186D01*
X136533608Y-78599312D01*
X136503231Y-78712685D01*
X136499500Y-78726608D01*
X136499500Y-78858392D01*
X136501325Y-78865202D01*
X136533608Y-78985687D01*
X136585084Y-79074844D01*
X136601557Y-79142745D01*
X136583237Y-79201940D01*
X136563456Y-79234011D01*
X136563452Y-79234018D01*
X136510144Y-79394893D01*
X136500000Y-79494177D01*
X136500000Y-79542500D01*
X137326000Y-79542500D01*
X137393039Y-79562185D01*
X137438794Y-79614989D01*
X137450000Y-79666500D01*
X137450000Y-79792500D01*
X137576000Y-79792500D01*
X137643039Y-79812185D01*
X137688794Y-79864989D01*
X137700000Y-79916500D01*
X137700000Y-81668500D01*
X137680315Y-81735539D01*
X137627511Y-81781294D01*
X137576000Y-81792500D01*
X137450000Y-81792500D01*
X137450000Y-81918500D01*
X137430315Y-81985539D01*
X137377511Y-82031294D01*
X137326000Y-82042500D01*
X136500001Y-82042500D01*
X136500001Y-82090822D01*
X136510144Y-82190107D01*
X136563452Y-82350981D01*
X136563457Y-82350992D01*
X136652424Y-82495228D01*
X136652427Y-82495232D01*
X136772266Y-82615071D01*
X136891844Y-82688828D01*
X136895649Y-82693058D01*
X136900980Y-82695042D01*
X136918750Y-82718742D01*
X136938569Y-82740776D01*
X136939482Y-82746392D01*
X136942895Y-82750943D01*
X136945031Y-82780496D01*
X136949790Y-82809739D01*
X136947523Y-82814955D01*
X136947934Y-82820631D01*
X136933752Y-82846649D01*
X136921947Y-82873821D01*
X136916505Y-82878293D01*
X136914496Y-82881980D01*
X136901207Y-82890866D01*
X136886259Y-82903153D01*
X136873915Y-82909905D01*
X136868043Y-82911479D01*
X136815179Y-82942000D01*
X136813987Y-82942687D01*
X136813927Y-82942721D01*
X136799524Y-82951037D01*
X136799519Y-82951041D01*
X135917107Y-83833453D01*
X135917101Y-83833461D01*
X135877548Y-83901970D01*
X135877545Y-83901975D01*
X135863892Y-83952928D01*
X135857775Y-83975760D01*
X135857066Y-83978405D01*
X135857066Y-85082201D01*
X135837381Y-85149240D01*
X135784577Y-85194995D01*
X135715419Y-85204939D01*
X135651863Y-85175914D01*
X135645385Y-85169882D01*
X134261819Y-83786316D01*
X134228334Y-83724993D01*
X134225500Y-83698635D01*
X134225500Y-83609239D01*
X134216999Y-83550897D01*
X134215573Y-83541107D01*
X134164198Y-83436017D01*
X134164196Y-83436015D01*
X134164196Y-83436014D01*
X134081485Y-83353303D01*
X133976391Y-83301926D01*
X133908261Y-83292000D01*
X133908260Y-83292000D01*
X133025833Y-83292000D01*
X132958794Y-83272315D01*
X132938152Y-83255681D01*
X132684512Y-83002041D01*
X132684511Y-83002040D01*
X132653285Y-82984012D01*
X132653285Y-82984011D01*
X132653281Y-82984010D01*
X132640269Y-82976497D01*
X132615990Y-82962479D01*
X132615991Y-82962479D01*
X132573288Y-82951037D01*
X132539562Y-82942000D01*
X132539560Y-82942000D01*
X131765068Y-82942000D01*
X131698029Y-82922315D01*
X131654583Y-82874295D01*
X131598528Y-82764280D01*
X131598524Y-82764276D01*
X131598523Y-82764274D01*
X131503225Y-82668976D01*
X131503221Y-82668973D01*
X131503220Y-82668972D01*
X131383126Y-82607781D01*
X131383124Y-82607780D01*
X131383121Y-82607779D01*
X131283493Y-82592000D01*
X131283488Y-82592000D01*
X130716512Y-82592000D01*
X130716507Y-82592000D01*
X130616876Y-82607779D01*
X130527174Y-82653485D01*
X130470880Y-82667000D01*
X130001970Y-82667000D01*
X129934931Y-82647315D01*
X129889176Y-82594511D01*
X129884929Y-82583956D01*
X129858309Y-82507883D01*
X129852793Y-82492118D01*
X129772150Y-82382850D01*
X129662882Y-82302207D01*
X129662880Y-82302206D01*
X129534700Y-82257353D01*
X129504270Y-82254500D01*
X129504266Y-82254500D01*
X128495734Y-82254500D01*
X128495727Y-82254500D01*
X128492855Y-82254635D01*
X128424969Y-82238104D01*
X128376797Y-82187495D01*
X128363634Y-82118876D01*
X128389658Y-82054034D01*
X128399373Y-82043097D01*
X128938152Y-81504319D01*
X128956726Y-81494177D01*
X136500000Y-81494177D01*
X136500000Y-81542500D01*
X137200000Y-81542500D01*
X137200000Y-80042500D01*
X136500001Y-80042500D01*
X136500001Y-80090822D01*
X136510144Y-80190107D01*
X136563452Y-80350981D01*
X136563457Y-80350992D01*
X136652424Y-80495228D01*
X136652427Y-80495232D01*
X136772267Y-80615072D01*
X136772271Y-80615075D01*
X136888816Y-80686962D01*
X136935541Y-80738910D01*
X136946762Y-80807873D01*
X136918919Y-80871955D01*
X136888816Y-80898038D01*
X136772271Y-80969924D01*
X136772267Y-80969927D01*
X136652427Y-81089767D01*
X136652424Y-81089771D01*
X136563457Y-81234007D01*
X136563452Y-81234018D01*
X136510144Y-81394893D01*
X136500000Y-81494177D01*
X128956726Y-81494177D01*
X128999475Y-81470834D01*
X129025833Y-81468000D01*
X129483493Y-81468000D01*
X129583121Y-81452220D01*
X129583121Y-81452219D01*
X129583126Y-81452219D01*
X129703220Y-81391028D01*
X129798528Y-81295720D01*
X129859719Y-81175626D01*
X129865164Y-81141247D01*
X129875500Y-81075993D01*
X129875500Y-80509006D01*
X130124500Y-80509006D01*
X130124500Y-81075993D01*
X130140279Y-81175621D01*
X130140280Y-81175624D01*
X130140281Y-81175626D01*
X130201472Y-81295720D01*
X130201473Y-81295721D01*
X130201476Y-81295725D01*
X130296774Y-81391023D01*
X130296778Y-81391026D01*
X130296780Y-81391028D01*
X130416874Y-81452219D01*
X130416876Y-81452219D01*
X130416878Y-81452220D01*
X130516507Y-81468000D01*
X130516512Y-81468000D01*
X131033493Y-81468000D01*
X131133121Y-81452220D01*
X131133121Y-81452219D01*
X131133126Y-81452219D01*
X131253220Y-81391028D01*
X131348528Y-81295720D01*
X131409719Y-81175626D01*
X131409719Y-81175624D01*
X131414149Y-81166931D01*
X131416085Y-81167917D01*
X131422676Y-81158278D01*
X131432944Y-81135797D01*
X131442052Y-81129943D01*
X131448164Y-81121006D01*
X131470929Y-81111385D01*
X131491722Y-81098023D01*
X131508132Y-81095663D01*
X131512523Y-81093808D01*
X131526657Y-81093000D01*
X131642640Y-81093000D01*
X131709679Y-81112685D01*
X131755434Y-81165489D01*
X131760911Y-81183657D01*
X131761337Y-81183519D01*
X131764352Y-81192800D01*
X131764353Y-81192803D01*
X131764354Y-81192804D01*
X131821950Y-81305842D01*
X131821952Y-81305844D01*
X131821954Y-81305847D01*
X131911652Y-81395545D01*
X131911654Y-81395546D01*
X131911658Y-81395550D01*
X132022877Y-81452219D01*
X132024698Y-81453147D01*
X132118475Y-81467999D01*
X132118481Y-81468000D01*
X132581518Y-81467999D01*
X132675304Y-81453146D01*
X132788342Y-81395550D01*
X132878050Y-81305842D01*
X132935646Y-81192804D01*
X132935646Y-81192802D01*
X132935647Y-81192801D01*
X132947986Y-81114889D01*
X132950500Y-81099019D01*
X132950499Y-80485982D01*
X132935646Y-80392196D01*
X132878050Y-80279158D01*
X132878046Y-80279154D01*
X132878045Y-80279152D01*
X132788347Y-80189454D01*
X132788344Y-80189452D01*
X132788342Y-80189450D01*
X132711517Y-80150305D01*
X132675301Y-80131852D01*
X132581524Y-80117000D01*
X132118482Y-80117000D01*
X132037519Y-80129823D01*
X132024696Y-80131854D01*
X131911658Y-80189450D01*
X131911657Y-80189451D01*
X131911652Y-80189454D01*
X131821954Y-80279152D01*
X131821951Y-80279157D01*
X131764352Y-80392198D01*
X131761337Y-80401480D01*
X131758825Y-80400663D01*
X131750518Y-80418184D01*
X131736353Y-80449203D01*
X131735575Y-80449702D01*
X131735180Y-80450537D01*
X131706249Y-80468549D01*
X131677575Y-80486977D01*
X131676374Y-80487149D01*
X131675866Y-80487466D01*
X131642640Y-80492000D01*
X131526657Y-80492000D01*
X131459618Y-80472315D01*
X131413863Y-80419511D01*
X131410554Y-80411013D01*
X131405697Y-80401480D01*
X131348528Y-80289280D01*
X131348524Y-80289276D01*
X131348523Y-80289274D01*
X131253225Y-80193976D01*
X131253221Y-80193973D01*
X131253220Y-80193972D01*
X131133126Y-80132781D01*
X131133124Y-80132780D01*
X131133121Y-80132779D01*
X131033493Y-80117000D01*
X131033488Y-80117000D01*
X130516512Y-80117000D01*
X130516507Y-80117000D01*
X130416878Y-80132779D01*
X130296778Y-80193973D01*
X130296774Y-80193976D01*
X130201476Y-80289274D01*
X130201473Y-80289278D01*
X130201472Y-80289280D01*
X130144720Y-80400663D01*
X130140279Y-80409378D01*
X130124500Y-80509006D01*
X129875500Y-80509006D01*
X129859720Y-80409378D01*
X129859719Y-80409376D01*
X129859719Y-80409374D01*
X129798528Y-80289280D01*
X129798526Y-80289278D01*
X129798523Y-80289274D01*
X129703225Y-80193976D01*
X129703221Y-80193973D01*
X129703220Y-80193972D01*
X129583126Y-80132781D01*
X129583124Y-80132780D01*
X129583121Y-80132779D01*
X129483493Y-80117000D01*
X129483488Y-80117000D01*
X128966512Y-80117000D01*
X128966507Y-80117000D01*
X128866878Y-80132779D01*
X128746778Y-80193973D01*
X128746774Y-80193976D01*
X128651476Y-80289274D01*
X128651473Y-80289278D01*
X128651472Y-80289280D01*
X128594720Y-80400663D01*
X128590279Y-80409378D01*
X128574500Y-80509006D01*
X128574500Y-80966667D01*
X128554815Y-81033706D01*
X128538181Y-81054348D01*
X127758541Y-81833987D01*
X127758535Y-81833995D01*
X127718982Y-81902504D01*
X127718979Y-81902509D01*
X127710512Y-81934108D01*
X127698500Y-81978938D01*
X127000000Y-81978938D01*
X127000000Y-78817000D01*
X127019685Y-78749961D01*
X127072489Y-78704206D01*
X127124000Y-78693000D01*
X129069750Y-78693000D01*
X129069751Y-78692999D01*
X129084568Y-78690052D01*
X129128229Y-78681368D01*
X129128229Y-78681367D01*
X129128231Y-78681367D01*
X129194552Y-78637052D01*
X129238867Y-78570731D01*
X129238867Y-78570729D01*
X129238868Y-78570729D01*
X129250499Y-78512252D01*
X129250500Y-78512250D01*
X129250500Y-77072749D01*
X129250499Y-77072747D01*
X132549500Y-77072747D01*
X132549500Y-78512252D01*
X132561131Y-78570729D01*
X132561132Y-78570730D01*
X132605447Y-78637052D01*
X132671769Y-78681367D01*
X132671770Y-78681368D01*
X132730247Y-78692999D01*
X132730250Y-78693000D01*
X132730252Y-78693000D01*
X133575500Y-78693000D01*
X133642539Y-78712685D01*
X133688294Y-78765489D01*
X133699500Y-78817000D01*
X133699500Y-80043228D01*
X133679815Y-80110267D01*
X133631796Y-80153712D01*
X133561659Y-80189449D01*
X133561652Y-80189454D01*
X133471954Y-80279152D01*
X133471951Y-80279157D01*
X133414352Y-80392198D01*
X133399500Y-80485975D01*
X133399500Y-81099017D01*
X133406189Y-81141247D01*
X133414354Y-81192804D01*
X133471950Y-81305842D01*
X133471952Y-81305844D01*
X133471954Y-81305847D01*
X133561652Y-81395545D01*
X133561654Y-81395546D01*
X133561658Y-81395550D01*
X133672877Y-81452219D01*
X133674698Y-81453147D01*
X133768475Y-81467999D01*
X133768481Y-81468000D01*
X134231518Y-81467999D01*
X134325304Y-81453146D01*
X134438342Y-81395550D01*
X134528050Y-81305842D01*
X134585646Y-81192804D01*
X134585646Y-81192802D01*
X134585647Y-81192801D01*
X134597986Y-81114889D01*
X134600500Y-81099019D01*
X134600499Y-80485982D01*
X134585646Y-80392196D01*
X134528050Y-80279158D01*
X134528046Y-80279154D01*
X134528045Y-80279152D01*
X134438347Y-80189454D01*
X134438343Y-80189451D01*
X134438342Y-80189450D01*
X134436582Y-80188553D01*
X134368204Y-80153712D01*
X134317408Y-80105737D01*
X134300500Y-80043228D01*
X134300500Y-78817000D01*
X134320185Y-78749961D01*
X134372989Y-78704206D01*
X134424500Y-78693000D01*
X135269750Y-78693000D01*
X135269751Y-78692999D01*
X135284568Y-78690052D01*
X135328229Y-78681368D01*
X135328229Y-78681367D01*
X135328231Y-78681367D01*
X135394552Y-78637052D01*
X135438867Y-78570731D01*
X135438867Y-78570729D01*
X135438868Y-78570729D01*
X135450499Y-78512252D01*
X135450500Y-78512250D01*
X135450500Y-77072749D01*
X135450499Y-77072747D01*
X135438868Y-77014270D01*
X135438867Y-77014269D01*
X135394552Y-76947947D01*
X135328230Y-76903632D01*
X135328229Y-76903631D01*
X135269752Y-76892000D01*
X135269748Y-76892000D01*
X132730252Y-76892000D01*
X132730247Y-76892000D01*
X132671770Y-76903631D01*
X132671769Y-76903632D01*
X132605447Y-76947947D01*
X132561132Y-77014269D01*
X132561131Y-77014270D01*
X132549500Y-77072747D01*
X129250499Y-77072747D01*
X129238868Y-77014270D01*
X129238867Y-77014269D01*
X129194552Y-76947947D01*
X129128230Y-76903632D01*
X129128229Y-76903631D01*
X129069752Y-76892000D01*
X129069748Y-76892000D01*
X127124000Y-76892000D01*
X127056961Y-76872315D01*
X127011206Y-76819511D01*
X127000000Y-76768000D01*
X127000000Y-75817000D01*
X127019685Y-75749961D01*
X127072489Y-75704206D01*
X127124000Y-75693000D01*
X129069750Y-75693000D01*
X129069751Y-75692999D01*
X129084568Y-75690052D01*
X129128229Y-75681368D01*
X129128229Y-75681367D01*
X129128231Y-75681367D01*
X129194552Y-75637052D01*
X129238867Y-75570731D01*
X129238867Y-75570729D01*
X129238868Y-75570729D01*
X129244912Y-75540344D01*
X132250000Y-75540344D01*
X132256401Y-75599872D01*
X132256403Y-75599879D01*
X132306645Y-75734586D01*
X132306649Y-75734593D01*
X132392809Y-75849687D01*
X132392812Y-75849690D01*
X132507906Y-75935850D01*
X132507913Y-75935854D01*
X132642620Y-75986096D01*
X132642627Y-75986098D01*
X132702155Y-75992499D01*
X132702172Y-75992500D01*
X133750000Y-75992500D01*
X134250000Y-75992500D01*
X135297828Y-75992500D01*
X135297844Y-75992499D01*
X135357372Y-75986098D01*
X135357379Y-75986096D01*
X135492086Y-75935854D01*
X135492093Y-75935850D01*
X135607187Y-75849690D01*
X135607190Y-75849687D01*
X135693350Y-75734593D01*
X135693354Y-75734586D01*
X135743596Y-75599879D01*
X135743598Y-75599872D01*
X135749999Y-75540344D01*
X135750000Y-75540327D01*
X135750000Y-75042500D01*
X134250000Y-75042500D01*
X134250000Y-75992500D01*
X133750000Y-75992500D01*
X133750000Y-75042500D01*
X132250000Y-75042500D01*
X132250000Y-75540344D01*
X129244912Y-75540344D01*
X129250499Y-75512252D01*
X129250500Y-75512250D01*
X129250500Y-74072749D01*
X129250499Y-74072747D01*
X129249066Y-74065538D01*
X129249066Y-74065537D01*
X129244912Y-74044655D01*
X132250000Y-74044655D01*
X132250000Y-74542500D01*
X133750000Y-74542500D01*
X134250000Y-74542500D01*
X135750000Y-74542500D01*
X135750000Y-74044672D01*
X135749999Y-74044655D01*
X135743598Y-73985127D01*
X135743596Y-73985120D01*
X135693354Y-73850413D01*
X135693350Y-73850406D01*
X135607190Y-73735312D01*
X135607187Y-73735309D01*
X135492093Y-73649149D01*
X135492086Y-73649145D01*
X135357379Y-73598903D01*
X135357372Y-73598901D01*
X135297844Y-73592500D01*
X134250000Y-73592500D01*
X134250000Y-74542500D01*
X133750000Y-74542500D01*
X133750000Y-73592500D01*
X132702155Y-73592500D01*
X132642627Y-73598901D01*
X132642620Y-73598903D01*
X132507913Y-73649145D01*
X132507906Y-73649149D01*
X132392812Y-73735309D01*
X132392809Y-73735312D01*
X132306649Y-73850406D01*
X132306645Y-73850413D01*
X132256403Y-73985120D01*
X132256401Y-73985127D01*
X132250000Y-74044655D01*
X129244912Y-74044655D01*
X129238867Y-74014270D01*
X129238867Y-74014269D01*
X129194552Y-73947947D01*
X129128230Y-73903632D01*
X129128229Y-73903631D01*
X129069752Y-73892000D01*
X129069748Y-73892000D01*
X127124000Y-73892000D01*
X127056961Y-73872315D01*
X127011206Y-73819511D01*
X127000000Y-73768000D01*
X127000000Y-73051362D01*
X127019685Y-72984323D01*
X127036319Y-72963681D01*
X127963681Y-72036319D01*
X128025004Y-72002834D01*
X128051362Y-72000000D01*
X162948638Y-72000000D01*
X163015677Y-72019685D01*
G37*
%TD.AperFunction*%
%TD*%
%TA.AperFunction,Conductor*%
%TO.N,GND*%
G36*
X187015677Y-72019685D02*
G01*
X187036319Y-72036319D01*
X187963681Y-72963681D01*
X187997166Y-73025004D01*
X188000000Y-73051362D01*
X188000000Y-94948638D01*
X187980315Y-95015677D01*
X187963681Y-95036319D01*
X187036319Y-95963681D01*
X186974996Y-95997166D01*
X186948638Y-96000000D01*
X165051362Y-96000000D01*
X164984323Y-95980315D01*
X164963681Y-95963681D01*
X164313708Y-95313708D01*
X165826646Y-95313708D01*
X165888938Y-95376000D01*
X166474290Y-95376000D01*
X166536581Y-95313708D01*
X167240860Y-95313708D01*
X167303152Y-95376000D01*
X167888504Y-95376000D01*
X167950796Y-95313708D01*
X168655074Y-95313708D01*
X168717366Y-95376000D01*
X169302718Y-95376000D01*
X169365010Y-95313708D01*
X170069287Y-95313708D01*
X170131579Y-95376000D01*
X170716931Y-95376000D01*
X170779223Y-95313708D01*
X171483501Y-95313708D01*
X171545793Y-95376000D01*
X172131145Y-95376000D01*
X172193437Y-95313708D01*
X172897714Y-95313708D01*
X172960006Y-95376000D01*
X173545358Y-95376000D01*
X173607650Y-95313708D01*
X174311928Y-95313708D01*
X174374220Y-95376000D01*
X174959572Y-95376000D01*
X175021864Y-95313708D01*
X175726141Y-95313708D01*
X175788433Y-95376000D01*
X176373785Y-95376000D01*
X176436077Y-95313708D01*
X177140355Y-95313708D01*
X177202647Y-95376000D01*
X177787999Y-95376000D01*
X177850291Y-95313708D01*
X177850290Y-95313707D01*
X178554568Y-95313707D01*
X178616861Y-95376000D01*
X179202213Y-95376000D01*
X179264505Y-95313708D01*
X179968782Y-95313708D01*
X180031074Y-95376000D01*
X180616426Y-95376000D01*
X180678718Y-95313708D01*
X181382996Y-95313708D01*
X181445288Y-95376000D01*
X182030640Y-95376000D01*
X182092932Y-95313708D01*
X182797209Y-95313708D01*
X182859501Y-95376000D01*
X183444853Y-95376000D01*
X183507145Y-95313708D01*
X184211423Y-95313708D01*
X184273715Y-95376000D01*
X184859067Y-95376000D01*
X184921359Y-95313708D01*
X185625636Y-95313708D01*
X185687928Y-95376000D01*
X186273280Y-95376000D01*
X186335572Y-95313708D01*
X185980604Y-94958740D01*
X185625636Y-95313708D01*
X184921359Y-95313708D01*
X184566391Y-94958740D01*
X184211423Y-95313708D01*
X183507145Y-95313708D01*
X183152177Y-94958740D01*
X182797209Y-95313708D01*
X182092932Y-95313708D01*
X181737964Y-94958740D01*
X181382996Y-95313708D01*
X180678718Y-95313708D01*
X180323750Y-94958740D01*
X179968782Y-95313708D01*
X179264505Y-95313708D01*
X178909536Y-94958739D01*
X178554568Y-95313707D01*
X177850290Y-95313707D01*
X177495323Y-94958740D01*
X177140355Y-95313708D01*
X176436077Y-95313708D01*
X176081109Y-94958740D01*
X175726141Y-95313708D01*
X175021864Y-95313708D01*
X174666896Y-94958740D01*
X174311928Y-95313708D01*
X173607650Y-95313708D01*
X173252682Y-94958740D01*
X172897714Y-95313708D01*
X172193437Y-95313708D01*
X171838469Y-94958740D01*
X171483501Y-95313708D01*
X170779223Y-95313708D01*
X170424255Y-94958740D01*
X170069287Y-95313708D01*
X169365010Y-95313708D01*
X169010042Y-94958740D01*
X168655074Y-95313708D01*
X167950796Y-95313708D01*
X167595828Y-94958740D01*
X167240860Y-95313708D01*
X166536581Y-95313708D01*
X166536582Y-95313707D01*
X166181614Y-94958739D01*
X165826646Y-95313708D01*
X164313708Y-95313708D01*
X164000000Y-95000000D01*
X164000000Y-94606601D01*
X165119539Y-94606601D01*
X165474508Y-94961570D01*
X165829476Y-94606601D01*
X166533752Y-94606601D01*
X166888721Y-94961570D01*
X167243689Y-94606601D01*
X167947966Y-94606601D01*
X168302935Y-94961570D01*
X168657903Y-94606601D01*
X169362179Y-94606601D01*
X169717148Y-94961570D01*
X170072116Y-94606601D01*
X170776393Y-94606601D01*
X171131362Y-94961570D01*
X171486330Y-94606601D01*
X172190607Y-94606601D01*
X172545575Y-94961570D01*
X172900544Y-94606601D01*
X173604820Y-94606601D01*
X173959789Y-94961570D01*
X174314757Y-94606601D01*
X175019034Y-94606601D01*
X175374003Y-94961570D01*
X175728971Y-94606601D01*
X176433247Y-94606601D01*
X176788216Y-94961570D01*
X177143184Y-94606601D01*
X177847461Y-94606601D01*
X178202430Y-94961570D01*
X178557398Y-94606601D01*
X179261674Y-94606601D01*
X179616643Y-94961570D01*
X179971611Y-94606601D01*
X180675888Y-94606601D01*
X181030857Y-94961570D01*
X181385825Y-94606601D01*
X182090101Y-94606601D01*
X182445070Y-94961570D01*
X182800038Y-94606601D01*
X183504315Y-94606601D01*
X183859284Y-94961570D01*
X184214252Y-94606601D01*
X184918529Y-94606601D01*
X185273497Y-94961570D01*
X185628466Y-94606601D01*
X186332742Y-94606601D01*
X186687711Y-94961570D01*
X187042679Y-94606601D01*
X186687711Y-94251633D01*
X186332742Y-94606601D01*
X185628466Y-94606601D01*
X185273497Y-94251633D01*
X184918529Y-94606601D01*
X184214252Y-94606601D01*
X183859284Y-94251633D01*
X183504315Y-94606601D01*
X182800038Y-94606601D01*
X182445070Y-94251633D01*
X182090101Y-94606601D01*
X181385825Y-94606601D01*
X181030857Y-94251633D01*
X180675888Y-94606601D01*
X179971611Y-94606601D01*
X179616643Y-94251633D01*
X179261674Y-94606601D01*
X178557398Y-94606601D01*
X178202430Y-94251633D01*
X177847461Y-94606601D01*
X177143184Y-94606601D01*
X176788216Y-94251633D01*
X176433247Y-94606601D01*
X175728971Y-94606601D01*
X175374003Y-94251633D01*
X175019034Y-94606601D01*
X174314757Y-94606601D01*
X173959789Y-94251633D01*
X173604820Y-94606601D01*
X172900544Y-94606601D01*
X172545575Y-94251633D01*
X172190607Y-94606601D01*
X171486330Y-94606601D01*
X171131362Y-94251633D01*
X170776393Y-94606601D01*
X170072116Y-94606601D01*
X169717148Y-94251633D01*
X169362179Y-94606601D01*
X168657903Y-94606601D01*
X168302935Y-94251633D01*
X167947966Y-94606601D01*
X167243689Y-94606601D01*
X166888721Y-94251633D01*
X166533752Y-94606601D01*
X165829476Y-94606601D01*
X165474508Y-94251633D01*
X165119539Y-94606601D01*
X164000000Y-94606601D01*
X164000000Y-93687928D01*
X164624000Y-93687928D01*
X164624000Y-94111062D01*
X164767401Y-94254463D01*
X165122369Y-93899495D01*
X165826646Y-93899495D01*
X166181614Y-94254463D01*
X166536582Y-93899495D01*
X167240860Y-93899495D01*
X167595828Y-94254463D01*
X167950796Y-93899495D01*
X168655074Y-93899495D01*
X169010042Y-94254463D01*
X169365010Y-93899495D01*
X170069287Y-93899495D01*
X170424255Y-94254463D01*
X170779223Y-93899495D01*
X171483501Y-93899495D01*
X171838469Y-94254463D01*
X172193437Y-93899495D01*
X172897714Y-93899495D01*
X173252682Y-94254463D01*
X173607650Y-93899495D01*
X174311928Y-93899495D01*
X174666896Y-94254463D01*
X175021864Y-93899495D01*
X175726141Y-93899495D01*
X176081109Y-94254463D01*
X176436077Y-93899495D01*
X177140355Y-93899495D01*
X177495323Y-94254463D01*
X177850291Y-93899495D01*
X178554568Y-93899495D01*
X178909536Y-94254463D01*
X179264505Y-93899495D01*
X179968782Y-93899495D01*
X180323750Y-94254463D01*
X180678718Y-93899495D01*
X181382996Y-93899495D01*
X181737964Y-94254463D01*
X182092932Y-93899495D01*
X182797209Y-93899495D01*
X183152177Y-94254463D01*
X183507145Y-93899495D01*
X184211423Y-93899495D01*
X184566391Y-94254463D01*
X184921359Y-93899495D01*
X185625636Y-93899495D01*
X185980604Y-94254463D01*
X186335572Y-93899495D01*
X187039850Y-93899495D01*
X187376000Y-94235645D01*
X187376000Y-93563345D01*
X187039850Y-93899495D01*
X186335572Y-93899495D01*
X185980604Y-93544527D01*
X185625636Y-93899495D01*
X184921359Y-93899495D01*
X184566391Y-93544527D01*
X184211423Y-93899495D01*
X183507145Y-93899495D01*
X183152177Y-93544527D01*
X182797209Y-93899495D01*
X182092932Y-93899495D01*
X181737964Y-93544527D01*
X181382996Y-93899495D01*
X180678718Y-93899495D01*
X180323750Y-93544527D01*
X179968782Y-93899495D01*
X179264505Y-93899495D01*
X178909536Y-93544526D01*
X178554568Y-93899495D01*
X177850291Y-93899495D01*
X177495323Y-93544527D01*
X177140355Y-93899495D01*
X176436077Y-93899495D01*
X176081109Y-93544527D01*
X175726141Y-93899495D01*
X175021864Y-93899495D01*
X174666896Y-93544527D01*
X174311928Y-93899495D01*
X173607650Y-93899495D01*
X173252682Y-93544527D01*
X172897714Y-93899495D01*
X172193437Y-93899495D01*
X171838469Y-93544527D01*
X171483501Y-93899495D01*
X170779223Y-93899495D01*
X170424255Y-93544527D01*
X170069287Y-93899495D01*
X169365010Y-93899495D01*
X169010042Y-93544527D01*
X168655074Y-93899495D01*
X167950796Y-93899495D01*
X167595828Y-93544527D01*
X167240860Y-93899495D01*
X166536582Y-93899495D01*
X166181614Y-93544526D01*
X165826646Y-93899495D01*
X165122369Y-93899495D01*
X164767401Y-93544527D01*
X164624000Y-93687928D01*
X164000000Y-93687928D01*
X164000000Y-93192388D01*
X165119540Y-93192388D01*
X165474508Y-93547356D01*
X165829476Y-93192388D01*
X166533753Y-93192388D01*
X166888721Y-93547356D01*
X167243689Y-93192388D01*
X167947967Y-93192388D01*
X168302935Y-93547356D01*
X168657903Y-93192388D01*
X169362180Y-93192388D01*
X169717148Y-93547356D01*
X170072116Y-93192388D01*
X170776394Y-93192388D01*
X171131362Y-93547356D01*
X171486330Y-93192388D01*
X172190607Y-93192388D01*
X172545575Y-93547356D01*
X172900544Y-93192388D01*
X173604821Y-93192388D01*
X173959789Y-93547356D01*
X174314757Y-93192388D01*
X175019035Y-93192388D01*
X175374003Y-93547356D01*
X175728971Y-93192388D01*
X176433248Y-93192388D01*
X176788216Y-93547356D01*
X177143184Y-93192388D01*
X177847462Y-93192388D01*
X178202430Y-93547356D01*
X178557398Y-93192388D01*
X179261675Y-93192388D01*
X179616643Y-93547356D01*
X179971611Y-93192388D01*
X180675889Y-93192388D01*
X181030857Y-93547356D01*
X181385825Y-93192388D01*
X182090102Y-93192388D01*
X182445070Y-93547356D01*
X182800038Y-93192388D01*
X183504316Y-93192388D01*
X183859284Y-93547356D01*
X184214252Y-93192388D01*
X184918529Y-93192388D01*
X185273497Y-93547356D01*
X185628466Y-93192388D01*
X186332743Y-93192388D01*
X186687711Y-93547356D01*
X187042679Y-93192388D01*
X186687711Y-92837420D01*
X186332743Y-93192388D01*
X185628466Y-93192388D01*
X185273497Y-92837419D01*
X184918529Y-93192388D01*
X184214252Y-93192388D01*
X183859284Y-92837420D01*
X183504316Y-93192388D01*
X182800038Y-93192388D01*
X182445070Y-92837419D01*
X182090102Y-93192388D01*
X181385825Y-93192388D01*
X181030857Y-92837420D01*
X180675889Y-93192388D01*
X179971611Y-93192388D01*
X179616643Y-92837420D01*
X179261675Y-93192388D01*
X178557398Y-93192388D01*
X178202430Y-92837420D01*
X177847462Y-93192388D01*
X177143184Y-93192388D01*
X176788216Y-92837420D01*
X176433248Y-93192388D01*
X175728971Y-93192388D01*
X175374003Y-92837420D01*
X175019035Y-93192388D01*
X174314757Y-93192388D01*
X173959789Y-92837420D01*
X173604821Y-93192388D01*
X172900544Y-93192388D01*
X172545575Y-92837419D01*
X172190607Y-93192388D01*
X171486330Y-93192388D01*
X171131362Y-92837420D01*
X170776394Y-93192388D01*
X170072116Y-93192388D01*
X169717148Y-92837420D01*
X169362180Y-93192388D01*
X168657903Y-93192388D01*
X168302935Y-92837420D01*
X167947967Y-93192388D01*
X167243689Y-93192388D01*
X166888721Y-92837420D01*
X166533753Y-93192388D01*
X165829476Y-93192388D01*
X165474508Y-92837420D01*
X165119540Y-93192388D01*
X164000000Y-93192388D01*
X164000000Y-92273714D01*
X164624000Y-92273714D01*
X164624000Y-92696848D01*
X164767401Y-92840249D01*
X165122369Y-92485281D01*
X165826646Y-92485281D01*
X166181614Y-92840249D01*
X166536582Y-92485281D01*
X167240860Y-92485281D01*
X167595828Y-92840249D01*
X167950796Y-92485281D01*
X168655074Y-92485281D01*
X169010042Y-92840249D01*
X169365010Y-92485281D01*
X170069287Y-92485281D01*
X170424255Y-92840249D01*
X170779223Y-92485281D01*
X171483501Y-92485281D01*
X171838469Y-92840249D01*
X172193437Y-92485281D01*
X172897714Y-92485281D01*
X173252682Y-92840249D01*
X173607650Y-92485281D01*
X174311928Y-92485281D01*
X174666896Y-92840249D01*
X175021864Y-92485281D01*
X175726141Y-92485281D01*
X176081109Y-92840249D01*
X176436077Y-92485281D01*
X177140355Y-92485281D01*
X177495323Y-92840249D01*
X177850291Y-92485281D01*
X178554568Y-92485281D01*
X178909536Y-92840249D01*
X179264505Y-92485281D01*
X179968782Y-92485281D01*
X180323750Y-92840249D01*
X180678718Y-92485281D01*
X181382996Y-92485281D01*
X181737964Y-92840249D01*
X182092932Y-92485281D01*
X182797209Y-92485281D01*
X183152177Y-92840249D01*
X183507145Y-92485281D01*
X184211423Y-92485281D01*
X184566391Y-92840249D01*
X184921359Y-92485281D01*
X185625636Y-92485281D01*
X185980604Y-92840249D01*
X186335572Y-92485281D01*
X187039850Y-92485281D01*
X187376000Y-92821431D01*
X187376000Y-92149131D01*
X187039850Y-92485281D01*
X186335572Y-92485281D01*
X185980604Y-92130313D01*
X185625636Y-92485281D01*
X184921359Y-92485281D01*
X184566391Y-92130313D01*
X184211423Y-92485281D01*
X183507145Y-92485281D01*
X183152177Y-92130313D01*
X182797209Y-92485281D01*
X182092932Y-92485281D01*
X181737964Y-92130313D01*
X181382996Y-92485281D01*
X180678718Y-92485281D01*
X180323750Y-92130313D01*
X179968782Y-92485281D01*
X179264505Y-92485281D01*
X178909536Y-92130312D01*
X178554568Y-92485281D01*
X177850291Y-92485281D01*
X177495323Y-92130313D01*
X177140355Y-92485281D01*
X176436077Y-92485281D01*
X176081109Y-92130313D01*
X175726141Y-92485281D01*
X175021864Y-92485281D01*
X174666896Y-92130313D01*
X174311928Y-92485281D01*
X173607650Y-92485281D01*
X173252682Y-92130313D01*
X172897714Y-92485281D01*
X172193437Y-92485281D01*
X171838469Y-92130313D01*
X171483501Y-92485281D01*
X170779223Y-92485281D01*
X170424255Y-92130313D01*
X170069287Y-92485281D01*
X169365010Y-92485281D01*
X169010042Y-92130313D01*
X168655074Y-92485281D01*
X167950796Y-92485281D01*
X167595828Y-92130313D01*
X167240860Y-92485281D01*
X166536582Y-92485281D01*
X166181614Y-92130312D01*
X165826646Y-92485281D01*
X165122369Y-92485281D01*
X164767401Y-92130313D01*
X164624000Y-92273714D01*
X164000000Y-92273714D01*
X164000000Y-91778174D01*
X165119539Y-91778174D01*
X165474508Y-92133142D01*
X165829476Y-91778174D01*
X166533752Y-91778174D01*
X166888721Y-92133142D01*
X167243689Y-91778174D01*
X167947966Y-91778174D01*
X168302935Y-92133142D01*
X168657903Y-91778174D01*
X169362179Y-91778174D01*
X169717148Y-92133142D01*
X170072116Y-91778174D01*
X170776393Y-91778174D01*
X171131362Y-92133142D01*
X171486330Y-91778174D01*
X172190607Y-91778174D01*
X172545575Y-92133142D01*
X172900544Y-91778174D01*
X173604820Y-91778174D01*
X173959789Y-92133142D01*
X174314757Y-91778174D01*
X175019034Y-91778174D01*
X175374003Y-92133142D01*
X175728971Y-91778174D01*
X176433247Y-91778174D01*
X176788216Y-92133142D01*
X177143184Y-91778174D01*
X177847461Y-91778174D01*
X178202430Y-92133142D01*
X178557398Y-91778174D01*
X179261674Y-91778174D01*
X179616643Y-92133142D01*
X179971611Y-91778174D01*
X180675888Y-91778174D01*
X181030857Y-92133142D01*
X181385825Y-91778174D01*
X182090101Y-91778174D01*
X182445070Y-92133142D01*
X182800038Y-91778174D01*
X183504315Y-91778174D01*
X183859284Y-92133142D01*
X184214252Y-91778174D01*
X184918529Y-91778174D01*
X185273497Y-92133142D01*
X185628466Y-91778174D01*
X186332742Y-91778174D01*
X186687711Y-92133142D01*
X187042679Y-91778174D01*
X186687711Y-91423206D01*
X186332742Y-91778174D01*
X185628466Y-91778174D01*
X185273497Y-91423205D01*
X184918529Y-91778174D01*
X184214252Y-91778174D01*
X183859284Y-91423206D01*
X183504315Y-91778174D01*
X182800038Y-91778174D01*
X182445070Y-91423205D01*
X182090101Y-91778174D01*
X181385825Y-91778174D01*
X181030857Y-91423206D01*
X180675888Y-91778174D01*
X179971611Y-91778174D01*
X179616643Y-91423206D01*
X179261674Y-91778174D01*
X178557398Y-91778174D01*
X178202430Y-91423206D01*
X177847461Y-91778174D01*
X177143184Y-91778174D01*
X176788216Y-91423206D01*
X176433247Y-91778174D01*
X175728971Y-91778174D01*
X175374003Y-91423206D01*
X175019034Y-91778174D01*
X174314757Y-91778174D01*
X173959789Y-91423206D01*
X173604820Y-91778174D01*
X172900544Y-91778174D01*
X172545575Y-91423205D01*
X172190607Y-91778174D01*
X171486330Y-91778174D01*
X171131362Y-91423206D01*
X170776393Y-91778174D01*
X170072116Y-91778174D01*
X169717148Y-91423206D01*
X169362179Y-91778174D01*
X168657903Y-91778174D01*
X168302935Y-91423206D01*
X167947966Y-91778174D01*
X167243689Y-91778174D01*
X166888721Y-91423206D01*
X166533752Y-91778174D01*
X165829476Y-91778174D01*
X165474508Y-91423206D01*
X165119539Y-91778174D01*
X164000000Y-91778174D01*
X164000000Y-90859501D01*
X164624000Y-90859501D01*
X164624000Y-91282635D01*
X164767401Y-91426036D01*
X165122369Y-91071068D01*
X165826646Y-91071068D01*
X166181614Y-91426036D01*
X166536582Y-91071068D01*
X167240860Y-91071068D01*
X167595828Y-91426036D01*
X167950796Y-91071068D01*
X168655074Y-91071068D01*
X169010042Y-91426036D01*
X169365010Y-91071068D01*
X170069287Y-91071068D01*
X170424255Y-91426036D01*
X170779223Y-91071068D01*
X171483501Y-91071068D01*
X171838469Y-91426036D01*
X172193437Y-91071068D01*
X172897714Y-91071068D01*
X173252682Y-91426036D01*
X173607650Y-91071068D01*
X174311928Y-91071068D01*
X174666896Y-91426036D01*
X175021864Y-91071068D01*
X175726141Y-91071068D01*
X176081109Y-91426036D01*
X176436077Y-91071068D01*
X177140355Y-91071068D01*
X177495323Y-91426036D01*
X177850291Y-91071068D01*
X178554568Y-91071068D01*
X178909536Y-91426036D01*
X179264505Y-91071068D01*
X179968782Y-91071068D01*
X180323750Y-91426036D01*
X180678718Y-91071068D01*
X181382996Y-91071068D01*
X181737964Y-91426036D01*
X182092932Y-91071068D01*
X182797209Y-91071068D01*
X183152177Y-91426036D01*
X183507145Y-91071068D01*
X184211423Y-91071068D01*
X184566391Y-91426036D01*
X184921359Y-91071068D01*
X185625636Y-91071068D01*
X185980604Y-91426036D01*
X186335572Y-91071068D01*
X187039850Y-91071068D01*
X187376000Y-91407218D01*
X187376000Y-90734918D01*
X187039850Y-91071068D01*
X186335572Y-91071068D01*
X185980604Y-90716100D01*
X185625636Y-91071068D01*
X184921359Y-91071068D01*
X184566391Y-90716100D01*
X184211423Y-91071068D01*
X183507145Y-91071068D01*
X183152177Y-90716100D01*
X182797209Y-91071068D01*
X182092932Y-91071068D01*
X181737964Y-90716100D01*
X181382996Y-91071068D01*
X180678718Y-91071068D01*
X180323750Y-90716100D01*
X179968782Y-91071068D01*
X179264505Y-91071068D01*
X178909536Y-90716099D01*
X178554568Y-91071068D01*
X177850291Y-91071068D01*
X177495323Y-90716100D01*
X177140355Y-91071068D01*
X176436077Y-91071068D01*
X176081109Y-90716100D01*
X175726141Y-91071068D01*
X175021864Y-91071068D01*
X174666896Y-90716100D01*
X174311928Y-91071068D01*
X173607650Y-91071068D01*
X173252682Y-90716100D01*
X172897714Y-91071068D01*
X172193437Y-91071068D01*
X171838469Y-90716100D01*
X171483501Y-91071068D01*
X170779223Y-91071068D01*
X170424255Y-90716100D01*
X170069287Y-91071068D01*
X169365010Y-91071068D01*
X169010042Y-90716100D01*
X168655074Y-91071068D01*
X167950796Y-91071068D01*
X167595828Y-90716100D01*
X167240860Y-91071068D01*
X166536582Y-91071068D01*
X166181614Y-90716099D01*
X165826646Y-91071068D01*
X165122369Y-91071068D01*
X164767401Y-90716100D01*
X164624000Y-90859501D01*
X164000000Y-90859501D01*
X164000000Y-90363961D01*
X165119540Y-90363961D01*
X165474508Y-90718929D01*
X165829476Y-90363961D01*
X166533753Y-90363961D01*
X166888721Y-90718929D01*
X167243689Y-90363961D01*
X167947967Y-90363961D01*
X168302935Y-90718929D01*
X168657903Y-90363961D01*
X169362180Y-90363961D01*
X169717148Y-90718929D01*
X170072116Y-90363961D01*
X170776394Y-90363961D01*
X171131362Y-90718929D01*
X171486330Y-90363961D01*
X172190607Y-90363961D01*
X172545575Y-90718929D01*
X172900544Y-90363961D01*
X173604821Y-90363961D01*
X173959789Y-90718929D01*
X174314757Y-90363961D01*
X175019035Y-90363961D01*
X175374003Y-90718929D01*
X175728971Y-90363961D01*
X176433248Y-90363961D01*
X176788216Y-90718929D01*
X177143184Y-90363961D01*
X177847462Y-90363961D01*
X178202430Y-90718929D01*
X178557398Y-90363961D01*
X179261675Y-90363961D01*
X179616643Y-90718929D01*
X179971611Y-90363961D01*
X180675889Y-90363961D01*
X181030857Y-90718929D01*
X181385825Y-90363961D01*
X182090102Y-90363961D01*
X182445070Y-90718929D01*
X182800038Y-90363961D01*
X183504316Y-90363961D01*
X183859284Y-90718929D01*
X184214252Y-90363961D01*
X184918529Y-90363961D01*
X185273497Y-90718929D01*
X185628466Y-90363961D01*
X186332743Y-90363961D01*
X186687711Y-90718929D01*
X187042679Y-90363961D01*
X186687711Y-90008993D01*
X186332743Y-90363961D01*
X185628466Y-90363961D01*
X185273497Y-90008992D01*
X184918529Y-90363961D01*
X184214252Y-90363961D01*
X183859284Y-90008993D01*
X183504316Y-90363961D01*
X182800038Y-90363961D01*
X182445070Y-90008992D01*
X182090102Y-90363961D01*
X181385825Y-90363961D01*
X181030857Y-90008993D01*
X180675889Y-90363961D01*
X179971611Y-90363961D01*
X179616643Y-90008993D01*
X179261675Y-90363961D01*
X178557398Y-90363961D01*
X178202430Y-90008993D01*
X177847462Y-90363961D01*
X177143184Y-90363961D01*
X176788216Y-90008993D01*
X176433248Y-90363961D01*
X175728971Y-90363961D01*
X175374003Y-90008993D01*
X175019035Y-90363961D01*
X174314757Y-90363961D01*
X173959789Y-90008993D01*
X173604821Y-90363961D01*
X172900544Y-90363961D01*
X172545575Y-90008992D01*
X172190607Y-90363961D01*
X171486330Y-90363961D01*
X171131362Y-90008993D01*
X170776394Y-90363961D01*
X170072116Y-90363961D01*
X169717148Y-90008993D01*
X169362180Y-90363961D01*
X168657903Y-90363961D01*
X168302935Y-90008993D01*
X167947967Y-90363961D01*
X167243689Y-90363961D01*
X166888721Y-90008993D01*
X166533753Y-90363961D01*
X165829476Y-90363961D01*
X165474508Y-90008993D01*
X165119540Y-90363961D01*
X164000000Y-90363961D01*
X164000000Y-89445287D01*
X164624000Y-89445287D01*
X164624000Y-89868421D01*
X164767401Y-90011822D01*
X165122369Y-89656854D01*
X165826646Y-89656854D01*
X166181614Y-90011822D01*
X166536582Y-89656854D01*
X167240860Y-89656854D01*
X167595828Y-90011822D01*
X167950796Y-89656854D01*
X168655074Y-89656854D01*
X169010042Y-90011822D01*
X169365010Y-89656854D01*
X170069287Y-89656854D01*
X170424255Y-90011822D01*
X170779223Y-89656854D01*
X171483501Y-89656854D01*
X171838469Y-90011822D01*
X172193437Y-89656854D01*
X172897714Y-89656854D01*
X173252682Y-90011822D01*
X173607650Y-89656854D01*
X174311928Y-89656854D01*
X174666896Y-90011822D01*
X175021864Y-89656854D01*
X175726141Y-89656854D01*
X176081109Y-90011822D01*
X176436077Y-89656854D01*
X177140355Y-89656854D01*
X177495323Y-90011822D01*
X177850291Y-89656854D01*
X178554568Y-89656854D01*
X178909536Y-90011822D01*
X179264505Y-89656854D01*
X179968782Y-89656854D01*
X180323750Y-90011822D01*
X180678718Y-89656854D01*
X181382996Y-89656854D01*
X181737964Y-90011822D01*
X182092932Y-89656854D01*
X182797209Y-89656854D01*
X183152177Y-90011822D01*
X183507145Y-89656854D01*
X184211423Y-89656854D01*
X184566391Y-90011822D01*
X184921359Y-89656854D01*
X185625636Y-89656854D01*
X185980604Y-90011822D01*
X186335572Y-89656854D01*
X187039850Y-89656854D01*
X187376000Y-89993004D01*
X187376000Y-89320704D01*
X187039850Y-89656854D01*
X186335572Y-89656854D01*
X185980604Y-89301886D01*
X185625636Y-89656854D01*
X184921359Y-89656854D01*
X184566391Y-89301886D01*
X184211423Y-89656854D01*
X183507145Y-89656854D01*
X183152177Y-89301886D01*
X182797209Y-89656854D01*
X182092932Y-89656854D01*
X181737964Y-89301886D01*
X181382996Y-89656854D01*
X180678718Y-89656854D01*
X180323750Y-89301886D01*
X179968782Y-89656854D01*
X179264505Y-89656854D01*
X178909536Y-89301885D01*
X178554568Y-89656854D01*
X177850291Y-89656854D01*
X177495323Y-89301886D01*
X177140355Y-89656854D01*
X176436077Y-89656854D01*
X176081109Y-89301886D01*
X175726141Y-89656854D01*
X175021864Y-89656854D01*
X174666896Y-89301886D01*
X174311928Y-89656854D01*
X173607650Y-89656854D01*
X173252682Y-89301886D01*
X172897714Y-89656854D01*
X172193437Y-89656854D01*
X171838469Y-89301886D01*
X171483501Y-89656854D01*
X170779223Y-89656854D01*
X170424255Y-89301886D01*
X170069287Y-89656854D01*
X169365010Y-89656854D01*
X169010042Y-89301886D01*
X168655074Y-89656854D01*
X167950796Y-89656854D01*
X167595828Y-89301886D01*
X167240860Y-89656854D01*
X166536582Y-89656854D01*
X166181614Y-89301885D01*
X165826646Y-89656854D01*
X165122369Y-89656854D01*
X164767401Y-89301886D01*
X164624000Y-89445287D01*
X164000000Y-89445287D01*
X164000000Y-88949747D01*
X165119540Y-88949747D01*
X165474508Y-89304715D01*
X165829476Y-88949747D01*
X166533753Y-88949747D01*
X166888721Y-89304715D01*
X167243689Y-88949747D01*
X167947967Y-88949747D01*
X168302935Y-89304715D01*
X168657903Y-88949747D01*
X169362180Y-88949747D01*
X169717148Y-89304715D01*
X170072116Y-88949747D01*
X170776394Y-88949747D01*
X171131362Y-89304715D01*
X171486330Y-88949747D01*
X172190607Y-88949747D01*
X172545575Y-89304715D01*
X172900544Y-88949747D01*
X173604821Y-88949747D01*
X173959789Y-89304715D01*
X174314757Y-88949747D01*
X175019035Y-88949747D01*
X175374003Y-89304715D01*
X175728971Y-88949747D01*
X176433248Y-88949747D01*
X176788216Y-89304715D01*
X177143184Y-88949747D01*
X177847462Y-88949747D01*
X178202430Y-89304715D01*
X178557398Y-88949747D01*
X179261675Y-88949747D01*
X179616643Y-89304715D01*
X179971611Y-88949747D01*
X180675889Y-88949747D01*
X181030857Y-89304715D01*
X181385825Y-88949747D01*
X182090102Y-88949747D01*
X182445070Y-89304715D01*
X182800038Y-88949747D01*
X183504316Y-88949747D01*
X183859284Y-89304715D01*
X184214252Y-88949747D01*
X184918529Y-88949747D01*
X185273497Y-89304715D01*
X185628466Y-88949747D01*
X186332743Y-88949747D01*
X186687711Y-89304715D01*
X187042679Y-88949747D01*
X186687711Y-88594779D01*
X186332743Y-88949747D01*
X185628466Y-88949747D01*
X185273497Y-88594778D01*
X184918529Y-88949747D01*
X184214252Y-88949747D01*
X183859284Y-88594779D01*
X183504316Y-88949747D01*
X182800038Y-88949747D01*
X182445070Y-88594778D01*
X182090102Y-88949747D01*
X181385825Y-88949747D01*
X181030857Y-88594779D01*
X180675889Y-88949747D01*
X179971611Y-88949747D01*
X179616643Y-88594779D01*
X179261675Y-88949747D01*
X178557398Y-88949747D01*
X178202430Y-88594779D01*
X177847462Y-88949747D01*
X177143184Y-88949747D01*
X176788216Y-88594779D01*
X176433248Y-88949747D01*
X175728971Y-88949747D01*
X175374003Y-88594779D01*
X175019035Y-88949747D01*
X174314757Y-88949747D01*
X173959789Y-88594779D01*
X173604821Y-88949747D01*
X172900544Y-88949747D01*
X172545575Y-88594778D01*
X172190607Y-88949747D01*
X171486330Y-88949747D01*
X171131362Y-88594779D01*
X170776394Y-88949747D01*
X170072116Y-88949747D01*
X169717148Y-88594779D01*
X169362180Y-88949747D01*
X168657903Y-88949747D01*
X168302935Y-88594779D01*
X167947967Y-88949747D01*
X167243689Y-88949747D01*
X166888721Y-88594779D01*
X166533753Y-88949747D01*
X165829476Y-88949747D01*
X165474508Y-88594779D01*
X165119540Y-88949747D01*
X164000000Y-88949747D01*
X164000000Y-88031073D01*
X164624000Y-88031073D01*
X164624000Y-88454208D01*
X164767401Y-88597609D01*
X165122369Y-88242640D01*
X165826645Y-88242640D01*
X166181614Y-88597609D01*
X166536582Y-88242640D01*
X167240859Y-88242640D01*
X167595828Y-88597609D01*
X167950796Y-88242640D01*
X168655073Y-88242640D01*
X169010042Y-88597609D01*
X169365010Y-88242640D01*
X170069286Y-88242640D01*
X170424255Y-88597609D01*
X170779223Y-88242640D01*
X171483500Y-88242640D01*
X171838469Y-88597609D01*
X172193437Y-88242640D01*
X172897713Y-88242640D01*
X173252682Y-88597609D01*
X173607650Y-88242640D01*
X174311927Y-88242640D01*
X174666896Y-88597609D01*
X175021864Y-88242640D01*
X175726140Y-88242640D01*
X176081109Y-88597609D01*
X176436077Y-88242640D01*
X177140354Y-88242640D01*
X177495323Y-88597609D01*
X177850291Y-88242640D01*
X178554568Y-88242640D01*
X178909536Y-88597609D01*
X179264505Y-88242640D01*
X179968781Y-88242640D01*
X180323750Y-88597609D01*
X180678718Y-88242640D01*
X181382995Y-88242640D01*
X181737964Y-88597609D01*
X182092932Y-88242640D01*
X182797208Y-88242640D01*
X183152177Y-88597609D01*
X183507145Y-88242640D01*
X184211422Y-88242640D01*
X184566391Y-88597609D01*
X184921359Y-88242640D01*
X185625635Y-88242640D01*
X185980604Y-88597609D01*
X186335572Y-88242640D01*
X187039849Y-88242640D01*
X187376000Y-88578791D01*
X187376000Y-87906490D01*
X187039849Y-88242640D01*
X186335572Y-88242640D01*
X185980604Y-87887672D01*
X185625635Y-88242640D01*
X184921359Y-88242640D01*
X184566391Y-87887672D01*
X184211422Y-88242640D01*
X183507145Y-88242640D01*
X183152177Y-87887672D01*
X182797208Y-88242640D01*
X182092932Y-88242640D01*
X181737964Y-87887672D01*
X181382995Y-88242640D01*
X180678718Y-88242640D01*
X180323750Y-87887672D01*
X179968781Y-88242640D01*
X179264505Y-88242640D01*
X178909536Y-87887672D01*
X178554568Y-88242640D01*
X177850291Y-88242640D01*
X177495323Y-87887672D01*
X177140354Y-88242640D01*
X176436077Y-88242640D01*
X176081109Y-87887672D01*
X175726140Y-88242640D01*
X175021864Y-88242640D01*
X174666896Y-87887672D01*
X174311927Y-88242640D01*
X173607650Y-88242640D01*
X173252682Y-87887672D01*
X172897713Y-88242640D01*
X172193437Y-88242640D01*
X171838469Y-87887672D01*
X171483500Y-88242640D01*
X170779223Y-88242640D01*
X170424255Y-87887672D01*
X170069286Y-88242640D01*
X169365010Y-88242640D01*
X169010042Y-87887672D01*
X168655073Y-88242640D01*
X167950796Y-88242640D01*
X167595828Y-87887672D01*
X167240859Y-88242640D01*
X166536582Y-88242640D01*
X166181614Y-87887672D01*
X165826645Y-88242640D01*
X165122369Y-88242640D01*
X164767400Y-87887672D01*
X164624000Y-88031073D01*
X164000000Y-88031073D01*
X164000000Y-87535534D01*
X165119540Y-87535534D01*
X165474508Y-87890502D01*
X165829476Y-87535534D01*
X166533753Y-87535534D01*
X166888721Y-87890502D01*
X167243689Y-87535534D01*
X167947967Y-87535534D01*
X168302935Y-87890502D01*
X168657903Y-87535534D01*
X169362180Y-87535534D01*
X169717148Y-87890502D01*
X170072116Y-87535534D01*
X170776394Y-87535534D01*
X171131362Y-87890502D01*
X171486330Y-87535534D01*
X172190607Y-87535534D01*
X172545575Y-87890502D01*
X172900544Y-87535534D01*
X173604821Y-87535534D01*
X173959789Y-87890502D01*
X174314757Y-87535534D01*
X175019035Y-87535534D01*
X175374003Y-87890502D01*
X175728971Y-87535534D01*
X176433248Y-87535534D01*
X176788216Y-87890502D01*
X177143184Y-87535534D01*
X177847462Y-87535534D01*
X178202430Y-87890502D01*
X178557398Y-87535534D01*
X179261675Y-87535534D01*
X179616643Y-87890502D01*
X179971611Y-87535534D01*
X180675889Y-87535534D01*
X181030857Y-87890502D01*
X181385825Y-87535534D01*
X182090102Y-87535534D01*
X182445070Y-87890502D01*
X182800038Y-87535534D01*
X183504316Y-87535534D01*
X183859284Y-87890502D01*
X184214252Y-87535534D01*
X184918529Y-87535534D01*
X185273497Y-87890502D01*
X185628466Y-87535534D01*
X186332743Y-87535534D01*
X186687711Y-87890502D01*
X187042679Y-87535534D01*
X186687711Y-87180566D01*
X186332743Y-87535534D01*
X185628466Y-87535534D01*
X185273497Y-87180565D01*
X184918529Y-87535534D01*
X184214252Y-87535534D01*
X183859284Y-87180566D01*
X183504316Y-87535534D01*
X182800038Y-87535534D01*
X182445070Y-87180565D01*
X182090102Y-87535534D01*
X181385825Y-87535534D01*
X181030857Y-87180566D01*
X180675889Y-87535534D01*
X179971611Y-87535534D01*
X179616643Y-87180566D01*
X179261675Y-87535534D01*
X178557398Y-87535534D01*
X178202430Y-87180566D01*
X177847462Y-87535534D01*
X177143184Y-87535534D01*
X176788216Y-87180566D01*
X176433248Y-87535534D01*
X175728971Y-87535534D01*
X175374003Y-87180566D01*
X175019035Y-87535534D01*
X174314757Y-87535534D01*
X173959789Y-87180566D01*
X173604821Y-87535534D01*
X172900544Y-87535534D01*
X172545575Y-87180565D01*
X172190607Y-87535534D01*
X171486330Y-87535534D01*
X171131362Y-87180566D01*
X170776394Y-87535534D01*
X170072116Y-87535534D01*
X169717148Y-87180566D01*
X169362180Y-87535534D01*
X168657903Y-87535534D01*
X168302935Y-87180566D01*
X167947967Y-87535534D01*
X167243689Y-87535534D01*
X166888721Y-87180566D01*
X166533753Y-87535534D01*
X165829476Y-87535534D01*
X165474508Y-87180566D01*
X165119540Y-87535534D01*
X164000000Y-87535534D01*
X164000000Y-86616860D01*
X164624000Y-86616860D01*
X164624000Y-87039994D01*
X164767401Y-87183395D01*
X165122369Y-86828427D01*
X165826646Y-86828427D01*
X166181614Y-87183395D01*
X166536582Y-86828427D01*
X167240860Y-86828427D01*
X167595828Y-87183395D01*
X167950796Y-86828427D01*
X168655074Y-86828427D01*
X169010042Y-87183395D01*
X169365010Y-86828427D01*
X170069287Y-86828427D01*
X170424255Y-87183395D01*
X170779223Y-86828427D01*
X171483501Y-86828427D01*
X171838469Y-87183395D01*
X172193437Y-86828427D01*
X172897714Y-86828427D01*
X173252682Y-87183395D01*
X173607650Y-86828427D01*
X174311928Y-86828427D01*
X174666896Y-87183395D01*
X175021864Y-86828427D01*
X175726141Y-86828427D01*
X176081109Y-87183395D01*
X176436077Y-86828427D01*
X177140355Y-86828427D01*
X177495323Y-87183395D01*
X177850291Y-86828427D01*
X178554568Y-86828427D01*
X178909536Y-87183395D01*
X179264505Y-86828427D01*
X179968782Y-86828427D01*
X180323750Y-87183395D01*
X180678718Y-86828427D01*
X181382996Y-86828427D01*
X181737964Y-87183395D01*
X182092932Y-86828427D01*
X182797209Y-86828427D01*
X183152177Y-87183395D01*
X183507145Y-86828427D01*
X184211423Y-86828427D01*
X184566391Y-87183395D01*
X184921359Y-86828427D01*
X185625636Y-86828427D01*
X185980604Y-87183395D01*
X186335572Y-86828427D01*
X187039850Y-86828427D01*
X187376000Y-87164577D01*
X187376000Y-86492277D01*
X187039850Y-86828427D01*
X186335572Y-86828427D01*
X185980604Y-86473459D01*
X185625636Y-86828427D01*
X184921359Y-86828427D01*
X184566391Y-86473459D01*
X184211423Y-86828427D01*
X183507145Y-86828427D01*
X183152177Y-86473459D01*
X182797209Y-86828427D01*
X182092932Y-86828427D01*
X181737964Y-86473459D01*
X181382996Y-86828427D01*
X180678718Y-86828427D01*
X180323750Y-86473459D01*
X179968782Y-86828427D01*
X179264505Y-86828427D01*
X178909536Y-86473458D01*
X178554568Y-86828427D01*
X177850291Y-86828427D01*
X177495323Y-86473459D01*
X177140355Y-86828427D01*
X176436077Y-86828427D01*
X176081109Y-86473459D01*
X175726141Y-86828427D01*
X175021864Y-86828427D01*
X174666896Y-86473459D01*
X174311928Y-86828427D01*
X173607650Y-86828427D01*
X173252682Y-86473459D01*
X172897714Y-86828427D01*
X172193437Y-86828427D01*
X171838469Y-86473459D01*
X171483501Y-86828427D01*
X170779223Y-86828427D01*
X170424255Y-86473459D01*
X170069287Y-86828427D01*
X169365010Y-86828427D01*
X169010042Y-86473459D01*
X168655074Y-86828427D01*
X167950796Y-86828427D01*
X167595828Y-86473459D01*
X167240860Y-86828427D01*
X166536582Y-86828427D01*
X166181614Y-86473458D01*
X165826646Y-86828427D01*
X165122369Y-86828427D01*
X164767401Y-86473459D01*
X164624000Y-86616860D01*
X164000000Y-86616860D01*
X164000000Y-86121320D01*
X165119540Y-86121320D01*
X165474508Y-86476288D01*
X165829476Y-86121320D01*
X166533753Y-86121320D01*
X166888721Y-86476288D01*
X167243689Y-86121320D01*
X167947967Y-86121320D01*
X168302935Y-86476288D01*
X168657903Y-86121320D01*
X169362180Y-86121320D01*
X169717148Y-86476288D01*
X170072116Y-86121320D01*
X170776394Y-86121320D01*
X171131362Y-86476288D01*
X171486330Y-86121320D01*
X172190607Y-86121320D01*
X172545575Y-86476288D01*
X172900544Y-86121320D01*
X173604821Y-86121320D01*
X173959789Y-86476288D01*
X174314757Y-86121320D01*
X175019035Y-86121320D01*
X175374003Y-86476288D01*
X175728971Y-86121320D01*
X176433248Y-86121320D01*
X176788216Y-86476288D01*
X177143184Y-86121320D01*
X177847462Y-86121320D01*
X178202430Y-86476288D01*
X178557398Y-86121320D01*
X179261675Y-86121320D01*
X179616643Y-86476288D01*
X179971611Y-86121320D01*
X180675889Y-86121320D01*
X181030857Y-86476288D01*
X181385825Y-86121320D01*
X182090102Y-86121320D01*
X182445070Y-86476288D01*
X182800038Y-86121320D01*
X183504316Y-86121320D01*
X183859284Y-86476288D01*
X184214252Y-86121320D01*
X184918529Y-86121320D01*
X185273497Y-86476288D01*
X185628466Y-86121320D01*
X186332743Y-86121320D01*
X186687711Y-86476288D01*
X187042679Y-86121320D01*
X186687711Y-85766352D01*
X186332743Y-86121320D01*
X185628466Y-86121320D01*
X185273497Y-85766351D01*
X184918529Y-86121320D01*
X184214252Y-86121320D01*
X183859284Y-85766352D01*
X183504316Y-86121320D01*
X182800038Y-86121320D01*
X182445070Y-85766351D01*
X182090102Y-86121320D01*
X181385825Y-86121320D01*
X181030857Y-85766352D01*
X180675889Y-86121320D01*
X179971611Y-86121320D01*
X179616643Y-85766352D01*
X179261675Y-86121320D01*
X178557398Y-86121320D01*
X178202430Y-85766352D01*
X177847462Y-86121320D01*
X177143184Y-86121320D01*
X176788216Y-85766352D01*
X176433248Y-86121320D01*
X175728971Y-86121320D01*
X175374003Y-85766352D01*
X175019035Y-86121320D01*
X174314757Y-86121320D01*
X173959789Y-85766352D01*
X173604821Y-86121320D01*
X172900544Y-86121320D01*
X172545575Y-85766351D01*
X172190607Y-86121320D01*
X171486330Y-86121320D01*
X171131362Y-85766352D01*
X170776394Y-86121320D01*
X170072116Y-86121320D01*
X169717148Y-85766352D01*
X169362180Y-86121320D01*
X168657903Y-86121320D01*
X168302935Y-85766352D01*
X167947967Y-86121320D01*
X167243689Y-86121320D01*
X166888721Y-85766352D01*
X166533753Y-86121320D01*
X165829476Y-86121320D01*
X165474508Y-85766352D01*
X165119540Y-86121320D01*
X164000000Y-86121320D01*
X164000000Y-85202646D01*
X164624000Y-85202646D01*
X164624000Y-85625780D01*
X164767401Y-85769181D01*
X165122369Y-85414213D01*
X165826646Y-85414213D01*
X166181614Y-85769181D01*
X166536582Y-85414213D01*
X167240860Y-85414213D01*
X167595828Y-85769181D01*
X167950796Y-85414213D01*
X168655074Y-85414213D01*
X169010042Y-85769181D01*
X169365010Y-85414213D01*
X170069287Y-85414213D01*
X170424255Y-85769181D01*
X170779223Y-85414213D01*
X171483501Y-85414213D01*
X171838469Y-85769181D01*
X172193437Y-85414213D01*
X172897714Y-85414213D01*
X173252682Y-85769181D01*
X173607650Y-85414213D01*
X174311928Y-85414213D01*
X174666896Y-85769181D01*
X175021864Y-85414213D01*
X175726141Y-85414213D01*
X176081109Y-85769181D01*
X176436077Y-85414213D01*
X177140355Y-85414213D01*
X177495323Y-85769181D01*
X177850291Y-85414213D01*
X178554568Y-85414213D01*
X178909536Y-85769181D01*
X179264505Y-85414213D01*
X179968782Y-85414213D01*
X180323750Y-85769181D01*
X180678718Y-85414213D01*
X181382996Y-85414213D01*
X181737964Y-85769181D01*
X182092932Y-85414213D01*
X182797209Y-85414213D01*
X183152177Y-85769181D01*
X183507145Y-85414213D01*
X184211423Y-85414213D01*
X184566391Y-85769181D01*
X184921359Y-85414213D01*
X185625636Y-85414213D01*
X185980604Y-85769181D01*
X186335572Y-85414213D01*
X187039850Y-85414213D01*
X187376000Y-85750363D01*
X187376000Y-85078063D01*
X187039850Y-85414213D01*
X186335572Y-85414213D01*
X185980604Y-85059245D01*
X185625636Y-85414213D01*
X184921359Y-85414213D01*
X184566391Y-85059245D01*
X184211423Y-85414213D01*
X183507145Y-85414213D01*
X183152177Y-85059245D01*
X182797209Y-85414213D01*
X182092932Y-85414213D01*
X181737964Y-85059245D01*
X181382996Y-85414213D01*
X180678718Y-85414213D01*
X180323750Y-85059245D01*
X179968782Y-85414213D01*
X179264505Y-85414213D01*
X178909536Y-85059244D01*
X178554568Y-85414213D01*
X177850291Y-85414213D01*
X177495323Y-85059245D01*
X177140355Y-85414213D01*
X176436077Y-85414213D01*
X176081109Y-85059245D01*
X175726141Y-85414213D01*
X175021864Y-85414213D01*
X174666896Y-85059245D01*
X174311928Y-85414213D01*
X173607650Y-85414213D01*
X173252682Y-85059245D01*
X172897714Y-85414213D01*
X172193437Y-85414213D01*
X171838469Y-85059245D01*
X171483501Y-85414213D01*
X170779223Y-85414213D01*
X170424255Y-85059245D01*
X170069287Y-85414213D01*
X169365010Y-85414213D01*
X169010042Y-85059245D01*
X168655074Y-85414213D01*
X167950796Y-85414213D01*
X167595828Y-85059245D01*
X167240860Y-85414213D01*
X166536582Y-85414213D01*
X166181614Y-85059244D01*
X165826646Y-85414213D01*
X165122369Y-85414213D01*
X164767401Y-85059245D01*
X164624000Y-85202646D01*
X164000000Y-85202646D01*
X164000000Y-84707107D01*
X165119540Y-84707107D01*
X165474508Y-85062075D01*
X165829476Y-84707107D01*
X166533753Y-84707107D01*
X166888721Y-85062075D01*
X167243689Y-84707107D01*
X167947967Y-84707107D01*
X168302935Y-85062075D01*
X168657903Y-84707107D01*
X169362180Y-84707107D01*
X169717148Y-85062075D01*
X170072116Y-84707107D01*
X170776394Y-84707107D01*
X171131362Y-85062075D01*
X171486330Y-84707107D01*
X172190607Y-84707107D01*
X172545575Y-85062075D01*
X172900544Y-84707107D01*
X173604821Y-84707107D01*
X173959789Y-85062075D01*
X174314757Y-84707107D01*
X175019035Y-84707107D01*
X175374003Y-85062075D01*
X175728971Y-84707107D01*
X176433248Y-84707107D01*
X176788216Y-85062075D01*
X177143184Y-84707107D01*
X177847462Y-84707107D01*
X178202430Y-85062075D01*
X178557398Y-84707107D01*
X179261675Y-84707107D01*
X179616643Y-85062075D01*
X179971611Y-84707107D01*
X180675889Y-84707107D01*
X181030857Y-85062075D01*
X181385825Y-84707107D01*
X182090102Y-84707107D01*
X182445070Y-85062075D01*
X182800038Y-84707107D01*
X183504316Y-84707107D01*
X183859284Y-85062075D01*
X184214252Y-84707107D01*
X184918529Y-84707107D01*
X185273497Y-85062075D01*
X185628466Y-84707107D01*
X186332743Y-84707107D01*
X186687711Y-85062075D01*
X187042679Y-84707107D01*
X186687711Y-84352139D01*
X186332743Y-84707107D01*
X185628466Y-84707107D01*
X185273497Y-84352138D01*
X184918529Y-84707107D01*
X184214252Y-84707107D01*
X183859284Y-84352139D01*
X183504316Y-84707107D01*
X182800038Y-84707107D01*
X182445070Y-84352138D01*
X182090102Y-84707107D01*
X181385825Y-84707107D01*
X181030857Y-84352139D01*
X180675889Y-84707107D01*
X179971611Y-84707107D01*
X179616643Y-84352139D01*
X179261675Y-84707107D01*
X178557398Y-84707107D01*
X178202430Y-84352139D01*
X177847462Y-84707107D01*
X177143184Y-84707107D01*
X176788216Y-84352139D01*
X176433248Y-84707107D01*
X175728971Y-84707107D01*
X175374003Y-84352139D01*
X175019035Y-84707107D01*
X174314757Y-84707107D01*
X173959789Y-84352139D01*
X173604821Y-84707107D01*
X172900544Y-84707107D01*
X172545575Y-84352138D01*
X172190607Y-84707107D01*
X171486330Y-84707107D01*
X171131362Y-84352139D01*
X170776394Y-84707107D01*
X170072116Y-84707107D01*
X169717148Y-84352139D01*
X169362180Y-84707107D01*
X168657903Y-84707107D01*
X168302935Y-84352139D01*
X167947967Y-84707107D01*
X167243689Y-84707107D01*
X166888721Y-84352139D01*
X166533753Y-84707107D01*
X165829476Y-84707107D01*
X165474508Y-84352139D01*
X165119540Y-84707107D01*
X164000000Y-84707107D01*
X164000000Y-83788433D01*
X164624000Y-83788433D01*
X164624000Y-84211567D01*
X164767401Y-84354968D01*
X165122369Y-84000000D01*
X165826646Y-84000000D01*
X166181614Y-84354968D01*
X166536582Y-84000000D01*
X167240860Y-84000000D01*
X167595828Y-84354968D01*
X167950796Y-84000000D01*
X168655074Y-84000000D01*
X169010042Y-84354968D01*
X169365010Y-84000000D01*
X170069287Y-84000000D01*
X170424255Y-84354968D01*
X170779223Y-84000000D01*
X171483501Y-84000000D01*
X171838469Y-84354968D01*
X172193437Y-84000000D01*
X172897714Y-84000000D01*
X173252682Y-84354968D01*
X173607650Y-84000000D01*
X174311928Y-84000000D01*
X174666896Y-84354968D01*
X175021864Y-84000000D01*
X175726141Y-84000000D01*
X176081109Y-84354968D01*
X176436077Y-84000000D01*
X177140355Y-84000000D01*
X177495323Y-84354968D01*
X177850291Y-84000000D01*
X178554568Y-84000000D01*
X178909536Y-84354968D01*
X179264505Y-84000000D01*
X179968782Y-84000000D01*
X180323750Y-84354968D01*
X180678718Y-84000000D01*
X181382996Y-84000000D01*
X181737964Y-84354968D01*
X182092932Y-84000000D01*
X182797209Y-84000000D01*
X183152177Y-84354968D01*
X183507145Y-84000000D01*
X184211423Y-84000000D01*
X184566391Y-84354968D01*
X184921359Y-84000000D01*
X185625636Y-84000000D01*
X185980604Y-84354968D01*
X186335572Y-84000000D01*
X187039850Y-84000000D01*
X187376000Y-84336150D01*
X187376000Y-83663850D01*
X187039850Y-84000000D01*
X186335572Y-84000000D01*
X185980604Y-83645032D01*
X185625636Y-84000000D01*
X184921359Y-84000000D01*
X184566391Y-83645032D01*
X184211423Y-84000000D01*
X183507145Y-84000000D01*
X183152177Y-83645032D01*
X182797209Y-84000000D01*
X182092932Y-84000000D01*
X181737964Y-83645032D01*
X181382996Y-84000000D01*
X180678718Y-84000000D01*
X180323750Y-83645032D01*
X179968782Y-84000000D01*
X179264505Y-84000000D01*
X178909536Y-83645031D01*
X178554568Y-84000000D01*
X177850291Y-84000000D01*
X177495323Y-83645032D01*
X177140355Y-84000000D01*
X176436077Y-84000000D01*
X176081109Y-83645032D01*
X175726141Y-84000000D01*
X175021864Y-84000000D01*
X174666896Y-83645032D01*
X174311928Y-84000000D01*
X173607650Y-84000000D01*
X173252682Y-83645032D01*
X172897714Y-84000000D01*
X172193437Y-84000000D01*
X171838469Y-83645032D01*
X171483501Y-84000000D01*
X170779223Y-84000000D01*
X170424255Y-83645032D01*
X170069287Y-84000000D01*
X169365010Y-84000000D01*
X169010042Y-83645032D01*
X168655074Y-84000000D01*
X167950796Y-84000000D01*
X167595828Y-83645032D01*
X167240860Y-84000000D01*
X166536582Y-84000000D01*
X166181614Y-83645031D01*
X165826646Y-84000000D01*
X165122369Y-84000000D01*
X164767401Y-83645032D01*
X164624000Y-83788433D01*
X164000000Y-83788433D01*
X164000000Y-83292893D01*
X165119540Y-83292893D01*
X165474508Y-83647861D01*
X165829476Y-83292893D01*
X166533753Y-83292893D01*
X166888721Y-83647861D01*
X167243689Y-83292893D01*
X167947967Y-83292893D01*
X168302935Y-83647861D01*
X168657903Y-83292893D01*
X169362180Y-83292893D01*
X169717148Y-83647861D01*
X170072116Y-83292893D01*
X170776394Y-83292893D01*
X171131362Y-83647861D01*
X171486330Y-83292893D01*
X172190607Y-83292893D01*
X172545575Y-83647861D01*
X172900544Y-83292893D01*
X173604821Y-83292893D01*
X173959789Y-83647861D01*
X174314757Y-83292893D01*
X175019035Y-83292893D01*
X175374003Y-83647861D01*
X175728971Y-83292893D01*
X176433248Y-83292893D01*
X176788216Y-83647861D01*
X177143184Y-83292893D01*
X177847462Y-83292893D01*
X178202430Y-83647861D01*
X178557398Y-83292893D01*
X179261675Y-83292893D01*
X179616643Y-83647861D01*
X179971611Y-83292893D01*
X180675889Y-83292893D01*
X181030857Y-83647861D01*
X181385825Y-83292893D01*
X182090102Y-83292893D01*
X182445070Y-83647861D01*
X182800038Y-83292893D01*
X183504316Y-83292893D01*
X183859284Y-83647861D01*
X184214252Y-83292893D01*
X184918529Y-83292893D01*
X185273497Y-83647861D01*
X185628466Y-83292893D01*
X186332743Y-83292893D01*
X186687711Y-83647861D01*
X187042679Y-83292893D01*
X186687711Y-82937925D01*
X186332743Y-83292893D01*
X185628466Y-83292893D01*
X185273497Y-82937924D01*
X184918529Y-83292893D01*
X184214252Y-83292893D01*
X183859284Y-82937925D01*
X183504316Y-83292893D01*
X182800038Y-83292893D01*
X182445070Y-82937924D01*
X182090102Y-83292893D01*
X181385825Y-83292893D01*
X181030857Y-82937925D01*
X180675889Y-83292893D01*
X179971611Y-83292893D01*
X179616643Y-82937925D01*
X179261675Y-83292893D01*
X178557398Y-83292893D01*
X178202430Y-82937925D01*
X177847462Y-83292893D01*
X177143184Y-83292893D01*
X176788216Y-82937925D01*
X176433248Y-83292893D01*
X175728971Y-83292893D01*
X175374003Y-82937925D01*
X175019035Y-83292893D01*
X174314757Y-83292893D01*
X173959789Y-82937925D01*
X173604821Y-83292893D01*
X172900544Y-83292893D01*
X172545575Y-82937924D01*
X172190607Y-83292893D01*
X171486330Y-83292893D01*
X171131362Y-82937925D01*
X170776394Y-83292893D01*
X170072116Y-83292893D01*
X169717148Y-82937925D01*
X169362180Y-83292893D01*
X168657903Y-83292893D01*
X168302935Y-82937925D01*
X167947967Y-83292893D01*
X167243689Y-83292893D01*
X166888721Y-82937925D01*
X166533753Y-83292893D01*
X165829476Y-83292893D01*
X165474508Y-82937925D01*
X165119540Y-83292893D01*
X164000000Y-83292893D01*
X164000000Y-82374219D01*
X164624000Y-82374219D01*
X164624000Y-82797353D01*
X164767401Y-82940754D01*
X165122369Y-82585786D01*
X165826646Y-82585786D01*
X166181614Y-82940754D01*
X166536582Y-82585786D01*
X167240860Y-82585786D01*
X167595828Y-82940754D01*
X167950796Y-82585786D01*
X168655074Y-82585786D01*
X169010042Y-82940754D01*
X169365010Y-82585786D01*
X170069287Y-82585786D01*
X170424255Y-82940754D01*
X170779223Y-82585786D01*
X171483501Y-82585786D01*
X171838469Y-82940754D01*
X172193437Y-82585786D01*
X172897714Y-82585786D01*
X173252682Y-82940754D01*
X173607650Y-82585786D01*
X174311928Y-82585786D01*
X174666896Y-82940754D01*
X175021864Y-82585786D01*
X175726141Y-82585786D01*
X176081109Y-82940754D01*
X176436077Y-82585786D01*
X177140355Y-82585786D01*
X177495323Y-82940754D01*
X177850291Y-82585786D01*
X178554568Y-82585786D01*
X178909536Y-82940754D01*
X179264505Y-82585786D01*
X179968782Y-82585786D01*
X180323750Y-82940754D01*
X180678718Y-82585786D01*
X181382996Y-82585786D01*
X181737964Y-82940754D01*
X182092932Y-82585786D01*
X182797209Y-82585786D01*
X183152177Y-82940754D01*
X183507145Y-82585786D01*
X184211423Y-82585786D01*
X184566391Y-82940754D01*
X184921359Y-82585786D01*
X185625636Y-82585786D01*
X185980604Y-82940754D01*
X186335572Y-82585786D01*
X187039850Y-82585786D01*
X187376000Y-82921936D01*
X187376000Y-82249636D01*
X187039850Y-82585786D01*
X186335572Y-82585786D01*
X185980604Y-82230818D01*
X185625636Y-82585786D01*
X184921359Y-82585786D01*
X184566391Y-82230818D01*
X184211423Y-82585786D01*
X183507145Y-82585786D01*
X183152177Y-82230818D01*
X182797209Y-82585786D01*
X182092932Y-82585786D01*
X181737964Y-82230818D01*
X181382996Y-82585786D01*
X180678718Y-82585786D01*
X180323750Y-82230818D01*
X179968782Y-82585786D01*
X179264505Y-82585786D01*
X178909536Y-82230817D01*
X178554568Y-82585786D01*
X177850291Y-82585786D01*
X177495323Y-82230818D01*
X177140355Y-82585786D01*
X176436077Y-82585786D01*
X176081109Y-82230818D01*
X175726141Y-82585786D01*
X175021864Y-82585786D01*
X174666896Y-82230818D01*
X174311928Y-82585786D01*
X173607650Y-82585786D01*
X173252682Y-82230818D01*
X172897714Y-82585786D01*
X172193437Y-82585786D01*
X171838469Y-82230818D01*
X171483501Y-82585786D01*
X170779223Y-82585786D01*
X170424255Y-82230818D01*
X170069287Y-82585786D01*
X169365010Y-82585786D01*
X169010042Y-82230818D01*
X168655074Y-82585786D01*
X167950796Y-82585786D01*
X167595828Y-82230818D01*
X167240860Y-82585786D01*
X166536582Y-82585786D01*
X166181614Y-82230817D01*
X165826646Y-82585786D01*
X165122369Y-82585786D01*
X164767401Y-82230818D01*
X164624000Y-82374219D01*
X164000000Y-82374219D01*
X164000000Y-81878679D01*
X165119539Y-81878679D01*
X165474508Y-82233647D01*
X165829476Y-81878679D01*
X166533752Y-81878679D01*
X166888721Y-82233647D01*
X167243689Y-81878679D01*
X167947966Y-81878679D01*
X168302935Y-82233647D01*
X168657903Y-81878679D01*
X169362179Y-81878679D01*
X169717148Y-82233647D01*
X170072116Y-81878679D01*
X170776393Y-81878679D01*
X171131362Y-82233647D01*
X171486330Y-81878679D01*
X172190607Y-81878679D01*
X172545575Y-82233647D01*
X172900544Y-81878679D01*
X173604820Y-81878679D01*
X173959789Y-82233647D01*
X174314757Y-81878679D01*
X175019034Y-81878679D01*
X175374003Y-82233647D01*
X175728971Y-81878679D01*
X176433247Y-81878679D01*
X176788216Y-82233647D01*
X177143184Y-81878679D01*
X177847461Y-81878679D01*
X178202430Y-82233647D01*
X178557398Y-81878679D01*
X179261674Y-81878679D01*
X179616643Y-82233647D01*
X179971611Y-81878679D01*
X180675888Y-81878679D01*
X181030857Y-82233647D01*
X181385825Y-81878679D01*
X182090101Y-81878679D01*
X182445070Y-82233647D01*
X182800038Y-81878679D01*
X183504315Y-81878679D01*
X183859284Y-82233647D01*
X184214252Y-81878679D01*
X184918529Y-81878679D01*
X185273497Y-82233647D01*
X185628466Y-81878679D01*
X186332742Y-81878679D01*
X186687711Y-82233647D01*
X187042679Y-81878679D01*
X186687711Y-81523711D01*
X186332742Y-81878679D01*
X185628466Y-81878679D01*
X185273497Y-81523710D01*
X184918529Y-81878679D01*
X184214252Y-81878679D01*
X183859284Y-81523711D01*
X183504315Y-81878679D01*
X182800038Y-81878679D01*
X182445070Y-81523710D01*
X182090101Y-81878679D01*
X181385825Y-81878679D01*
X181030857Y-81523711D01*
X180675888Y-81878679D01*
X179971611Y-81878679D01*
X179616643Y-81523711D01*
X179261674Y-81878679D01*
X178557398Y-81878679D01*
X178202430Y-81523711D01*
X177847461Y-81878679D01*
X177143184Y-81878679D01*
X176788216Y-81523711D01*
X176433247Y-81878679D01*
X175728971Y-81878679D01*
X175374003Y-81523711D01*
X175019034Y-81878679D01*
X174314757Y-81878679D01*
X173959789Y-81523711D01*
X173604820Y-81878679D01*
X172900544Y-81878679D01*
X172545575Y-81523710D01*
X172190607Y-81878679D01*
X171486330Y-81878679D01*
X171131362Y-81523711D01*
X170776393Y-81878679D01*
X170072116Y-81878679D01*
X169717148Y-81523711D01*
X169362179Y-81878679D01*
X168657903Y-81878679D01*
X168302935Y-81523711D01*
X167947966Y-81878679D01*
X167243689Y-81878679D01*
X166888721Y-81523711D01*
X166533752Y-81878679D01*
X165829476Y-81878679D01*
X165474508Y-81523711D01*
X165119539Y-81878679D01*
X164000000Y-81878679D01*
X164000000Y-80960006D01*
X164624000Y-80960006D01*
X164624000Y-81383140D01*
X164767401Y-81526541D01*
X165122369Y-81171573D01*
X165826646Y-81171573D01*
X166181614Y-81526541D01*
X166536582Y-81171573D01*
X167240860Y-81171573D01*
X167595828Y-81526541D01*
X167950796Y-81171573D01*
X168655074Y-81171573D01*
X169010042Y-81526541D01*
X169365010Y-81171573D01*
X170069287Y-81171573D01*
X170424255Y-81526541D01*
X170779223Y-81171573D01*
X171483501Y-81171573D01*
X171838469Y-81526541D01*
X172193437Y-81171573D01*
X172897714Y-81171573D01*
X173252682Y-81526541D01*
X173607650Y-81171573D01*
X174311928Y-81171573D01*
X174666896Y-81526541D01*
X175021864Y-81171573D01*
X175726141Y-81171573D01*
X176081109Y-81526541D01*
X176436077Y-81171573D01*
X177140355Y-81171573D01*
X177495323Y-81526541D01*
X177850291Y-81171573D01*
X178554568Y-81171573D01*
X178909536Y-81526541D01*
X179264505Y-81171573D01*
X179968782Y-81171573D01*
X180323750Y-81526541D01*
X180678718Y-81171573D01*
X181382996Y-81171573D01*
X181737964Y-81526541D01*
X182092932Y-81171573D01*
X182797209Y-81171573D01*
X183152177Y-81526541D01*
X183507145Y-81171573D01*
X184211423Y-81171573D01*
X184566391Y-81526541D01*
X184921359Y-81171573D01*
X185625636Y-81171573D01*
X185980604Y-81526541D01*
X186335572Y-81171573D01*
X187039850Y-81171573D01*
X187376000Y-81507723D01*
X187376000Y-80835423D01*
X187039850Y-81171573D01*
X186335572Y-81171573D01*
X185980604Y-80816605D01*
X185625636Y-81171573D01*
X184921359Y-81171573D01*
X184566391Y-80816605D01*
X184211423Y-81171573D01*
X183507145Y-81171573D01*
X183152177Y-80816605D01*
X182797209Y-81171573D01*
X182092932Y-81171573D01*
X181737964Y-80816605D01*
X181382996Y-81171573D01*
X180678718Y-81171573D01*
X180323750Y-80816605D01*
X179968782Y-81171573D01*
X179264505Y-81171573D01*
X178909536Y-80816604D01*
X178554568Y-81171573D01*
X177850291Y-81171573D01*
X177495323Y-80816605D01*
X177140355Y-81171573D01*
X176436077Y-81171573D01*
X176081109Y-80816605D01*
X175726141Y-81171573D01*
X175021864Y-81171573D01*
X174666896Y-80816605D01*
X174311928Y-81171573D01*
X173607650Y-81171573D01*
X173252682Y-80816605D01*
X172897714Y-81171573D01*
X172193437Y-81171573D01*
X171838469Y-80816605D01*
X171483501Y-81171573D01*
X170779223Y-81171573D01*
X170424255Y-80816605D01*
X170069287Y-81171573D01*
X169365010Y-81171573D01*
X169010042Y-80816605D01*
X168655074Y-81171573D01*
X167950796Y-81171573D01*
X167595828Y-80816605D01*
X167240860Y-81171573D01*
X166536582Y-81171573D01*
X166181614Y-80816604D01*
X165826646Y-81171573D01*
X165122369Y-81171573D01*
X164767401Y-80816605D01*
X164624000Y-80960006D01*
X164000000Y-80960006D01*
X164000000Y-80464466D01*
X165119540Y-80464466D01*
X165474508Y-80819434D01*
X165829476Y-80464466D01*
X166533753Y-80464466D01*
X166888721Y-80819434D01*
X167243689Y-80464466D01*
X167947967Y-80464466D01*
X168302935Y-80819434D01*
X168657903Y-80464466D01*
X169362180Y-80464466D01*
X169717148Y-80819434D01*
X170072116Y-80464466D01*
X170776394Y-80464466D01*
X171131362Y-80819434D01*
X171486330Y-80464466D01*
X172190607Y-80464466D01*
X172545575Y-80819434D01*
X172900544Y-80464466D01*
X173604821Y-80464466D01*
X173959789Y-80819434D01*
X174314757Y-80464466D01*
X175019035Y-80464466D01*
X175374003Y-80819434D01*
X175728971Y-80464466D01*
X176433248Y-80464466D01*
X176788216Y-80819434D01*
X177143184Y-80464466D01*
X177847462Y-80464466D01*
X178202430Y-80819434D01*
X178557398Y-80464466D01*
X179261675Y-80464466D01*
X179616643Y-80819434D01*
X179971611Y-80464466D01*
X180675889Y-80464466D01*
X181030857Y-80819434D01*
X181385825Y-80464466D01*
X182090102Y-80464466D01*
X182445070Y-80819434D01*
X182800038Y-80464466D01*
X183504316Y-80464466D01*
X183859284Y-80819434D01*
X184214252Y-80464466D01*
X184918529Y-80464466D01*
X185273497Y-80819434D01*
X185628466Y-80464466D01*
X186332743Y-80464466D01*
X186687711Y-80819434D01*
X187042679Y-80464466D01*
X186687711Y-80109498D01*
X186332743Y-80464466D01*
X185628466Y-80464466D01*
X185273497Y-80109497D01*
X184918529Y-80464466D01*
X184214252Y-80464466D01*
X183859284Y-80109498D01*
X183504316Y-80464466D01*
X182800038Y-80464466D01*
X182445070Y-80109497D01*
X182090102Y-80464466D01*
X181385825Y-80464466D01*
X181030857Y-80109498D01*
X180675889Y-80464466D01*
X179971611Y-80464466D01*
X179616643Y-80109498D01*
X179261675Y-80464466D01*
X178557398Y-80464466D01*
X178202430Y-80109498D01*
X177847462Y-80464466D01*
X177143184Y-80464466D01*
X176788216Y-80109498D01*
X176433248Y-80464466D01*
X175728971Y-80464466D01*
X175374003Y-80109498D01*
X175019035Y-80464466D01*
X174314757Y-80464466D01*
X173959789Y-80109498D01*
X173604821Y-80464466D01*
X172900544Y-80464466D01*
X172545575Y-80109497D01*
X172190607Y-80464466D01*
X171486330Y-80464466D01*
X171131362Y-80109498D01*
X170776394Y-80464466D01*
X170072116Y-80464466D01*
X169717148Y-80109498D01*
X169362180Y-80464466D01*
X168657903Y-80464466D01*
X168302935Y-80109498D01*
X167947967Y-80464466D01*
X167243689Y-80464466D01*
X166888721Y-80109498D01*
X166533753Y-80464466D01*
X165829476Y-80464466D01*
X165474508Y-80109498D01*
X165119540Y-80464466D01*
X164000000Y-80464466D01*
X164000000Y-79545792D01*
X164624000Y-79545792D01*
X164624000Y-79968926D01*
X164767401Y-80112327D01*
X165122369Y-79757359D01*
X165826646Y-79757359D01*
X166181614Y-80112327D01*
X166536582Y-79757359D01*
X167240860Y-79757359D01*
X167595828Y-80112327D01*
X167950796Y-79757359D01*
X168655074Y-79757359D01*
X169010042Y-80112327D01*
X169365010Y-79757359D01*
X170069287Y-79757359D01*
X170424255Y-80112327D01*
X170779223Y-79757359D01*
X171483501Y-79757359D01*
X171838469Y-80112327D01*
X172193437Y-79757359D01*
X172897714Y-79757359D01*
X173252682Y-80112327D01*
X173607650Y-79757359D01*
X174311928Y-79757359D01*
X174666896Y-80112327D01*
X175021864Y-79757359D01*
X175726141Y-79757359D01*
X176081109Y-80112327D01*
X176436077Y-79757359D01*
X177140355Y-79757359D01*
X177495323Y-80112327D01*
X177850291Y-79757359D01*
X178554568Y-79757359D01*
X178909536Y-80112327D01*
X179264505Y-79757359D01*
X179968782Y-79757359D01*
X180323750Y-80112327D01*
X180678718Y-79757359D01*
X181382996Y-79757359D01*
X181737964Y-80112327D01*
X182092932Y-79757359D01*
X182797209Y-79757359D01*
X183152177Y-80112327D01*
X183507145Y-79757359D01*
X184211423Y-79757359D01*
X184566391Y-80112327D01*
X184921359Y-79757359D01*
X185625636Y-79757359D01*
X185980604Y-80112327D01*
X186335572Y-79757359D01*
X187039850Y-79757359D01*
X187376000Y-80093509D01*
X187376000Y-79421209D01*
X187039850Y-79757359D01*
X186335572Y-79757359D01*
X185980604Y-79402391D01*
X185625636Y-79757359D01*
X184921359Y-79757359D01*
X184566391Y-79402391D01*
X184211423Y-79757359D01*
X183507145Y-79757359D01*
X183152177Y-79402391D01*
X182797209Y-79757359D01*
X182092932Y-79757359D01*
X181737964Y-79402391D01*
X181382996Y-79757359D01*
X180678718Y-79757359D01*
X180323750Y-79402391D01*
X179968782Y-79757359D01*
X179264505Y-79757359D01*
X178909536Y-79402390D01*
X178554568Y-79757359D01*
X177850291Y-79757359D01*
X177495323Y-79402391D01*
X177140355Y-79757359D01*
X176436077Y-79757359D01*
X176081109Y-79402391D01*
X175726141Y-79757359D01*
X175021864Y-79757359D01*
X174666896Y-79402391D01*
X174311928Y-79757359D01*
X173607650Y-79757359D01*
X173252682Y-79402391D01*
X172897714Y-79757359D01*
X172193437Y-79757359D01*
X171838469Y-79402391D01*
X171483501Y-79757359D01*
X170779223Y-79757359D01*
X170424255Y-79402391D01*
X170069287Y-79757359D01*
X169365010Y-79757359D01*
X169010042Y-79402391D01*
X168655074Y-79757359D01*
X167950796Y-79757359D01*
X167595828Y-79402391D01*
X167240860Y-79757359D01*
X166536582Y-79757359D01*
X166181614Y-79402390D01*
X165826646Y-79757359D01*
X165122369Y-79757359D01*
X164767401Y-79402391D01*
X164624000Y-79545792D01*
X164000000Y-79545792D01*
X164000000Y-79050252D01*
X165119540Y-79050252D01*
X165474508Y-79405220D01*
X165829476Y-79050252D01*
X166533753Y-79050252D01*
X166888721Y-79405220D01*
X167243689Y-79050252D01*
X167947967Y-79050252D01*
X168302935Y-79405220D01*
X168657903Y-79050252D01*
X169362180Y-79050252D01*
X169717148Y-79405220D01*
X170072116Y-79050252D01*
X170776394Y-79050252D01*
X171131362Y-79405220D01*
X171486330Y-79050252D01*
X172190607Y-79050252D01*
X172545575Y-79405220D01*
X172900544Y-79050252D01*
X173604821Y-79050252D01*
X173959789Y-79405220D01*
X174314757Y-79050252D01*
X175019035Y-79050252D01*
X175374003Y-79405220D01*
X175728971Y-79050252D01*
X176433248Y-79050252D01*
X176788216Y-79405220D01*
X177143184Y-79050252D01*
X177847462Y-79050252D01*
X178202430Y-79405220D01*
X178557398Y-79050252D01*
X179261675Y-79050252D01*
X179616643Y-79405220D01*
X179971611Y-79050252D01*
X180675889Y-79050252D01*
X181030857Y-79405220D01*
X181385825Y-79050252D01*
X182090102Y-79050252D01*
X182445070Y-79405220D01*
X182800038Y-79050252D01*
X183504316Y-79050252D01*
X183859284Y-79405220D01*
X184214252Y-79050252D01*
X184918529Y-79050252D01*
X185273497Y-79405220D01*
X185628466Y-79050252D01*
X186332743Y-79050252D01*
X186687711Y-79405220D01*
X187042679Y-79050252D01*
X186687711Y-78695284D01*
X186332743Y-79050252D01*
X185628466Y-79050252D01*
X185273497Y-78695283D01*
X184918529Y-79050252D01*
X184214252Y-79050252D01*
X183859284Y-78695284D01*
X183504316Y-79050252D01*
X182800038Y-79050252D01*
X182445070Y-78695283D01*
X182090102Y-79050252D01*
X181385825Y-79050252D01*
X181030857Y-78695284D01*
X180675889Y-79050252D01*
X179971611Y-79050252D01*
X179616643Y-78695284D01*
X179261675Y-79050252D01*
X178557398Y-79050252D01*
X178202430Y-78695284D01*
X177847462Y-79050252D01*
X177143184Y-79050252D01*
X176788216Y-78695284D01*
X176433248Y-79050252D01*
X175728971Y-79050252D01*
X175374003Y-78695284D01*
X175019035Y-79050252D01*
X174314757Y-79050252D01*
X173959789Y-78695284D01*
X173604821Y-79050252D01*
X172900544Y-79050252D01*
X172545575Y-78695283D01*
X172190607Y-79050252D01*
X171486330Y-79050252D01*
X171131362Y-78695284D01*
X170776394Y-79050252D01*
X170072116Y-79050252D01*
X169717148Y-78695284D01*
X169362180Y-79050252D01*
X168657903Y-79050252D01*
X168302935Y-78695284D01*
X167947967Y-79050252D01*
X167243689Y-79050252D01*
X166888721Y-78695284D01*
X166533753Y-79050252D01*
X165829476Y-79050252D01*
X165474508Y-78695284D01*
X165119540Y-79050252D01*
X164000000Y-79050252D01*
X164000000Y-78131578D01*
X164624000Y-78131578D01*
X164624000Y-78554713D01*
X164767401Y-78698114D01*
X165122369Y-78343145D01*
X165826645Y-78343145D01*
X166181614Y-78698114D01*
X166536582Y-78343145D01*
X167240859Y-78343145D01*
X167595828Y-78698114D01*
X167950796Y-78343145D01*
X168655073Y-78343145D01*
X169010042Y-78698114D01*
X169365010Y-78343145D01*
X170069286Y-78343145D01*
X170424255Y-78698114D01*
X170779223Y-78343145D01*
X171483500Y-78343145D01*
X171838469Y-78698114D01*
X172193437Y-78343145D01*
X172897713Y-78343145D01*
X173252682Y-78698114D01*
X173607650Y-78343145D01*
X174311927Y-78343145D01*
X174666896Y-78698114D01*
X175021864Y-78343145D01*
X175726140Y-78343145D01*
X176081109Y-78698114D01*
X176436077Y-78343145D01*
X177140354Y-78343145D01*
X177495323Y-78698114D01*
X177850291Y-78343145D01*
X178554568Y-78343145D01*
X178909536Y-78698114D01*
X179264505Y-78343145D01*
X179968781Y-78343145D01*
X180323750Y-78698114D01*
X180678718Y-78343145D01*
X181382995Y-78343145D01*
X181737964Y-78698114D01*
X182092932Y-78343145D01*
X182797208Y-78343145D01*
X183152177Y-78698114D01*
X183507145Y-78343145D01*
X184211422Y-78343145D01*
X184566391Y-78698114D01*
X184921359Y-78343145D01*
X185625635Y-78343145D01*
X185980604Y-78698114D01*
X186335572Y-78343145D01*
X187039849Y-78343145D01*
X187376000Y-78679296D01*
X187376000Y-78006995D01*
X187039849Y-78343145D01*
X186335572Y-78343145D01*
X185980604Y-77988177D01*
X185625635Y-78343145D01*
X184921359Y-78343145D01*
X184566391Y-77988177D01*
X184211422Y-78343145D01*
X183507145Y-78343145D01*
X183152177Y-77988177D01*
X182797208Y-78343145D01*
X182092932Y-78343145D01*
X181737964Y-77988177D01*
X181382995Y-78343145D01*
X180678718Y-78343145D01*
X180323750Y-77988177D01*
X179968781Y-78343145D01*
X179264505Y-78343145D01*
X178909536Y-77988177D01*
X178554568Y-78343145D01*
X177850291Y-78343145D01*
X177495323Y-77988177D01*
X177140354Y-78343145D01*
X176436077Y-78343145D01*
X176081109Y-77988177D01*
X175726140Y-78343145D01*
X175021864Y-78343145D01*
X174666896Y-77988177D01*
X174311927Y-78343145D01*
X173607650Y-78343145D01*
X173252682Y-77988177D01*
X172897713Y-78343145D01*
X172193437Y-78343145D01*
X171838469Y-77988177D01*
X171483500Y-78343145D01*
X170779223Y-78343145D01*
X170424255Y-77988177D01*
X170069286Y-78343145D01*
X169365010Y-78343145D01*
X169010042Y-77988177D01*
X168655073Y-78343145D01*
X167950796Y-78343145D01*
X167595828Y-77988177D01*
X167240859Y-78343145D01*
X166536582Y-78343145D01*
X166181614Y-77988177D01*
X165826645Y-78343145D01*
X165122369Y-78343145D01*
X164767400Y-77988177D01*
X164624000Y-78131578D01*
X164000000Y-78131578D01*
X164000000Y-77636039D01*
X165119540Y-77636039D01*
X165474508Y-77991007D01*
X165829476Y-77636039D01*
X166533753Y-77636039D01*
X166888721Y-77991007D01*
X167243689Y-77636039D01*
X167947967Y-77636039D01*
X168302935Y-77991007D01*
X168657903Y-77636039D01*
X169362180Y-77636039D01*
X169717148Y-77991007D01*
X170072116Y-77636039D01*
X170776394Y-77636039D01*
X171131362Y-77991007D01*
X171486330Y-77636039D01*
X172190607Y-77636039D01*
X172545575Y-77991007D01*
X172900544Y-77636039D01*
X173604821Y-77636039D01*
X173959789Y-77991007D01*
X174314757Y-77636039D01*
X175019035Y-77636039D01*
X175374003Y-77991007D01*
X175728971Y-77636039D01*
X176433248Y-77636039D01*
X176788216Y-77991007D01*
X177143184Y-77636039D01*
X177847462Y-77636039D01*
X178202430Y-77991007D01*
X178557398Y-77636039D01*
X179261675Y-77636039D01*
X179616643Y-77991007D01*
X179971611Y-77636039D01*
X180675889Y-77636039D01*
X181030857Y-77991007D01*
X181385825Y-77636039D01*
X182090102Y-77636039D01*
X182445070Y-77991007D01*
X182800038Y-77636039D01*
X183504316Y-77636039D01*
X183859284Y-77991007D01*
X184214252Y-77636039D01*
X184918529Y-77636039D01*
X185273497Y-77991007D01*
X185628466Y-77636039D01*
X186332743Y-77636039D01*
X186687711Y-77991007D01*
X187042679Y-77636039D01*
X186687711Y-77281071D01*
X186332743Y-77636039D01*
X185628466Y-77636039D01*
X185273497Y-77281070D01*
X184918529Y-77636039D01*
X184214252Y-77636039D01*
X183859284Y-77281071D01*
X183504316Y-77636039D01*
X182800038Y-77636039D01*
X182445070Y-77281070D01*
X182090102Y-77636039D01*
X181385825Y-77636039D01*
X181030857Y-77281071D01*
X180675889Y-77636039D01*
X179971611Y-77636039D01*
X179616643Y-77281071D01*
X179261675Y-77636039D01*
X178557398Y-77636039D01*
X178202430Y-77281071D01*
X177847462Y-77636039D01*
X177143184Y-77636039D01*
X176788216Y-77281071D01*
X176433248Y-77636039D01*
X175728971Y-77636039D01*
X175374003Y-77281071D01*
X175019035Y-77636039D01*
X174314757Y-77636039D01*
X173959789Y-77281071D01*
X173604821Y-77636039D01*
X172900544Y-77636039D01*
X172545575Y-77281070D01*
X172190607Y-77636039D01*
X171486330Y-77636039D01*
X171131362Y-77281071D01*
X170776394Y-77636039D01*
X170072116Y-77636039D01*
X169717148Y-77281071D01*
X169362180Y-77636039D01*
X168657903Y-77636039D01*
X168302935Y-77281071D01*
X167947967Y-77636039D01*
X167243689Y-77636039D01*
X166888721Y-77281071D01*
X166533753Y-77636039D01*
X165829476Y-77636039D01*
X165474508Y-77281071D01*
X165119540Y-77636039D01*
X164000000Y-77636039D01*
X164000000Y-76717365D01*
X164624000Y-76717365D01*
X164624000Y-77140499D01*
X164767401Y-77283900D01*
X165122369Y-76928932D01*
X165826646Y-76928932D01*
X166181614Y-77283900D01*
X166536582Y-76928932D01*
X167240860Y-76928932D01*
X167595828Y-77283900D01*
X167950796Y-76928932D01*
X168655074Y-76928932D01*
X169010042Y-77283900D01*
X169365010Y-76928932D01*
X170069287Y-76928932D01*
X170424255Y-77283900D01*
X170779223Y-76928932D01*
X171483501Y-76928932D01*
X171838469Y-77283900D01*
X172193437Y-76928932D01*
X172897714Y-76928932D01*
X173252682Y-77283900D01*
X173607650Y-76928932D01*
X174311928Y-76928932D01*
X174666896Y-77283900D01*
X175021864Y-76928932D01*
X175726141Y-76928932D01*
X176081109Y-77283900D01*
X176436077Y-76928932D01*
X177140355Y-76928932D01*
X177495323Y-77283900D01*
X177850291Y-76928932D01*
X178554568Y-76928932D01*
X178909536Y-77283900D01*
X179264505Y-76928932D01*
X179968782Y-76928932D01*
X180323750Y-77283900D01*
X180678718Y-76928932D01*
X181382996Y-76928932D01*
X181737964Y-77283900D01*
X182092932Y-76928932D01*
X182797209Y-76928932D01*
X183152177Y-77283900D01*
X183507145Y-76928932D01*
X184211423Y-76928932D01*
X184566391Y-77283900D01*
X184921359Y-76928932D01*
X185625636Y-76928932D01*
X185980604Y-77283900D01*
X186335572Y-76928932D01*
X187039850Y-76928932D01*
X187376000Y-77265082D01*
X187376000Y-76592782D01*
X187039850Y-76928932D01*
X186335572Y-76928932D01*
X185980604Y-76573964D01*
X185625636Y-76928932D01*
X184921359Y-76928932D01*
X184566391Y-76573964D01*
X184211423Y-76928932D01*
X183507145Y-76928932D01*
X183152177Y-76573964D01*
X182797209Y-76928932D01*
X182092932Y-76928932D01*
X181737964Y-76573964D01*
X181382996Y-76928932D01*
X180678718Y-76928932D01*
X180323750Y-76573964D01*
X179968782Y-76928932D01*
X179264505Y-76928932D01*
X178909536Y-76573963D01*
X178554568Y-76928932D01*
X177850291Y-76928932D01*
X177495323Y-76573964D01*
X177140355Y-76928932D01*
X176436077Y-76928932D01*
X176081109Y-76573964D01*
X175726141Y-76928932D01*
X175021864Y-76928932D01*
X174666896Y-76573964D01*
X174311928Y-76928932D01*
X173607650Y-76928932D01*
X173252682Y-76573964D01*
X172897714Y-76928932D01*
X172193437Y-76928932D01*
X171838469Y-76573964D01*
X171483501Y-76928932D01*
X170779223Y-76928932D01*
X170424255Y-76573964D01*
X170069287Y-76928932D01*
X169365010Y-76928932D01*
X169010042Y-76573964D01*
X168655074Y-76928932D01*
X167950796Y-76928932D01*
X167595828Y-76573964D01*
X167240860Y-76928932D01*
X166536582Y-76928932D01*
X166181614Y-76573963D01*
X165826646Y-76928932D01*
X165122369Y-76928932D01*
X164767401Y-76573964D01*
X164624000Y-76717365D01*
X164000000Y-76717365D01*
X164000000Y-76221825D01*
X165119540Y-76221825D01*
X165474508Y-76576793D01*
X165829476Y-76221825D01*
X166533753Y-76221825D01*
X166888721Y-76576793D01*
X167243689Y-76221825D01*
X167947967Y-76221825D01*
X168302935Y-76576793D01*
X168657903Y-76221825D01*
X169362180Y-76221825D01*
X169717148Y-76576793D01*
X170072116Y-76221825D01*
X170776394Y-76221825D01*
X171131362Y-76576793D01*
X171486330Y-76221825D01*
X172190607Y-76221825D01*
X172545575Y-76576793D01*
X172900544Y-76221825D01*
X173604821Y-76221825D01*
X173959789Y-76576793D01*
X174314757Y-76221825D01*
X175019035Y-76221825D01*
X175374003Y-76576793D01*
X175728971Y-76221825D01*
X176433248Y-76221825D01*
X176788216Y-76576793D01*
X177143184Y-76221825D01*
X177847462Y-76221825D01*
X178202430Y-76576793D01*
X178557398Y-76221825D01*
X179261675Y-76221825D01*
X179616643Y-76576793D01*
X179971611Y-76221825D01*
X180675889Y-76221825D01*
X181030857Y-76576793D01*
X181385825Y-76221825D01*
X182090102Y-76221825D01*
X182445070Y-76576793D01*
X182800038Y-76221825D01*
X183504316Y-76221825D01*
X183859284Y-76576793D01*
X184214252Y-76221825D01*
X184918529Y-76221825D01*
X185273497Y-76576793D01*
X185628466Y-76221825D01*
X186332743Y-76221825D01*
X186687711Y-76576793D01*
X187042679Y-76221825D01*
X186687711Y-75866857D01*
X186332743Y-76221825D01*
X185628466Y-76221825D01*
X185273497Y-75866856D01*
X184918529Y-76221825D01*
X184214252Y-76221825D01*
X183859284Y-75866857D01*
X183504316Y-76221825D01*
X182800038Y-76221825D01*
X182445070Y-75866856D01*
X182090102Y-76221825D01*
X181385825Y-76221825D01*
X181030857Y-75866857D01*
X180675889Y-76221825D01*
X179971611Y-76221825D01*
X179616643Y-75866857D01*
X179261675Y-76221825D01*
X178557398Y-76221825D01*
X178202430Y-75866857D01*
X177847462Y-76221825D01*
X177143184Y-76221825D01*
X176788216Y-75866857D01*
X176433248Y-76221825D01*
X175728971Y-76221825D01*
X175374003Y-75866857D01*
X175019035Y-76221825D01*
X174314757Y-76221825D01*
X173959789Y-75866857D01*
X173604821Y-76221825D01*
X172900544Y-76221825D01*
X172545575Y-75866856D01*
X172190607Y-76221825D01*
X171486330Y-76221825D01*
X171131362Y-75866857D01*
X170776394Y-76221825D01*
X170072116Y-76221825D01*
X169717148Y-75866857D01*
X169362180Y-76221825D01*
X168657903Y-76221825D01*
X168302935Y-75866857D01*
X167947967Y-76221825D01*
X167243689Y-76221825D01*
X166888721Y-75866857D01*
X166533753Y-76221825D01*
X165829476Y-76221825D01*
X165474508Y-75866857D01*
X165119540Y-76221825D01*
X164000000Y-76221825D01*
X164000000Y-75303151D01*
X164624000Y-75303151D01*
X164624000Y-75726285D01*
X164767401Y-75869686D01*
X165122369Y-75514718D01*
X165826645Y-75514718D01*
X166181614Y-75869686D01*
X166536582Y-75514718D01*
X167240859Y-75514718D01*
X167595828Y-75869686D01*
X167950796Y-75514718D01*
X168655073Y-75514718D01*
X169010042Y-75869686D01*
X169365010Y-75514718D01*
X170069286Y-75514718D01*
X170424255Y-75869686D01*
X170779223Y-75514718D01*
X171483500Y-75514718D01*
X171838469Y-75869686D01*
X172193437Y-75514718D01*
X172897713Y-75514718D01*
X173252682Y-75869686D01*
X173607650Y-75514718D01*
X174311927Y-75514718D01*
X174666896Y-75869686D01*
X175021864Y-75514718D01*
X175726140Y-75514718D01*
X176081109Y-75869686D01*
X176436077Y-75514718D01*
X177140354Y-75514718D01*
X177495323Y-75869686D01*
X177850291Y-75514718D01*
X178554568Y-75514718D01*
X178909536Y-75869686D01*
X179264505Y-75514718D01*
X179968781Y-75514718D01*
X180323750Y-75869686D01*
X180678718Y-75514718D01*
X181382995Y-75514718D01*
X181737964Y-75869686D01*
X182092932Y-75514718D01*
X182797208Y-75514718D01*
X183152177Y-75869686D01*
X183507145Y-75514718D01*
X184211422Y-75514718D01*
X184566391Y-75869686D01*
X184921359Y-75514718D01*
X185625635Y-75514718D01*
X185980604Y-75869686D01*
X186335572Y-75514718D01*
X187039849Y-75514718D01*
X187376000Y-75850868D01*
X187376000Y-75178568D01*
X187039849Y-75514718D01*
X186335572Y-75514718D01*
X185980604Y-75159750D01*
X185625635Y-75514718D01*
X184921359Y-75514718D01*
X184566391Y-75159750D01*
X184211422Y-75514718D01*
X183507145Y-75514718D01*
X183152177Y-75159750D01*
X182797208Y-75514718D01*
X182092932Y-75514718D01*
X181737964Y-75159750D01*
X181382995Y-75514718D01*
X180678718Y-75514718D01*
X180323750Y-75159750D01*
X179968781Y-75514718D01*
X179264505Y-75514718D01*
X178909536Y-75159749D01*
X178554568Y-75514718D01*
X177850291Y-75514718D01*
X177495323Y-75159750D01*
X177140354Y-75514718D01*
X176436077Y-75514718D01*
X176081109Y-75159750D01*
X175726140Y-75514718D01*
X175021864Y-75514718D01*
X174666896Y-75159750D01*
X174311927Y-75514718D01*
X173607650Y-75514718D01*
X173252682Y-75159750D01*
X172897713Y-75514718D01*
X172193437Y-75514718D01*
X171838469Y-75159750D01*
X171483500Y-75514718D01*
X170779223Y-75514718D01*
X170424255Y-75159750D01*
X170069286Y-75514718D01*
X169365010Y-75514718D01*
X169010042Y-75159750D01*
X168655073Y-75514718D01*
X167950796Y-75514718D01*
X167595828Y-75159750D01*
X167240859Y-75514718D01*
X166536582Y-75514718D01*
X166181614Y-75159749D01*
X165826645Y-75514718D01*
X165122369Y-75514718D01*
X164767401Y-75159750D01*
X164624000Y-75303151D01*
X164000000Y-75303151D01*
X164000000Y-74807612D01*
X165119540Y-74807612D01*
X165474508Y-75162580D01*
X165829476Y-74807612D01*
X166533753Y-74807612D01*
X166888721Y-75162580D01*
X167243689Y-74807612D01*
X167947967Y-74807612D01*
X168302935Y-75162580D01*
X168657903Y-74807612D01*
X169362180Y-74807612D01*
X169717148Y-75162580D01*
X170072116Y-74807612D01*
X170776394Y-74807612D01*
X171131362Y-75162580D01*
X171486330Y-74807612D01*
X172190607Y-74807612D01*
X172545575Y-75162580D01*
X172900544Y-74807612D01*
X173604821Y-74807612D01*
X173959789Y-75162580D01*
X174314757Y-74807612D01*
X175019035Y-74807612D01*
X175374003Y-75162580D01*
X175728971Y-74807612D01*
X176433248Y-74807612D01*
X176788216Y-75162580D01*
X177143184Y-74807612D01*
X177847462Y-74807612D01*
X178202430Y-75162580D01*
X178557398Y-74807612D01*
X179261675Y-74807612D01*
X179616643Y-75162580D01*
X179971611Y-74807612D01*
X180675889Y-74807612D01*
X181030857Y-75162580D01*
X181385825Y-74807612D01*
X182090102Y-74807612D01*
X182445070Y-75162580D01*
X182800038Y-74807612D01*
X183504316Y-74807612D01*
X183859284Y-75162580D01*
X184214252Y-74807612D01*
X184918529Y-74807612D01*
X185273497Y-75162580D01*
X185628466Y-74807612D01*
X186332743Y-74807612D01*
X186687711Y-75162580D01*
X187042679Y-74807612D01*
X186687711Y-74452644D01*
X186332743Y-74807612D01*
X185628466Y-74807612D01*
X185273497Y-74452643D01*
X184918529Y-74807612D01*
X184214252Y-74807612D01*
X183859284Y-74452644D01*
X183504316Y-74807612D01*
X182800038Y-74807612D01*
X182445070Y-74452643D01*
X182090102Y-74807612D01*
X181385825Y-74807612D01*
X181030857Y-74452644D01*
X180675889Y-74807612D01*
X179971611Y-74807612D01*
X179616643Y-74452644D01*
X179261675Y-74807612D01*
X178557398Y-74807612D01*
X178202430Y-74452644D01*
X177847462Y-74807612D01*
X177143184Y-74807612D01*
X176788216Y-74452644D01*
X176433248Y-74807612D01*
X175728971Y-74807612D01*
X175374003Y-74452644D01*
X175019035Y-74807612D01*
X174314757Y-74807612D01*
X173959789Y-74452644D01*
X173604821Y-74807612D01*
X172900544Y-74807612D01*
X172545575Y-74452643D01*
X172190607Y-74807612D01*
X171486330Y-74807612D01*
X171131362Y-74452644D01*
X170776394Y-74807612D01*
X170072116Y-74807612D01*
X169717148Y-74452644D01*
X169362180Y-74807612D01*
X168657903Y-74807612D01*
X168302935Y-74452644D01*
X167947967Y-74807612D01*
X167243689Y-74807612D01*
X166888721Y-74452644D01*
X166533753Y-74807612D01*
X165829476Y-74807612D01*
X165474508Y-74452644D01*
X165119540Y-74807612D01*
X164000000Y-74807612D01*
X164000000Y-73888938D01*
X164624000Y-73888938D01*
X164624000Y-74312072D01*
X164767401Y-74455473D01*
X165122369Y-74100505D01*
X165826646Y-74100505D01*
X166181614Y-74455473D01*
X166536582Y-74100505D01*
X167240860Y-74100505D01*
X167595828Y-74455473D01*
X167950796Y-74100505D01*
X168655074Y-74100505D01*
X169010042Y-74455473D01*
X169365010Y-74100505D01*
X170069287Y-74100505D01*
X170424255Y-74455473D01*
X170779223Y-74100505D01*
X171483501Y-74100505D01*
X171838469Y-74455473D01*
X172193437Y-74100505D01*
X172897714Y-74100505D01*
X173252682Y-74455473D01*
X173607650Y-74100505D01*
X174311928Y-74100505D01*
X174666896Y-74455473D01*
X175021864Y-74100505D01*
X175726141Y-74100505D01*
X176081109Y-74455473D01*
X176436077Y-74100505D01*
X177140355Y-74100505D01*
X177495323Y-74455473D01*
X177850291Y-74100505D01*
X178554568Y-74100505D01*
X178909536Y-74455473D01*
X179264505Y-74100505D01*
X179968782Y-74100505D01*
X180323750Y-74455473D01*
X180678718Y-74100505D01*
X181382996Y-74100505D01*
X181737964Y-74455473D01*
X182092932Y-74100505D01*
X182797209Y-74100505D01*
X183152177Y-74455473D01*
X183507145Y-74100505D01*
X184211423Y-74100505D01*
X184566391Y-74455473D01*
X184921359Y-74100505D01*
X185625636Y-74100505D01*
X185980604Y-74455473D01*
X186335572Y-74100505D01*
X187039850Y-74100505D01*
X187376000Y-74436655D01*
X187376000Y-73764355D01*
X187039850Y-74100505D01*
X186335572Y-74100505D01*
X185980604Y-73745537D01*
X185625636Y-74100505D01*
X184921359Y-74100505D01*
X184566391Y-73745537D01*
X184211423Y-74100505D01*
X183507145Y-74100505D01*
X183152177Y-73745537D01*
X182797209Y-74100505D01*
X182092932Y-74100505D01*
X181737964Y-73745537D01*
X181382996Y-74100505D01*
X180678718Y-74100505D01*
X180323750Y-73745537D01*
X179968782Y-74100505D01*
X179264505Y-74100505D01*
X178909536Y-73745536D01*
X178554568Y-74100505D01*
X177850291Y-74100505D01*
X177495323Y-73745537D01*
X177140355Y-74100505D01*
X176436077Y-74100505D01*
X176081109Y-73745537D01*
X175726141Y-74100505D01*
X175021864Y-74100505D01*
X174666896Y-73745537D01*
X174311928Y-74100505D01*
X173607650Y-74100505D01*
X173252682Y-73745537D01*
X172897714Y-74100505D01*
X172193437Y-74100505D01*
X171838469Y-73745537D01*
X171483501Y-74100505D01*
X170779223Y-74100505D01*
X170424255Y-73745537D01*
X170069287Y-74100505D01*
X169365010Y-74100505D01*
X169010042Y-73745537D01*
X168655074Y-74100505D01*
X167950796Y-74100505D01*
X167595828Y-73745537D01*
X167240860Y-74100505D01*
X166536582Y-74100505D01*
X166181614Y-73745536D01*
X165826646Y-74100505D01*
X165122369Y-74100505D01*
X164767401Y-73745537D01*
X164624000Y-73888938D01*
X164000000Y-73888938D01*
X164000000Y-73393398D01*
X165119540Y-73393398D01*
X165474508Y-73748366D01*
X165829476Y-73393398D01*
X166533753Y-73393398D01*
X166888721Y-73748366D01*
X167243689Y-73393398D01*
X167947967Y-73393398D01*
X168302935Y-73748366D01*
X168657903Y-73393398D01*
X169362180Y-73393398D01*
X169717148Y-73748366D01*
X170072116Y-73393398D01*
X170776394Y-73393398D01*
X171131362Y-73748366D01*
X171486330Y-73393398D01*
X172190607Y-73393398D01*
X172545575Y-73748366D01*
X172900544Y-73393398D01*
X173604821Y-73393398D01*
X173959789Y-73748366D01*
X174314757Y-73393398D01*
X175019035Y-73393398D01*
X175374003Y-73748366D01*
X175728971Y-73393398D01*
X176433248Y-73393398D01*
X176788216Y-73748366D01*
X177143184Y-73393398D01*
X177847462Y-73393398D01*
X178202430Y-73748366D01*
X178557398Y-73393398D01*
X179261675Y-73393398D01*
X179616643Y-73748366D01*
X179971611Y-73393398D01*
X180675889Y-73393398D01*
X181030857Y-73748366D01*
X181385825Y-73393398D01*
X182090102Y-73393398D01*
X182445070Y-73748366D01*
X182800038Y-73393398D01*
X183504316Y-73393398D01*
X183859284Y-73748366D01*
X184214252Y-73393398D01*
X184918529Y-73393398D01*
X185273497Y-73748366D01*
X185628466Y-73393398D01*
X186332743Y-73393398D01*
X186687711Y-73748366D01*
X187042679Y-73393398D01*
X186687711Y-73038430D01*
X186332743Y-73393398D01*
X185628466Y-73393398D01*
X185273497Y-73038429D01*
X184918529Y-73393398D01*
X184214252Y-73393398D01*
X183859284Y-73038430D01*
X183504316Y-73393398D01*
X182800038Y-73393398D01*
X182445070Y-73038429D01*
X182090102Y-73393398D01*
X181385825Y-73393398D01*
X181030857Y-73038430D01*
X180675889Y-73393398D01*
X179971611Y-73393398D01*
X179616643Y-73038430D01*
X179261675Y-73393398D01*
X178557398Y-73393398D01*
X178202430Y-73038430D01*
X177847462Y-73393398D01*
X177143184Y-73393398D01*
X176788216Y-73038430D01*
X176433248Y-73393398D01*
X175728971Y-73393398D01*
X175374003Y-73038430D01*
X175019035Y-73393398D01*
X174314757Y-73393398D01*
X173959789Y-73038430D01*
X173604821Y-73393398D01*
X172900544Y-73393398D01*
X172545575Y-73038429D01*
X172190607Y-73393398D01*
X171486330Y-73393398D01*
X171131362Y-73038430D01*
X170776394Y-73393398D01*
X170072116Y-73393398D01*
X169717148Y-73038430D01*
X169362180Y-73393398D01*
X168657903Y-73393398D01*
X168302935Y-73038430D01*
X167947967Y-73393398D01*
X167243689Y-73393398D01*
X166888721Y-73038430D01*
X166533753Y-73393398D01*
X165829476Y-73393398D01*
X165474508Y-73038430D01*
X165119540Y-73393398D01*
X164000000Y-73393398D01*
X164000000Y-73000000D01*
X164313709Y-72686291D01*
X165826646Y-72686291D01*
X166181614Y-73041259D01*
X166536582Y-72686291D01*
X167240860Y-72686291D01*
X167595828Y-73041259D01*
X167950796Y-72686291D01*
X168655074Y-72686291D01*
X169010042Y-73041259D01*
X169365010Y-72686291D01*
X170069287Y-72686291D01*
X170424255Y-73041259D01*
X170779223Y-72686291D01*
X171483501Y-72686291D01*
X171838469Y-73041259D01*
X172193437Y-72686291D01*
X172897714Y-72686291D01*
X173252682Y-73041259D01*
X173607650Y-72686291D01*
X174311928Y-72686291D01*
X174666896Y-73041259D01*
X175021864Y-72686291D01*
X175726141Y-72686291D01*
X176081109Y-73041259D01*
X176436077Y-72686291D01*
X177140355Y-72686291D01*
X177495323Y-73041259D01*
X177850291Y-72686291D01*
X178554568Y-72686291D01*
X178909536Y-73041259D01*
X179264505Y-72686291D01*
X179968782Y-72686291D01*
X180323750Y-73041259D01*
X180678718Y-72686291D01*
X181382996Y-72686291D01*
X181737964Y-73041259D01*
X182092932Y-72686291D01*
X182797209Y-72686291D01*
X183152177Y-73041259D01*
X183507145Y-72686291D01*
X184211423Y-72686291D01*
X184566391Y-73041259D01*
X184921359Y-72686291D01*
X185625636Y-72686291D01*
X185980604Y-73041259D01*
X186335572Y-72686291D01*
X186273281Y-72624000D01*
X185687927Y-72624000D01*
X185625636Y-72686291D01*
X184921359Y-72686291D01*
X184859068Y-72624000D01*
X184273714Y-72624000D01*
X184211423Y-72686291D01*
X183507145Y-72686291D01*
X183444854Y-72624000D01*
X182859500Y-72624000D01*
X182797209Y-72686291D01*
X182092932Y-72686291D01*
X182030641Y-72624000D01*
X181445287Y-72624000D01*
X181382996Y-72686291D01*
X180678718Y-72686291D01*
X180616427Y-72624000D01*
X180031073Y-72624000D01*
X179968782Y-72686291D01*
X179264505Y-72686291D01*
X179202214Y-72624000D01*
X178616860Y-72624000D01*
X178554568Y-72686291D01*
X177850291Y-72686291D01*
X177788000Y-72624000D01*
X177202646Y-72624000D01*
X177140355Y-72686291D01*
X176436077Y-72686291D01*
X176373786Y-72624000D01*
X175788432Y-72624000D01*
X175726141Y-72686291D01*
X175021864Y-72686291D01*
X174959573Y-72624000D01*
X174374219Y-72624000D01*
X174311928Y-72686291D01*
X173607650Y-72686291D01*
X173545359Y-72624000D01*
X172960005Y-72624000D01*
X172897714Y-72686291D01*
X172193437Y-72686291D01*
X172131146Y-72624000D01*
X171545792Y-72624000D01*
X171483501Y-72686291D01*
X170779223Y-72686291D01*
X170716932Y-72624000D01*
X170131578Y-72624000D01*
X170069287Y-72686291D01*
X169365010Y-72686291D01*
X169302719Y-72624000D01*
X168717365Y-72624000D01*
X168655074Y-72686291D01*
X167950796Y-72686291D01*
X167888505Y-72624000D01*
X167303151Y-72624000D01*
X167240860Y-72686291D01*
X166536582Y-72686291D01*
X166474291Y-72624000D01*
X165888937Y-72624000D01*
X165826646Y-72686291D01*
X164313709Y-72686291D01*
X164963681Y-72036319D01*
X165025004Y-72002834D01*
X165051362Y-72000000D01*
X186948638Y-72000000D01*
X187015677Y-72019685D01*
G37*
%TD.AperFunction*%
%TD*%
M02*
